<?xml version='1.0' encoding='UTF-8'?>
<!DOCTYPE svg PUBLIC "-//W3C//DTD SVG 1.1//EN" "http://www.w3.org/Graphics/SVG/1.1/DTD/svg11.dtd">
<svg xmlns="http://www.w3.org/2000/svg" version="1.1" width="888" height="158">
  <g>
    <line x1="60" y1="20" x2="60" y2="28" style="fill:rgb(211,211,211);stroke:black;stroke-width:1;fill-opacity:1;"/>
    <rect x="60" y="28" width="768" height="30" style="fill:rgb(211,211,211);stroke:black;stroke-width:1;fill-opacity:1;"/>
    <text x="444" y="47.5" style="fill:black;font-family:monospace;font-size:12.6;text-anchor:middle">RES0</text>
    <line x1="828" y1="20" x2="828" y2="28" style="fill:rgb(211,211,211);stroke:black;stroke-width:1;fill-opacity:1;"/>
    <text x="72" y="24" style="font-family: monospace;fill:black" text-anchor="middle">63</text>
    <text x="816" y="24" style="font-family: monospace;fill:black" text-anchor="middle">32</text>
  </g>
  <g/>
  <line x1="828" y1="0" x2="888" y2="0" style="stroke-opacity:0;stroke:black;stroke-width:1;"/>
  <line x1="833" y1="28" x2="833" y2="58" stroke-dasharray="3, 3" style="stroke:black;stroke-width:2"/>
  <line x1="55" y1="88" x2="55" y2="118" stroke-dasharray="3, 3" style="stroke:black;stroke-width:2"/>
  <g>
    <line x1="60" y1="80" x2="60" y2="88" style="fill:rgb(211,211,211);stroke:black;stroke-width:1;fill-opacity:1;"/>
    <rect x="60" y="88" width="360" height="30" style="fill:rgb(211,211,211);stroke:black;stroke-width:1;fill-opacity:1;"/>
    <text x="240" y="107.5" style="fill:black;font-family:monospace;font-size:12.6;text-anchor:middle">RES0</text>
    <line x1="420" y1="80" x2="420" y2="88" style="fill:rgb(211,211,211);stroke:black;stroke-width:1;fill-opacity:1;"/>
    <text x="72" y="84" style="font-family: monospace;fill:black" text-anchor="middle">31</text>
    <text x="408" y="84" style="font-family: monospace;fill:black" text-anchor="middle">17</text>
    <rect x="420" y="88" width="24" height="30" style="fill:white;stroke:black;stroke-width:1;fill-opacity:0;"/>
    <line x1="444" y1="80" x2="444" y2="88" style="fill:white;stroke:black;stroke-width:1;fill-opacity:0;"/>
    <text x="432" y="84" style="font-family: monospace;fill:black" text-anchor="middle">16</text>
    <rect x="444" y="88" width="384" height="30" style="fill:white;stroke:black;stroke-width:1;fill-opacity:0;"/>
    <text x="636" y="107.5" style="fill:black;font-family:monospace;font-size:12.6;text-anchor:middle">Exclude</text>
    <line x1="828" y1="80" x2="828" y2="88" style="fill:white;stroke:black;stroke-width:1;fill-opacity:0;"/>
    <text x="456" y="84" style="font-family: monospace;fill:black" text-anchor="middle">15</text>
    <text x="816" y="84" style="font-family: monospace;fill:black" text-anchor="middle">0</text>
  </g>
  <g/>
  <line x1="828" y1="0" x2="888" y2="0" style="stroke-opacity:0;stroke:black;stroke-width:1;"/>
  <line x1="432" y1="120" x2="432" y2="138" style="fill:white;stroke:black;stroke-width:1;fill-opacity:0;"/>
  <line x1="432" y1="138" x2="442" y2="138" style="fill:white;stroke:black;stroke-width:1;fill-opacity:0;"/>
  <text x="444" y="140" style="fill:black;font-family:monospace;font-size:12.6;text-anchor:start">RRND</text>
</svg>
