<svg width="585" height="110" viewBox="0 0 585 110" fill="none" xmlns="http://www.w3.org/2000/svg">
<rect width="585" height="110" fill="#1B1B1B"/>
<rect x="13.5" y="22.5" width="558" height="24" fill="#1B1B1B" stroke="white"/>
<rect x="13.5" y="72.5" width="558" height="24" fill="#1B1B1B" stroke="white"/>
<line x1="578" y1="8" x2="578" y2="47" stroke="white" stroke-width="2" stroke-dasharray="4 4"/>
<line x1="7" y1="58" x2="7" y2="97" stroke="white" stroke-width="2" stroke-dasharray="4 4"/>
<line x1="502.5" y1="61" x2="502.5" y2="97" stroke="white"/>
<line x1="571.5" y1="61" x2="571.5" y2="97" stroke="white"/>
<line x1="432.5" y1="61" x2="432.5" y2="97" stroke="white"/>
<line x1="362.5" y1="61" x2="362.5" y2="97" stroke="white"/>
<line x1="292.5" y1="61" x2="292.5" y2="97" stroke="white"/>
<line x1="222.5" y1="61" x2="222.5" y2="97" stroke="white"/>
<line x1="152.5" y1="61" x2="152.5" y2="97" stroke="white"/>
<line x1="82.5" y1="61" x2="82.5" y2="97" stroke="white"/>
<line x1="13.5" y1="61" x2="13.5" y2="97" stroke="white"/>
<line x1="502.5" y1="11" x2="502.5" y2="47" stroke="white"/>
<line x1="571.5" y1="11" x2="571.5" y2="47" stroke="white"/>
<line x1="432.5" y1="11" x2="432.5" y2="47" stroke="white"/>
<line x1="362.5" y1="11" x2="362.5" y2="47" stroke="white"/>
<line x1="292.5" y1="11" x2="292.5" y2="47" stroke="white"/>
<line x1="222.5" y1="11" x2="222.5" y2="47" stroke="white"/>
<line x1="152.5" y1="11" x2="152.5" y2="47" stroke="white"/>
<line x1="82.5" y1="11" x2="82.5" y2="47" stroke="white"/>
<line x1="13.5" y1="11" x2="13.5" y2="47" stroke="white"/>
<rect x="153" y="73" width="69" height="23" fill="#9B9B9B"/>
<rect x="363" y="73" width="69" height="23" fill="#41D98B"/>
<rect x="363" y="23" width="69" height="23" fill="#F8FF91"/>
<path d="M565.609 60.123C566.543 60.123 567.248 60.5039 567.725 61.2656C568.205 62.0273 568.445 63.1543 568.445 64.6465C568.445 66.1387 568.205 67.2656 567.725 68.0273C567.248 68.7891 566.543 69.1699 565.609 69.1699C564.676 69.1699 563.971 68.7891 563.494 68.0273C563.018 67.2656 562.779 66.1387 562.779 64.6465C562.779 63.1543 563.018 62.0273 563.494 61.2656C563.971 60.5039 564.676 60.123 565.609 60.123ZM565.609 68.2324C566.164 68.2324 566.576 67.9375 566.846 67.3477C567.119 66.7578 567.256 65.8574 567.256 64.6465C567.256 64.002 567.217 63.4199 567.139 62.9004L564.35 67.2656C564.643 67.9102 565.062 68.2324 565.609 68.2324ZM565.609 61.0605C565.059 61.0605 564.646 61.3555 564.373 61.9453C564.104 62.5352 563.969 63.4355 563.969 64.6465C563.969 65.1973 564.006 65.7129 564.08 66.1934L566.811 61.8398C566.514 61.3203 566.113 61.0605 565.609 61.0605Z" fill="white"/>
<path d="M509.547 64.3184C510.121 64.4707 510.561 64.7422 510.865 65.1328C511.17 65.5195 511.322 66.0039 511.322 66.5859C511.322 67.3906 511.051 68.0234 510.508 68.4844C509.969 68.9414 509.221 69.1699 508.264 69.1699C507.861 69.1699 507.451 69.1328 507.033 69.0586C506.615 68.9844 506.205 68.877 505.803 68.7363V67.5586C506.201 67.7656 506.594 67.9199 506.98 68.0215C507.367 68.123 507.752 68.1738 508.135 68.1738C508.783 68.1738 509.281 68.0273 509.629 67.7344C509.977 67.4414 510.15 67.0195 510.15 66.4688C510.15 65.9609 509.977 65.5586 509.629 65.2617C509.281 64.9609 508.811 64.8105 508.217 64.8105H507.314V63.8379H508.217C508.76 63.8379 509.184 63.7188 509.488 63.4805C509.793 63.2422 509.945 62.9102 509.945 62.4844C509.945 62.0352 509.803 61.6914 509.518 61.4531C509.236 61.2109 508.834 61.0898 508.311 61.0898C507.963 61.0898 507.604 61.1289 507.232 61.207C506.861 61.2852 506.473 61.4023 506.066 61.5586V60.4688C506.539 60.3438 506.959 60.25 507.326 60.1875C507.697 60.125 508.025 60.0938 508.311 60.0938C509.162 60.0938 509.842 60.3086 510.35 60.7383C510.861 61.1641 511.117 61.7305 511.117 62.4375C511.117 62.918 510.982 63.3184 510.713 63.6387C510.447 63.959 510.059 64.1855 509.547 64.3184Z" fill="white"/>
<path d="M426.609 64.8457C426.082 64.8457 425.674 64.9941 425.385 65.291C425.1 65.584 424.957 66 424.957 66.5391C424.957 67.0781 425.102 67.498 425.391 67.7988C425.684 68.0957 426.09 68.2441 426.609 68.2441C427.141 68.2441 427.549 68.0977 427.834 67.8047C428.123 67.5078 428.268 67.0859 428.268 66.5391C428.268 66.0039 428.121 65.5879 427.828 65.291C427.539 64.9941 427.133 64.8457 426.609 64.8457ZM425.578 64.3535C425.074 64.2246 424.68 63.9844 424.395 63.6328C424.113 63.2812 423.973 62.8574 423.973 62.3613C423.973 61.666 424.209 61.1152 424.682 60.709C425.154 60.2988 425.797 60.0938 426.609 60.0938C427.426 60.0938 428.07 60.2988 428.543 60.709C429.016 61.1152 429.252 61.666 429.252 62.3613C429.252 62.8574 429.109 63.2812 428.824 63.6328C428.543 63.9844 428.15 64.2246 427.646 64.3535C428.232 64.4824 428.68 64.7422 428.988 65.1328C429.301 65.5234 429.457 66.0293 429.457 66.6504C429.457 67.4395 429.205 68.0566 428.701 68.502C428.197 68.9473 427.5 69.1699 426.609 69.1699C425.719 69.1699 425.021 68.9492 424.518 68.5078C424.018 68.0625 423.768 67.4473 423.768 66.6621C423.768 66.0371 423.922 65.5293 424.23 65.1387C424.543 64.7441 424.992 64.4824 425.578 64.3535ZM425.15 62.4727C425.15 62.9414 425.275 63.2988 425.525 63.5449C425.775 63.791 426.137 63.9141 426.609 63.9141C427.086 63.9141 427.449 63.791 427.699 63.5449C427.949 63.2988 428.074 62.9414 428.074 62.4727C428.074 61.9961 427.949 61.6328 427.699 61.3828C427.453 61.1328 427.09 61.0078 426.609 61.0078C426.137 61.0078 425.775 61.1348 425.525 61.3887C425.275 61.6387 425.15 62 425.15 62.4727Z" fill="white"/>
<path d="M366.582 68.0098H368.422V61.4004L366.219 62.4609V61.3242L368.41 60.2812H369.594V68.0098H371.41V69H366.582V68.0098ZM373.812 68.0098H375.652V61.4004L373.449 62.4609V61.3242L375.641 60.2812H376.824V68.0098H378.641V69H373.812V68.0098Z" fill="white"/>
<path d="M346.582 68.0098H348.422V61.4004L346.219 62.4609V61.3242L348.41 60.2812H349.594V68.0098H351.41V69H346.582V68.0098ZM354.416 68.0039H358.436V69H353.121V68.0039C353.852 67.2344 354.49 66.5547 355.037 65.9648C355.584 65.375 355.961 64.959 356.168 64.7168C356.559 64.2402 356.822 63.8555 356.959 63.5625C357.096 63.2656 357.164 62.9629 357.164 62.6543C357.164 62.166 357.02 61.7832 356.73 61.5059C356.445 61.2285 356.053 61.0898 355.553 61.0898C355.197 61.0898 354.824 61.1543 354.434 61.2832C354.043 61.4121 353.629 61.6074 353.191 61.8691V60.6738C353.594 60.4824 353.988 60.3379 354.375 60.2402C354.766 60.1426 355.15 60.0938 355.529 60.0938C356.385 60.0938 357.072 60.3223 357.592 60.7793C358.115 61.2324 358.377 61.8281 358.377 62.5664C358.377 62.9414 358.289 63.3164 358.113 63.6914C357.941 64.0664 357.66 64.4805 357.27 64.9336C357.051 65.1875 356.732 65.5391 356.314 65.9883C355.9 66.4375 355.268 67.1094 354.416 68.0039Z" fill="white"/>
<path d="M296.582 68.0098H298.422V61.4004L296.219 62.4609V61.3242L298.41 60.2812H299.594V68.0098H301.41V69H296.582V68.0098ZM303.443 60.252H307.873V61.248H304.521V63.3984C304.689 63.3359 304.857 63.291 305.025 63.2637C305.197 63.2324 305.369 63.2168 305.541 63.2168C306.447 63.2168 307.166 63.4844 307.697 64.0195C308.229 64.5547 308.494 65.2793 308.494 66.1934C308.494 67.1152 308.215 67.8418 307.656 68.373C307.102 68.9043 306.342 69.1699 305.377 69.1699C304.912 69.1699 304.486 69.1387 304.1 69.0762C303.717 69.0137 303.373 68.9199 303.068 68.7949V67.5938C303.428 67.7891 303.789 67.9355 304.152 68.0332C304.516 68.127 304.887 68.1738 305.266 68.1738C305.918 68.1738 306.42 68.002 306.771 67.6582C307.127 67.3145 307.305 66.8262 307.305 66.1934C307.305 65.5684 307.121 65.082 306.754 64.7344C306.391 64.3867 305.883 64.2129 305.23 64.2129C304.914 64.2129 304.605 64.25 304.305 64.3242C304.004 64.3945 303.717 64.502 303.443 64.6465V60.252Z" fill="white"/>
<path d="M276.582 68.0098H278.422V61.4004L276.219 62.4609V61.3242L278.41 60.2812H279.594V68.0098H281.41V69H276.582V68.0098ZM288.037 60.4453V61.5352C287.791 61.3906 287.529 61.2812 287.252 61.207C286.975 61.1289 286.686 61.0898 286.385 61.0898C285.635 61.0898 285.066 61.373 284.68 61.9395C284.293 62.502 284.1 63.332 284.1 64.4297C284.287 64.0391 284.547 63.7402 284.879 63.5332C285.211 63.3223 285.592 63.2168 286.021 63.2168C286.865 63.2168 287.518 63.4766 287.979 63.9961C288.443 64.5117 288.676 65.2441 288.676 66.1934C288.676 67.1387 288.438 67.8711 287.961 68.3906C287.484 68.9102 286.814 69.1699 285.951 69.1699C284.936 69.1699 284.191 68.8066 283.719 68.0801C283.246 67.3496 283.01 66.2012 283.01 64.6348C283.01 63.1582 283.293 62.0332 283.859 61.2598C284.43 60.4824 285.254 60.0938 286.332 60.0938C286.621 60.0938 286.91 60.125 287.199 60.1875C287.488 60.2461 287.768 60.332 288.037 60.4453ZM285.928 64.1426C285.424 64.1426 285.027 64.3242 284.738 64.6875C284.449 65.0508 284.305 65.5527 284.305 66.1934C284.305 66.834 284.449 67.3359 284.738 67.6992C285.027 68.0625 285.424 68.2441 285.928 68.2441C286.451 68.2441 286.846 68.0723 287.111 67.7285C287.377 67.3809 287.51 66.8691 287.51 66.1934C287.51 65.5137 287.377 65.002 287.111 64.6582C286.846 64.3145 286.451 64.1426 285.928 64.1426Z" fill="white"/>
<path d="M226.582 68.0098H228.422V61.4004L226.219 62.4609V61.3242L228.41 60.2812H229.594V68.0098H231.41V69H226.582V68.0098ZM235.723 65.1211C236.227 65.1211 236.621 64.9395 236.906 64.5762C237.195 64.2129 237.34 63.7109 237.34 63.0703C237.34 62.4297 237.195 61.9277 236.906 61.5645C236.621 61.2012 236.227 61.0195 235.723 61.0195C235.199 61.0195 234.805 61.1934 234.539 61.541C234.273 61.8848 234.141 62.3945 234.141 63.0703C234.141 63.75 234.271 64.2617 234.533 64.6055C234.799 64.9492 235.195 65.1211 235.723 65.1211ZM233.613 68.8184V67.7285C233.859 67.873 234.121 67.9844 234.398 68.0625C234.676 68.1367 234.965 68.1738 235.266 68.1738C236.016 68.1738 236.582 67.8926 236.965 67.3301C237.352 66.7637 237.545 65.9316 237.545 64.834C237.361 65.2246 237.104 65.5254 236.771 65.7363C236.439 65.9434 236.059 66.0469 235.629 66.0469C234.785 66.0469 234.131 65.7871 233.666 65.2676C233.205 64.748 232.975 64.0117 232.975 63.0586C232.975 62.1172 233.211 61.3887 233.684 60.873C234.16 60.3535 234.832 60.0938 235.699 60.0938C236.715 60.0938 237.459 60.459 237.932 61.1895C238.404 61.9199 238.641 63.0684 238.641 64.6348C238.641 66.1074 238.355 67.2324 237.785 68.0098C237.219 68.7832 236.395 69.1699 235.312 69.1699C235.027 69.1699 234.74 69.1387 234.451 69.0762C234.162 69.0176 233.883 68.9316 233.613 68.8184Z" fill="white"/>
<path d="M207.186 68.0039H211.205V69H205.891V68.0039C206.621 67.2344 207.26 66.5547 207.807 65.9648C208.354 65.375 208.73 64.959 208.938 64.7168C209.328 64.2402 209.592 63.8555 209.729 63.5625C209.865 63.2656 209.934 62.9629 209.934 62.6543C209.934 62.166 209.789 61.7832 209.5 61.5059C209.215 61.2285 208.822 61.0898 208.322 61.0898C207.967 61.0898 207.594 61.1543 207.203 61.2832C206.812 61.4121 206.398 61.6074 205.961 61.8691V60.6738C206.363 60.4824 206.758 60.3379 207.145 60.2402C207.535 60.1426 207.92 60.0938 208.299 60.0938C209.154 60.0938 209.842 60.3223 210.361 60.7793C210.885 61.2324 211.146 61.8281 211.146 62.5664C211.146 62.9414 211.059 63.3164 210.883 63.6914C210.711 64.0664 210.43 64.4805 210.039 64.9336C209.82 65.1875 209.502 65.5391 209.084 65.9883C208.67 66.4375 208.037 67.1094 207.186 68.0039ZM215.84 60.123C216.773 60.123 217.479 60.5039 217.955 61.2656C218.436 62.0273 218.676 63.1543 218.676 64.6465C218.676 66.1387 218.436 67.2656 217.955 68.0273C217.479 68.7891 216.773 69.1699 215.84 69.1699C214.906 69.1699 214.201 68.7891 213.725 68.0273C213.248 67.2656 213.01 66.1387 213.01 64.6465C213.01 63.1543 213.248 62.0273 213.725 61.2656C214.201 60.5039 214.906 60.123 215.84 60.123ZM215.84 68.2324C216.395 68.2324 216.807 67.9375 217.076 67.3477C217.35 66.7578 217.486 65.8574 217.486 64.6465C217.486 64.002 217.447 63.4199 217.369 62.9004L214.58 67.2656C214.873 67.9102 215.293 68.2324 215.84 68.2324ZM215.84 61.0605C215.289 61.0605 214.877 61.3555 214.604 61.9453C214.334 62.5352 214.199 63.4355 214.199 64.6465C214.199 65.1973 214.236 65.7129 214.311 66.1934L217.041 61.8398C216.744 61.3203 216.344 61.0605 215.84 61.0605Z" fill="white"/>
<path d="M157.186 68.0039H161.205V69H155.891V68.0039C156.621 67.2344 157.26 66.5547 157.807 65.9648C158.354 65.375 158.73 64.959 158.938 64.7168C159.328 64.2402 159.592 63.8555 159.729 63.5625C159.865 63.2656 159.934 62.9629 159.934 62.6543C159.934 62.166 159.789 61.7832 159.5 61.5059C159.215 61.2285 158.822 61.0898 158.322 61.0898C157.967 61.0898 157.594 61.1543 157.203 61.2832C156.812 61.4121 156.398 61.6074 155.961 61.8691V60.6738C156.363 60.4824 156.758 60.3379 157.145 60.2402C157.535 60.1426 157.92 60.0938 158.299 60.0938C159.154 60.0938 159.842 60.3223 160.361 60.7793C160.885 61.2324 161.146 61.8281 161.146 62.5664C161.146 62.9414 161.059 63.3164 160.883 63.6914C160.711 64.0664 160.43 64.4805 160.039 64.9336C159.82 65.1875 159.502 65.5391 159.084 65.9883C158.67 66.4375 158.037 67.1094 157.186 68.0039ZM166.777 64.3184C167.352 64.4707 167.791 64.7422 168.096 65.1328C168.4 65.5195 168.553 66.0039 168.553 66.5859C168.553 67.3906 168.281 68.0234 167.738 68.4844C167.199 68.9414 166.451 69.1699 165.494 69.1699C165.092 69.1699 164.682 69.1328 164.264 69.0586C163.846 68.9844 163.436 68.877 163.033 68.7363V67.5586C163.432 67.7656 163.824 67.9199 164.211 68.0215C164.598 68.123 164.982 68.1738 165.365 68.1738C166.014 68.1738 166.512 68.0273 166.859 67.7344C167.207 67.4414 167.381 67.0195 167.381 66.4688C167.381 65.9609 167.207 65.5586 166.859 65.2617C166.512 64.9609 166.041 64.8105 165.447 64.8105H164.545V63.8379H165.447C165.99 63.8379 166.414 63.7188 166.719 63.4805C167.023 63.2422 167.176 62.9102 167.176 62.4844C167.176 62.0352 167.033 61.6914 166.748 61.4531C166.467 61.2109 166.064 61.0898 165.541 61.0898C165.193 61.0898 164.834 61.1289 164.463 61.207C164.092 61.2852 163.703 61.4023 163.297 61.5586V60.4688C163.77 60.3438 164.189 60.25 164.557 60.1875C164.928 60.125 165.256 60.0938 165.541 60.0938C166.393 60.0938 167.072 60.3086 167.58 60.7383C168.092 61.1641 168.348 61.7305 168.348 62.4375C168.348 62.918 168.213 63.3184 167.943 63.6387C167.678 63.959 167.289 64.1855 166.777 64.3184Z" fill="white"/>
<path d="M137.186 68.0039H141.205V69H135.891V68.0039C136.621 67.2344 137.26 66.5547 137.807 65.9648C138.354 65.375 138.73 64.959 138.938 64.7168C139.328 64.2402 139.592 63.8555 139.729 63.5625C139.865 63.2656 139.934 62.9629 139.934 62.6543C139.934 62.166 139.789 61.7832 139.5 61.5059C139.215 61.2285 138.822 61.0898 138.322 61.0898C137.967 61.0898 137.594 61.1543 137.203 61.2832C136.812 61.4121 136.398 61.6074 135.961 61.8691V60.6738C136.363 60.4824 136.758 60.3379 137.145 60.2402C137.535 60.1426 137.92 60.0938 138.299 60.0938C139.154 60.0938 139.842 60.3223 140.361 60.7793C140.885 61.2324 141.146 61.8281 141.146 62.5664C141.146 62.9414 141.059 63.3164 140.883 63.6914C140.711 64.0664 140.43 64.4805 140.039 64.9336C139.82 65.1875 139.502 65.5391 139.084 65.9883C138.67 66.4375 138.037 67.1094 137.186 68.0039ZM146.537 61.3301L143.777 65.9531H146.537V61.3301ZM146.344 60.252H147.715V65.9531H148.881V66.9141H147.715V69H146.537V66.9141H142.828V65.7949L146.344 60.252Z" fill="white"/>
<path d="M87.1855 68.0039H91.2051V69H85.8906V68.0039C86.6211 67.2344 87.2598 66.5547 87.8066 65.9648C88.3535 65.375 88.7305 64.959 88.9375 64.7168C89.3281 64.2402 89.5918 63.8555 89.7285 63.5625C89.8652 63.2656 89.9336 62.9629 89.9336 62.6543C89.9336 62.166 89.7891 61.7832 89.5 61.5059C89.2148 61.2285 88.8223 61.0898 88.3223 61.0898C87.9668 61.0898 87.5938 61.1543 87.2031 61.2832C86.8125 61.4121 86.3984 61.6074 85.9609 61.8691V60.6738C86.3633 60.4824 86.7578 60.3379 87.1445 60.2402C87.5352 60.1426 87.9199 60.0938 88.2988 60.0938C89.1543 60.0938 89.8418 60.3223 90.3613 60.7793C90.8848 61.2324 91.1465 61.8281 91.1465 62.5664C91.1465 62.9414 91.0586 63.3164 90.8828 63.6914C90.7109 64.0664 90.4297 64.4805 90.0391 64.9336C89.8203 65.1875 89.502 65.5391 89.084 65.9883C88.6699 66.4375 88.0371 67.1094 87.1855 68.0039ZM93.0449 60.252H98.5527V60.7559L95.4238 69H94.1875L97.2344 61.248H93.0449V60.252Z" fill="white"/>
<path d="M68.1855 68.0039H72.2051V69H66.8906V68.0039C67.6211 67.2344 68.2598 66.5547 68.8066 65.9648C69.3535 65.375 69.7305 64.959 69.9375 64.7168C70.3281 64.2402 70.5918 63.8555 70.7285 63.5625C70.8652 63.2656 70.9336 62.9629 70.9336 62.6543C70.9336 62.166 70.7891 61.7832 70.5 61.5059C70.2148 61.2285 69.8223 61.0898 69.3223 61.0898C68.9668 61.0898 68.5938 61.1543 68.2031 61.2832C67.8125 61.4121 67.3984 61.6074 66.9609 61.8691V60.6738C67.3633 60.4824 67.7578 60.3379 68.1445 60.2402C68.5352 60.1426 68.9199 60.0938 69.2988 60.0938C70.1543 60.0938 70.8418 60.3223 71.3613 60.7793C71.8848 61.2324 72.1465 61.8281 72.1465 62.5664C72.1465 62.9414 72.0586 63.3164 71.8828 63.6914C71.7109 64.0664 71.4297 64.4805 71.0391 64.9336C70.8203 65.1875 70.502 65.5391 70.084 65.9883C69.6699 66.4375 69.0371 67.1094 68.1855 68.0039ZM76.8398 64.8457C76.3125 64.8457 75.9043 64.9941 75.6152 65.291C75.3301 65.584 75.1875 66 75.1875 66.5391C75.1875 67.0781 75.332 67.498 75.6211 67.7988C75.9141 68.0957 76.3203 68.2441 76.8398 68.2441C77.3711 68.2441 77.7793 68.0977 78.0645 67.8047C78.3535 67.5078 78.498 67.0859 78.498 66.5391C78.498 66.0039 78.3516 65.5879 78.0586 65.291C77.7695 64.9941 77.3633 64.8457 76.8398 64.8457ZM75.8086 64.3535C75.3047 64.2246 74.9102 63.9844 74.625 63.6328C74.3438 63.2812 74.2031 62.8574 74.2031 62.3613C74.2031 61.666 74.4395 61.1152 74.9121 60.709C75.3848 60.2988 76.0273 60.0938 76.8398 60.0938C77.6562 60.0938 78.3008 60.2988 78.7734 60.709C79.2461 61.1152 79.4824 61.666 79.4824 62.3613C79.4824 62.8574 79.3398 63.2812 79.0547 63.6328C78.7734 63.9844 78.3809 64.2246 77.877 64.3535C78.4629 64.4824 78.9102 64.7422 79.2188 65.1328C79.5312 65.5234 79.6875 66.0293 79.6875 66.6504C79.6875 67.4395 79.4355 68.0566 78.9316 68.502C78.4277 68.9473 77.7305 69.1699 76.8398 69.1699C75.9492 69.1699 75.252 68.9492 74.748 68.5078C74.248 68.0625 73.998 67.4473 73.998 66.6621C73.998 66.0371 74.1523 65.5293 74.4609 65.1387C74.7734 64.7441 75.2227 64.4824 75.8086 64.3535ZM75.3809 62.4727C75.3809 62.9414 75.5059 63.2988 75.7559 63.5449C76.0059 63.791 76.3672 63.9141 76.8398 63.9141C77.3164 63.9141 77.6797 63.791 77.9297 63.5449C78.1797 63.2988 78.3047 62.9414 78.3047 62.4727C78.3047 61.9961 78.1797 61.6328 77.9297 61.3828C77.6836 61.1328 77.3203 61.0078 76.8398 61.0078C76.3672 61.0078 76.0059 61.1348 75.7559 61.3887C75.5059 61.6387 75.3809 62 75.3809 62.4727Z" fill="white"/>
<path d="M20.5469 64.3184C21.1211 64.4707 21.5605 64.7422 21.8652 65.1328C22.1699 65.5195 22.3223 66.0039 22.3223 66.5859C22.3223 67.3906 22.0508 68.0234 21.5078 68.4844C20.9688 68.9414 20.2207 69.1699 19.2637 69.1699C18.8613 69.1699 18.4512 69.1328 18.0332 69.0586C17.6152 68.9844 17.2051 68.877 16.8027 68.7363V67.5586C17.2012 67.7656 17.5938 67.9199 17.9805 68.0215C18.3672 68.123 18.752 68.1738 19.1348 68.1738C19.7832 68.1738 20.2812 68.0273 20.6289 67.7344C20.9766 67.4414 21.1504 67.0195 21.1504 66.4688C21.1504 65.9609 20.9766 65.5586 20.6289 65.2617C20.2812 64.9609 19.8105 64.8105 19.2168 64.8105H18.3145V63.8379H19.2168C19.7598 63.8379 20.1836 63.7188 20.4883 63.4805C20.793 63.2422 20.9453 62.9102 20.9453 62.4844C20.9453 62.0352 20.8027 61.6914 20.5176 61.4531C20.2363 61.2109 19.834 61.0898 19.3105 61.0898C18.9629 61.0898 18.6035 61.1289 18.2324 61.207C17.8613 61.2852 17.4727 61.4023 17.0664 61.5586V60.4688C17.5391 60.3438 17.959 60.25 18.3262 60.1875C18.6973 60.125 19.0254 60.0938 19.3105 60.0938C20.1621 60.0938 20.8418 60.3086 21.3496 60.7383C21.8613 61.1641 22.1172 61.7305 22.1172 62.4375C22.1172 62.918 21.9824 63.3184 21.7129 63.6387C21.4473 63.959 21.0586 64.1855 20.5469 64.3184ZM24.8125 68.0098H26.6523V61.4004L24.4492 62.4609V61.3242L26.6406 60.2812H27.8242V68.0098H29.6406V69H24.8125V68.0098Z" fill="white"/>
<path d="M497.307 61.3301L494.547 65.9531H497.307V61.3301ZM497.113 60.252H498.484V65.9531H499.65V66.9141H498.484V69H497.307V66.9141H493.598V65.7949L497.113 60.252Z" fill="white"/>
<path d="M434.814 60.252H440.322V60.7559L437.193 69H435.957L439.004 61.248H434.814V60.252Z" fill="white"/>
<path d="M559.547 14.3184C560.121 14.4707 560.561 14.7422 560.865 15.1328C561.17 15.5195 561.322 16.0039 561.322 16.5859C561.322 17.3906 561.051 18.0234 560.508 18.4844C559.969 18.9414 559.221 19.1699 558.264 19.1699C557.861 19.1699 557.451 19.1328 557.033 19.0586C556.615 18.9844 556.205 18.877 555.803 18.7363V17.5586C556.201 17.7656 556.594 17.9199 556.98 18.0215C557.367 18.123 557.752 18.1738 558.135 18.1738C558.783 18.1738 559.281 18.0273 559.629 17.7344C559.977 17.4414 560.15 17.0195 560.15 16.4688C560.15 15.9609 559.977 15.5586 559.629 15.2617C559.281 14.9609 558.811 14.8105 558.217 14.8105H557.314V13.8379H558.217C558.76 13.8379 559.184 13.7188 559.488 13.4805C559.793 13.2422 559.945 12.9102 559.945 12.4844C559.945 12.0352 559.803 11.6914 559.518 11.4531C559.236 11.2109 558.834 11.0898 558.311 11.0898C557.963 11.0898 557.604 11.1289 557.232 11.207C556.861 11.2852 556.473 11.4023 556.066 11.5586V10.4688C556.539 10.3438 556.959 10.25 557.326 10.1875C557.697 10.125 558.025 10.0938 558.311 10.0938C559.162 10.0938 559.842 10.3086 560.35 10.7383C560.861 11.1641 561.117 11.7305 561.117 12.4375C561.117 12.918 560.982 13.3184 560.713 13.6387C560.447 13.959 560.059 14.1855 559.547 14.3184ZM564.416 18.0039H568.436V19H563.121V18.0039C563.852 17.2344 564.49 16.5547 565.037 15.9648C565.584 15.375 565.961 14.959 566.168 14.7168C566.559 14.2402 566.822 13.8555 566.959 13.5625C567.096 13.2656 567.164 12.9629 567.164 12.6543C567.164 12.166 567.02 11.7832 566.73 11.5059C566.445 11.2285 566.053 11.0898 565.553 11.0898C565.197 11.0898 564.824 11.1543 564.434 11.2832C564.043 11.4121 563.629 11.6074 563.191 11.8691V10.6738C563.594 10.4824 563.988 10.3379 564.375 10.2402C564.766 10.1426 565.15 10.0938 565.529 10.0938C566.385 10.0938 567.072 10.3223 567.592 10.7793C568.115 11.2324 568.377 11.8281 568.377 12.5664C568.377 12.9414 568.289 13.3164 568.113 13.6914C567.941 14.0664 567.66 14.4805 567.27 14.9336C567.051 15.1875 566.732 15.5391 566.314 15.9883C565.9 16.4375 565.268 17.1094 564.416 18.0039Z" fill="white"/>
<path d="M509.547 14.3184C510.121 14.4707 510.561 14.7422 510.865 15.1328C511.17 15.5195 511.322 16.0039 511.322 16.5859C511.322 17.3906 511.051 18.0234 510.508 18.4844C509.969 18.9414 509.221 19.1699 508.264 19.1699C507.861 19.1699 507.451 19.1328 507.033 19.0586C506.615 18.9844 506.205 18.877 505.803 18.7363V17.5586C506.201 17.7656 506.594 17.9199 506.98 18.0215C507.367 18.123 507.752 18.1738 508.135 18.1738C508.783 18.1738 509.281 18.0273 509.629 17.7344C509.977 17.4414 510.15 17.0195 510.15 16.4688C510.15 15.9609 509.977 15.5586 509.629 15.2617C509.281 14.9609 508.811 14.8105 508.217 14.8105H507.314V13.8379H508.217C508.76 13.8379 509.184 13.7188 509.488 13.4805C509.793 13.2422 509.945 12.9102 509.945 12.4844C509.945 12.0352 509.803 11.6914 509.518 11.4531C509.236 11.2109 508.834 11.0898 508.311 11.0898C507.963 11.0898 507.604 11.1289 507.232 11.207C506.861 11.2852 506.473 11.4023 506.066 11.5586V10.4688C506.539 10.3438 506.959 10.25 507.326 10.1875C507.697 10.125 508.025 10.0938 508.311 10.0938C509.162 10.0938 509.842 10.3086 510.35 10.7383C510.861 11.1641 511.117 11.7305 511.117 12.4375C511.117 12.918 510.982 13.3184 510.713 13.6387C510.447 13.959 510.059 14.1855 509.547 14.3184ZM513.443 10.252H517.873V11.248H514.521V13.3984C514.689 13.3359 514.857 13.291 515.025 13.2637C515.197 13.2324 515.369 13.2168 515.541 13.2168C516.447 13.2168 517.166 13.4844 517.697 14.0195C518.229 14.5547 518.494 15.2793 518.494 16.1934C518.494 17.1152 518.215 17.8418 517.656 18.373C517.102 18.9043 516.342 19.1699 515.377 19.1699C514.912 19.1699 514.486 19.1387 514.1 19.0762C513.717 19.0137 513.373 18.9199 513.068 18.7949V17.5938C513.428 17.7891 513.789 17.9355 514.152 18.0332C514.516 18.127 514.887 18.1738 515.266 18.1738C515.918 18.1738 516.42 18.002 516.771 17.6582C517.127 17.3145 517.305 16.8262 517.305 16.1934C517.305 15.5684 517.121 15.082 516.754 14.7344C516.391 14.3867 515.883 14.2129 515.23 14.2129C514.914 14.2129 514.605 14.25 514.305 14.3242C514.004 14.3945 513.717 14.502 513.443 14.6465V10.252Z" fill="white"/>
<path d="M419.307 11.3301L416.547 15.9531H419.307V11.3301ZM419.113 10.252H420.484V15.9531H421.65V16.9141H420.484V19H419.307V16.9141H415.598V15.7949L419.113 10.252ZM425.84 10.123C426.773 10.123 427.479 10.5039 427.955 11.2656C428.436 12.0273 428.676 13.1543 428.676 14.6465C428.676 16.1387 428.436 17.2656 427.955 18.0273C427.479 18.7891 426.773 19.1699 425.84 19.1699C424.906 19.1699 424.201 18.7891 423.725 18.0273C423.248 17.2656 423.01 16.1387 423.01 14.6465C423.01 13.1543 423.248 12.0273 423.725 11.2656C424.201 10.5039 424.906 10.123 425.84 10.123ZM425.84 18.2324C426.395 18.2324 426.807 17.9375 427.076 17.3477C427.35 16.7578 427.486 15.8574 427.486 14.6465C427.486 14.002 427.447 13.4199 427.369 12.9004L424.58 17.2656C424.873 17.9102 425.293 18.2324 425.84 18.2324ZM425.84 11.0605C425.289 11.0605 424.877 11.3555 424.604 11.9453C424.334 12.5352 424.199 13.4355 424.199 14.6465C424.199 15.1973 424.236 15.7129 424.311 16.1934L427.041 11.8398C426.744 11.3203 426.344 11.0605 425.84 11.0605Z" fill="white"/>
<path d="M369.307 11.3301L366.547 15.9531H369.307V11.3301ZM369.113 10.252H370.484V15.9531H371.65V16.9141H370.484V19H369.307V16.9141H365.598V15.7949L369.113 10.252ZM376.777 14.3184C377.352 14.4707 377.791 14.7422 378.096 15.1328C378.4 15.5195 378.553 16.0039 378.553 16.5859C378.553 17.3906 378.281 18.0234 377.738 18.4844C377.199 18.9414 376.451 19.1699 375.494 19.1699C375.092 19.1699 374.682 19.1328 374.264 19.0586C373.846 18.9844 373.436 18.877 373.033 18.7363V17.5586C373.432 17.7656 373.824 17.9199 374.211 18.0215C374.598 18.123 374.982 18.1738 375.365 18.1738C376.014 18.1738 376.512 18.0273 376.859 17.7344C377.207 17.4414 377.381 17.0195 377.381 16.4688C377.381 15.9609 377.207 15.5586 376.859 15.2617C376.512 14.9609 376.041 14.8105 375.447 14.8105H374.545V13.8379H375.447C375.99 13.8379 376.414 13.7188 376.719 13.4805C377.023 13.2422 377.176 12.9102 377.176 12.4844C377.176 12.0352 377.033 11.6914 376.748 11.4531C376.467 11.2109 376.064 11.0898 375.541 11.0898C375.193 11.0898 374.834 11.1289 374.463 11.207C374.092 11.2852 373.703 11.4023 373.297 11.5586V10.4688C373.77 10.3438 374.189 10.25 374.557 10.1875C374.928 10.125 375.256 10.0938 375.541 10.0938C376.393 10.0938 377.072 10.3086 377.58 10.7383C378.092 11.1641 378.348 11.7305 378.348 12.4375C378.348 12.918 378.213 13.3184 377.943 13.6387C377.678 13.959 377.289 14.1855 376.777 14.3184Z" fill="white"/>
<path d="M349.307 11.3301L346.547 15.9531H349.307V11.3301ZM349.113 10.252H350.484V15.9531H351.65V16.9141H350.484V19H349.307V16.9141H345.598V15.7949L349.113 10.252ZM356.537 11.3301L353.777 15.9531H356.537V11.3301ZM356.344 10.252H357.715V15.9531H358.881V16.9141H357.715V19H356.537V16.9141H352.828V15.7949L356.344 10.252Z" fill="white"/>
<path d="M299.307 11.3301L296.547 15.9531H299.307V11.3301ZM299.113 10.252H300.484V15.9531H301.65V16.9141H300.484V19H299.307V16.9141H295.598V15.7949L299.113 10.252ZM303.045 10.252H308.553V10.7559L305.424 19H304.188L307.234 11.248H303.045V10.252Z" fill="white"/>
<path d="M279.307 11.3301L276.547 15.9531H279.307V11.3301ZM279.113 10.252H280.484V15.9531H281.65V16.9141H280.484V19H279.307V16.9141H275.598V15.7949L279.113 10.252ZM285.84 14.8457C285.312 14.8457 284.904 14.9941 284.615 15.291C284.33 15.584 284.188 16 284.188 16.5391C284.188 17.0781 284.332 17.498 284.621 17.7988C284.914 18.0957 285.32 18.2441 285.84 18.2441C286.371 18.2441 286.779 18.0977 287.064 17.8047C287.354 17.5078 287.498 17.0859 287.498 16.5391C287.498 16.0039 287.352 15.5879 287.059 15.291C286.77 14.9941 286.363 14.8457 285.84 14.8457ZM284.809 14.3535C284.305 14.2246 283.91 13.9844 283.625 13.6328C283.344 13.2812 283.203 12.8574 283.203 12.3613C283.203 11.666 283.439 11.1152 283.912 10.709C284.385 10.2988 285.027 10.0938 285.84 10.0938C286.656 10.0938 287.301 10.2988 287.773 10.709C288.246 11.1152 288.482 11.666 288.482 12.3613C288.482 12.8574 288.34 13.2812 288.055 13.6328C287.773 13.9844 287.381 14.2246 286.877 14.3535C287.463 14.4824 287.91 14.7422 288.219 15.1328C288.531 15.5234 288.688 16.0293 288.688 16.6504C288.688 17.4395 288.436 18.0566 287.932 18.502C287.428 18.9473 286.73 19.1699 285.84 19.1699C284.949 19.1699 284.252 18.9492 283.748 18.5078C283.248 18.0625 282.998 17.4473 282.998 16.6621C282.998 16.0371 283.152 15.5293 283.461 15.1387C283.773 14.7441 284.223 14.4824 284.809 14.3535ZM284.381 12.4727C284.381 12.9414 284.506 13.2988 284.756 13.5449C285.006 13.791 285.367 13.9141 285.84 13.9141C286.316 13.9141 286.68 13.791 286.93 13.5449C287.18 13.2988 287.305 12.9414 287.305 12.4727C287.305 11.9961 287.18 11.6328 286.93 11.3828C286.684 11.1328 286.32 11.0078 285.84 11.0078C285.367 11.0078 285.006 11.1348 284.756 11.3887C284.506 11.6387 284.381 12 284.381 12.4727Z" fill="white"/>
<path d="M226.213 10.252H230.643V11.248H227.291V13.3984C227.459 13.3359 227.627 13.291 227.795 13.2637C227.967 13.2324 228.139 13.2168 228.311 13.2168C229.217 13.2168 229.936 13.4844 230.467 14.0195C230.998 14.5547 231.264 15.2793 231.264 16.1934C231.264 17.1152 230.984 17.8418 230.426 18.373C229.871 18.9043 229.111 19.1699 228.146 19.1699C227.682 19.1699 227.256 19.1387 226.869 19.0762C226.486 19.0137 226.143 18.9199 225.838 18.7949V17.5938C226.197 17.7891 226.559 17.9355 226.922 18.0332C227.285 18.127 227.656 18.1738 228.035 18.1738C228.688 18.1738 229.189 18.002 229.541 17.6582C229.896 17.3145 230.074 16.8262 230.074 16.1934C230.074 15.5684 229.891 15.082 229.523 14.7344C229.16 14.3867 228.652 14.2129 228 14.2129C227.684 14.2129 227.375 14.25 227.074 14.3242C226.773 14.3945 226.486 14.502 226.213 14.6465V10.252ZM233.812 18.0098H235.652V11.4004L233.449 12.4609V11.3242L235.641 10.2812H236.824V18.0098H238.641V19H233.812V18.0098Z" fill="white"/>
<path d="M206.213 10.252H210.643V11.248H207.291V13.3984C207.459 13.3359 207.627 13.291 207.795 13.2637C207.967 13.2324 208.139 13.2168 208.311 13.2168C209.217 13.2168 209.936 13.4844 210.467 14.0195C210.998 14.5547 211.264 15.2793 211.264 16.1934C211.264 17.1152 210.984 17.8418 210.426 18.373C209.871 18.9043 209.111 19.1699 208.146 19.1699C207.682 19.1699 207.256 19.1387 206.869 19.0762C206.486 19.0137 206.143 18.9199 205.838 18.7949V17.5938C206.197 17.7891 206.559 17.9355 206.922 18.0332C207.285 18.127 207.656 18.1738 208.035 18.1738C208.688 18.1738 209.189 18.002 209.541 17.6582C209.896 17.3145 210.074 16.8262 210.074 16.1934C210.074 15.5684 209.891 15.082 209.523 14.7344C209.16 14.3867 208.652 14.2129 208 14.2129C207.684 14.2129 207.375 14.25 207.074 14.3242C206.773 14.3945 206.486 14.502 206.213 14.6465V10.252ZM214.416 18.0039H218.436V19H213.121V18.0039C213.852 17.2344 214.49 16.5547 215.037 15.9648C215.584 15.375 215.961 14.959 216.168 14.7168C216.559 14.2402 216.822 13.8555 216.959 13.5625C217.096 13.2656 217.164 12.9629 217.164 12.6543C217.164 12.166 217.02 11.7832 216.73 11.5059C216.445 11.2285 216.053 11.0898 215.553 11.0898C215.197 11.0898 214.824 11.1543 214.434 11.2832C214.043 11.4121 213.629 11.6074 213.191 11.8691V10.6738C213.594 10.4824 213.988 10.3379 214.375 10.2402C214.766 10.1426 215.15 10.0938 215.529 10.0938C216.385 10.0938 217.072 10.3223 217.592 10.7793C218.115 11.2324 218.377 11.8281 218.377 12.5664C218.377 12.9414 218.289 13.3164 218.113 13.6914C217.941 14.0664 217.66 14.4805 217.27 14.9336C217.051 15.1875 216.732 15.5391 216.314 15.9883C215.9 16.4375 215.268 17.1094 214.416 18.0039Z" fill="white"/>
<path d="M156.213 10.252H160.643V11.248H157.291V13.3984C157.459 13.3359 157.627 13.291 157.795 13.2637C157.967 13.2324 158.139 13.2168 158.311 13.2168C159.217 13.2168 159.936 13.4844 160.467 14.0195C160.998 14.5547 161.264 15.2793 161.264 16.1934C161.264 17.1152 160.984 17.8418 160.426 18.373C159.871 18.9043 159.111 19.1699 158.146 19.1699C157.682 19.1699 157.256 19.1387 156.869 19.0762C156.486 19.0137 156.143 18.9199 155.838 18.7949V17.5938C156.197 17.7891 156.559 17.9355 156.922 18.0332C157.285 18.127 157.656 18.1738 158.035 18.1738C158.688 18.1738 159.189 18.002 159.541 17.6582C159.896 17.3145 160.074 16.8262 160.074 16.1934C160.074 15.5684 159.891 15.082 159.523 14.7344C159.16 14.3867 158.652 14.2129 158 14.2129C157.684 14.2129 157.375 14.25 157.074 14.3242C156.773 14.3945 156.486 14.502 156.213 14.6465V10.252ZM163.443 10.252H167.873V11.248H164.521V13.3984C164.689 13.3359 164.857 13.291 165.025 13.2637C165.197 13.2324 165.369 13.2168 165.541 13.2168C166.447 13.2168 167.166 13.4844 167.697 14.0195C168.229 14.5547 168.494 15.2793 168.494 16.1934C168.494 17.1152 168.215 17.8418 167.656 18.373C167.102 18.9043 166.342 19.1699 165.377 19.1699C164.912 19.1699 164.486 19.1387 164.1 19.0762C163.717 19.0137 163.373 18.9199 163.068 18.7949V17.5938C163.428 17.7891 163.789 17.9355 164.152 18.0332C164.516 18.127 164.887 18.1738 165.266 18.1738C165.918 18.1738 166.42 18.002 166.771 17.6582C167.127 17.3145 167.305 16.8262 167.305 16.1934C167.305 15.5684 167.121 15.082 166.754 14.7344C166.391 14.3867 165.883 14.2129 165.23 14.2129C164.914 14.2129 164.605 14.25 164.305 14.3242C164.004 14.3945 163.717 14.502 163.443 14.6465V10.252Z" fill="white"/>
<path d="M136.213 10.252H140.643V11.248H137.291V13.3984C137.459 13.3359 137.627 13.291 137.795 13.2637C137.967 13.2324 138.139 13.2168 138.311 13.2168C139.217 13.2168 139.936 13.4844 140.467 14.0195C140.998 14.5547 141.264 15.2793 141.264 16.1934C141.264 17.1152 140.984 17.8418 140.426 18.373C139.871 18.9043 139.111 19.1699 138.146 19.1699C137.682 19.1699 137.256 19.1387 136.869 19.0762C136.486 19.0137 136.143 18.9199 135.838 18.7949V17.5938C136.197 17.7891 136.559 17.9355 136.922 18.0332C137.285 18.127 137.656 18.1738 138.035 18.1738C138.688 18.1738 139.189 18.002 139.541 17.6582C139.896 17.3145 140.074 16.8262 140.074 16.1934C140.074 15.5684 139.891 15.082 139.523 14.7344C139.16 14.3867 138.652 14.2129 138 14.2129C137.684 14.2129 137.375 14.25 137.074 14.3242C136.773 14.3945 136.486 14.502 136.213 14.6465V10.252ZM148.037 10.4453V11.5352C147.791 11.3906 147.529 11.2812 147.252 11.207C146.975 11.1289 146.686 11.0898 146.385 11.0898C145.635 11.0898 145.066 11.373 144.68 11.9395C144.293 12.502 144.1 13.332 144.1 14.4297C144.287 14.0391 144.547 13.7402 144.879 13.5332C145.211 13.3223 145.592 13.2168 146.021 13.2168C146.865 13.2168 147.518 13.4766 147.979 13.9961C148.443 14.5117 148.676 15.2441 148.676 16.1934C148.676 17.1387 148.438 17.8711 147.961 18.3906C147.484 18.9102 146.814 19.1699 145.951 19.1699C144.936 19.1699 144.191 18.8066 143.719 18.0801C143.246 17.3496 143.01 16.2012 143.01 14.6348C143.01 13.1582 143.293 12.0332 143.859 11.2598C144.43 10.4824 145.254 10.0938 146.332 10.0938C146.621 10.0938 146.91 10.125 147.199 10.1875C147.488 10.2461 147.768 10.332 148.037 10.4453ZM145.928 14.1426C145.424 14.1426 145.027 14.3242 144.738 14.6875C144.449 15.0508 144.305 15.5527 144.305 16.1934C144.305 16.834 144.449 17.3359 144.738 17.6992C145.027 18.0625 145.424 18.2441 145.928 18.2441C146.451 18.2441 146.846 18.0723 147.111 17.7285C147.377 17.3809 147.51 16.8691 147.51 16.1934C147.51 15.5137 147.377 15.002 147.111 14.6582C146.846 14.3145 146.451 14.1426 145.928 14.1426Z" fill="white"/>
<path d="M86.2129 10.252H90.6426V11.248H87.291V13.3984C87.459 13.3359 87.627 13.291 87.7949 13.2637C87.9668 13.2324 88.1387 13.2168 88.3105 13.2168C89.2168 13.2168 89.9355 13.4844 90.4668 14.0195C90.998 14.5547 91.2637 15.2793 91.2637 16.1934C91.2637 17.1152 90.9844 17.8418 90.4258 18.373C89.8711 18.9043 89.1113 19.1699 88.1465 19.1699C87.6816 19.1699 87.2559 19.1387 86.8691 19.0762C86.4863 19.0137 86.1426 18.9199 85.8379 18.7949V17.5938C86.1973 17.7891 86.5586 17.9355 86.9219 18.0332C87.2852 18.127 87.6562 18.1738 88.0352 18.1738C88.6875 18.1738 89.1895 18.002 89.541 17.6582C89.8965 17.3145 90.0742 16.8262 90.0742 16.1934C90.0742 15.5684 89.8906 15.082 89.5234 14.7344C89.1602 14.3867 88.6523 14.2129 88 14.2129C87.6836 14.2129 87.375 14.25 87.0742 14.3242C86.7734 14.3945 86.4863 14.502 86.2129 14.6465V10.252ZM95.7227 15.1211C96.2266 15.1211 96.6211 14.9395 96.9062 14.5762C97.1953 14.2129 97.3398 13.7109 97.3398 13.0703C97.3398 12.4297 97.1953 11.9277 96.9062 11.5645C96.6211 11.2012 96.2266 11.0195 95.7227 11.0195C95.1992 11.0195 94.8047 11.1934 94.5391 11.541C94.2734 11.8848 94.1406 12.3945 94.1406 13.0703C94.1406 13.75 94.2715 14.2617 94.5332 14.6055C94.7988 14.9492 95.1953 15.1211 95.7227 15.1211ZM93.6133 18.8184V17.7285C93.8594 17.873 94.1211 17.9844 94.3984 18.0625C94.6758 18.1367 94.9648 18.1738 95.2656 18.1738C96.0156 18.1738 96.582 17.8926 96.9648 17.3301C97.3516 16.7637 97.5449 15.9316 97.5449 14.834C97.3613 15.2246 97.1035 15.5254 96.7715 15.7363C96.4395 15.9434 96.0586 16.0469 95.6289 16.0469C94.7852 16.0469 94.1309 15.7871 93.666 15.2676C93.2051 14.748 92.9746 14.0117 92.9746 13.0586C92.9746 12.1172 93.2109 11.3887 93.6836 10.873C94.1602 10.3535 94.832 10.0938 95.6992 10.0938C96.7148 10.0938 97.459 10.459 97.9316 11.1895C98.4043 11.9199 98.6406 13.0684 98.6406 14.6348C98.6406 16.1074 98.3555 17.2324 97.7852 18.0098C97.2188 18.7832 96.3945 19.1699 95.3125 19.1699C95.0273 19.1699 94.7402 19.1387 94.4512 19.0762C94.1621 19.0176 93.8828 18.9316 93.6133 18.8184Z" fill="white"/>
<path d="M71.8066 10.4453V11.5352C71.5605 11.3906 71.2988 11.2812 71.0215 11.207C70.7441 11.1289 70.4551 11.0898 70.1543 11.0898C69.4043 11.0898 68.8359 11.373 68.4492 11.9395C68.0625 12.502 67.8691 13.332 67.8691 14.4297C68.0566 14.0391 68.3164 13.7402 68.6484 13.5332C68.9805 13.3223 69.3613 13.2168 69.791 13.2168C70.6348 13.2168 71.2871 13.4766 71.748 13.9961C72.2129 14.5117 72.4453 15.2441 72.4453 16.1934C72.4453 17.1387 72.207 17.8711 71.7305 18.3906C71.2539 18.9102 70.584 19.1699 69.7207 19.1699C68.7051 19.1699 67.9609 18.8066 67.4883 18.0801C67.0156 17.3496 66.7793 16.2012 66.7793 14.6348C66.7793 13.1582 67.0625 12.0332 67.6289 11.2598C68.1992 10.4824 69.0234 10.0938 70.1016 10.0938C70.3906 10.0938 70.6797 10.125 70.9688 10.1875C71.2578 10.2461 71.5371 10.332 71.8066 10.4453ZM69.6973 14.1426C69.1934 14.1426 68.7969 14.3242 68.5078 14.6875C68.2188 15.0508 68.0742 15.5527 68.0742 16.1934C68.0742 16.834 68.2188 17.3359 68.5078 17.6992C68.7969 18.0625 69.1934 18.2441 69.6973 18.2441C70.2207 18.2441 70.6152 18.0723 70.8809 17.7285C71.1465 17.3809 71.2793 16.8691 71.2793 16.1934C71.2793 15.5137 71.1465 15.002 70.8809 14.6582C70.6152 14.3145 70.2207 14.1426 69.6973 14.1426ZM76.8398 10.123C77.7734 10.123 78.4785 10.5039 78.9551 11.2656C79.4355 12.0273 79.6758 13.1543 79.6758 14.6465C79.6758 16.1387 79.4355 17.2656 78.9551 18.0273C78.4785 18.7891 77.7734 19.1699 76.8398 19.1699C75.9062 19.1699 75.2012 18.7891 74.7246 18.0273C74.248 17.2656 74.0098 16.1387 74.0098 14.6465C74.0098 13.1543 74.248 12.0273 74.7246 11.2656C75.2012 10.5039 75.9062 10.123 76.8398 10.123ZM76.8398 18.2324C77.3945 18.2324 77.8066 17.9375 78.0762 17.3477C78.3496 16.7578 78.4863 15.8574 78.4863 14.6465C78.4863 14.002 78.4473 13.4199 78.3691 12.9004L75.5801 17.2656C75.873 17.9102 76.293 18.2324 76.8398 18.2324ZM76.8398 11.0605C76.2891 11.0605 75.877 11.3555 75.6035 11.9453C75.334 12.5352 75.1992 13.4355 75.1992 14.6465C75.1992 15.1973 75.2363 15.7129 75.3105 16.1934L78.041 11.8398C77.7441 11.3203 77.3438 11.0605 76.8398 11.0605Z" fill="white"/>
<path d="M21.8066 10.4453V11.5352C21.5605 11.3906 21.2988 11.2812 21.0215 11.207C20.7441 11.1289 20.4551 11.0898 20.1543 11.0898C19.4043 11.0898 18.8359 11.373 18.4492 11.9395C18.0625 12.502 17.8691 13.332 17.8691 14.4297C18.0566 14.0391 18.3164 13.7402 18.6484 13.5332C18.9805 13.3223 19.3613 13.2168 19.791 13.2168C20.6348 13.2168 21.2871 13.4766 21.748 13.9961C22.2129 14.5117 22.4453 15.2441 22.4453 16.1934C22.4453 17.1387 22.207 17.8711 21.7305 18.3906C21.2539 18.9102 20.584 19.1699 19.7207 19.1699C18.7051 19.1699 17.9609 18.8066 17.4883 18.0801C17.0156 17.3496 16.7793 16.2012 16.7793 14.6348C16.7793 13.1582 17.0625 12.0332 17.6289 11.2598C18.1992 10.4824 19.0234 10.0938 20.1016 10.0938C20.3906 10.0938 20.6797 10.125 20.9688 10.1875C21.2578 10.2461 21.5371 10.332 21.8066 10.4453ZM19.6973 14.1426C19.1934 14.1426 18.7969 14.3242 18.5078 14.6875C18.2188 15.0508 18.0742 15.5527 18.0742 16.1934C18.0742 16.834 18.2188 17.3359 18.5078 17.6992C18.7969 18.0625 19.1934 18.2441 19.6973 18.2441C20.2207 18.2441 20.6152 18.0723 20.8809 17.7285C21.1465 17.3809 21.2793 16.8691 21.2793 16.1934C21.2793 15.5137 21.1465 15.002 20.8809 14.6582C20.6152 14.3145 20.2207 14.1426 19.6973 14.1426ZM27.7773 14.3184C28.3516 14.4707 28.791 14.7422 29.0957 15.1328C29.4004 15.5195 29.5527 16.0039 29.5527 16.5859C29.5527 17.3906 29.2812 18.0234 28.7383 18.4844C28.1992 18.9414 27.4512 19.1699 26.4941 19.1699C26.0918 19.1699 25.6816 19.1328 25.2637 19.0586C24.8457 18.9844 24.4355 18.877 24.0332 18.7363V17.5586C24.4316 17.7656 24.8242 17.9199 25.2109 18.0215C25.5977 18.123 25.9824 18.1738 26.3652 18.1738C27.0137 18.1738 27.5117 18.0273 27.8594 17.7344C28.207 17.4414 28.3809 17.0195 28.3809 16.4688C28.3809 15.9609 28.207 15.5586 27.8594 15.2617C27.5117 14.9609 27.041 14.8105 26.4473 14.8105H25.5449V13.8379H26.4473C26.9902 13.8379 27.4141 13.7188 27.7188 13.4805C28.0234 13.2422 28.1758 12.9102 28.1758 12.4844C28.1758 12.0352 28.0332 11.6914 27.748 11.4531C27.4668 11.2109 27.0645 11.0898 26.541 11.0898C26.1934 11.0898 25.834 11.1289 25.4629 11.207C25.0918 11.2852 24.7031 11.4023 24.2969 11.5586V10.4688C24.7695 10.3438 25.1895 10.25 25.5566 10.1875C25.9277 10.125 26.2559 10.0938 26.541 10.0938C27.3926 10.0938 28.0723 10.3086 28.5801 10.7383C29.0918 11.1641 29.3477 11.7305 29.3477 12.4375C29.3477 12.918 29.2129 13.3184 28.9434 13.6387C28.6777 13.959 28.2891 14.1855 27.7773 14.3184Z" fill="white"/>
<path d="M489.547 14.3184C490.121 14.4707 490.561 14.7422 490.865 15.1328C491.17 15.5195 491.322 16.0039 491.322 16.5859C491.322 17.3906 491.051 18.0234 490.508 18.4844C489.969 18.9414 489.221 19.1699 488.264 19.1699C487.861 19.1699 487.451 19.1328 487.033 19.0586C486.615 18.9844 486.205 18.877 485.803 18.7363V17.5586C486.201 17.7656 486.594 17.9199 486.98 18.0215C487.367 18.123 487.752 18.1738 488.135 18.1738C488.783 18.1738 489.281 18.0273 489.629 17.7344C489.977 17.4414 490.15 17.0195 490.15 16.4688C490.15 15.9609 489.977 15.5586 489.629 15.2617C489.281 14.9609 488.811 14.8105 488.217 14.8105H487.314V13.8379H488.217C488.76 13.8379 489.184 13.7188 489.488 13.4805C489.793 13.2422 489.945 12.9102 489.945 12.4844C489.945 12.0352 489.803 11.6914 489.518 11.4531C489.236 11.2109 488.834 11.0898 488.311 11.0898C487.963 11.0898 487.604 11.1289 487.232 11.207C486.861 11.2852 486.473 11.4023 486.066 11.5586V10.4688C486.539 10.3438 486.959 10.25 487.326 10.1875C487.697 10.125 488.025 10.0938 488.311 10.0938C489.162 10.0938 489.842 10.3086 490.35 10.7383C490.861 11.1641 491.117 11.7305 491.117 12.4375C491.117 12.918 490.982 13.3184 490.713 13.6387C490.447 13.959 490.059 14.1855 489.547 14.3184ZM498.037 10.4453V11.5352C497.791 11.3906 497.529 11.2812 497.252 11.207C496.975 11.1289 496.686 11.0898 496.385 11.0898C495.635 11.0898 495.066 11.373 494.68 11.9395C494.293 12.502 494.1 13.332 494.1 14.4297C494.287 14.0391 494.547 13.7402 494.879 13.5332C495.211 13.3223 495.592 13.2168 496.021 13.2168C496.865 13.2168 497.518 13.4766 497.979 13.9961C498.443 14.5117 498.676 15.2441 498.676 16.1934C498.676 17.1387 498.438 17.8711 497.961 18.3906C497.484 18.9102 496.814 19.1699 495.951 19.1699C494.936 19.1699 494.191 18.8066 493.719 18.0801C493.246 17.3496 493.01 16.2012 493.01 14.6348C493.01 13.1582 493.293 12.0332 493.859 11.2598C494.43 10.4824 495.254 10.0938 496.332 10.0938C496.621 10.0938 496.91 10.125 497.199 10.1875C497.488 10.2461 497.768 10.332 498.037 10.4453ZM495.928 14.1426C495.424 14.1426 495.027 14.3242 494.738 14.6875C494.449 15.0508 494.305 15.5527 494.305 16.1934C494.305 16.834 494.449 17.3359 494.738 17.6992C495.027 18.0625 495.424 18.2441 495.928 18.2441C496.451 18.2441 496.846 18.0723 497.111 17.7285C497.377 17.3809 497.51 16.8691 497.51 16.1934C497.51 15.5137 497.377 15.002 497.111 14.6582C496.846 14.3145 496.451 14.1426 495.928 14.1426Z" fill="white"/>
<path d="M439.547 14.3184C440.121 14.4707 440.561 14.7422 440.865 15.1328C441.17 15.5195 441.322 16.0039 441.322 16.5859C441.322 17.3906 441.051 18.0234 440.508 18.4844C439.969 18.9414 439.221 19.1699 438.264 19.1699C437.861 19.1699 437.451 19.1328 437.033 19.0586C436.615 18.9844 436.205 18.877 435.803 18.7363V17.5586C436.201 17.7656 436.594 17.9199 436.98 18.0215C437.367 18.123 437.752 18.1738 438.135 18.1738C438.783 18.1738 439.281 18.0273 439.629 17.7344C439.977 17.4414 440.15 17.0195 440.15 16.4688C440.15 15.9609 439.977 15.5586 439.629 15.2617C439.281 14.9609 438.811 14.8105 438.217 14.8105H437.314V13.8379H438.217C438.76 13.8379 439.184 13.7188 439.488 13.4805C439.793 13.2422 439.945 12.9102 439.945 12.4844C439.945 12.0352 439.803 11.6914 439.518 11.4531C439.236 11.2109 438.834 11.0898 438.311 11.0898C437.963 11.0898 437.604 11.1289 437.232 11.207C436.861 11.2852 436.473 11.4023 436.066 11.5586V10.4688C436.539 10.3438 436.959 10.25 437.326 10.1875C437.697 10.125 438.025 10.0938 438.311 10.0938C439.162 10.0938 439.842 10.3086 440.35 10.7383C440.861 11.1641 441.117 11.7305 441.117 12.4375C441.117 12.918 440.982 13.3184 440.713 13.6387C440.447 13.959 440.059 14.1855 439.547 14.3184ZM445.723 15.1211C446.227 15.1211 446.621 14.9395 446.906 14.5762C447.195 14.2129 447.34 13.7109 447.34 13.0703C447.34 12.4297 447.195 11.9277 446.906 11.5645C446.621 11.2012 446.227 11.0195 445.723 11.0195C445.199 11.0195 444.805 11.1934 444.539 11.541C444.273 11.8848 444.141 12.3945 444.141 13.0703C444.141 13.75 444.271 14.2617 444.533 14.6055C444.799 14.9492 445.195 15.1211 445.723 15.1211ZM443.613 18.8184V17.7285C443.859 17.873 444.121 17.9844 444.398 18.0625C444.676 18.1367 444.965 18.1738 445.266 18.1738C446.016 18.1738 446.582 17.8926 446.965 17.3301C447.352 16.7637 447.545 15.9316 447.545 14.834C447.361 15.2246 447.104 15.5254 446.771 15.7363C446.439 15.9434 446.059 16.0469 445.629 16.0469C444.785 16.0469 444.131 15.7871 443.666 15.2676C443.205 14.748 442.975 14.0117 442.975 13.0586C442.975 12.1172 443.211 11.3887 443.684 10.873C444.16 10.3535 444.832 10.0938 445.699 10.0938C446.715 10.0938 447.459 10.459 447.932 11.1895C448.404 11.9199 448.641 13.0684 448.641 14.6348C448.641 16.1074 448.355 17.2324 447.785 18.0098C447.219 18.7832 446.395 19.1699 445.312 19.1699C445.027 19.1699 444.74 19.1387 444.451 19.0762C444.162 19.0176 443.883 18.9316 443.613 18.8184Z" fill="white"/>
<path d="M33.3379 31.2246V34.5117H34.709C35.2559 34.5117 35.6816 34.3672 35.9863 34.0781C36.2949 33.7891 36.4492 33.3848 36.4492 32.8652C36.4492 32.3457 36.2969 31.9434 35.9922 31.6582C35.6875 31.3691 35.2598 31.2246 34.709 31.2246H33.3379ZM32.1543 30.252H34.709C35.6855 30.252 36.4258 30.4746 36.9297 30.9199C37.4336 31.3613 37.6855 32.0098 37.6855 32.8652C37.6855 33.7285 37.4336 34.3809 36.9297 34.8223C36.4297 35.2637 35.6895 35.4844 34.709 35.4844H33.3379V39H32.1543V30.252ZM39.5957 30.252H44.7461V31.248H40.7852V33.5918H44.377V34.5879H40.7852V39H39.5957V30.252ZM49.0703 31.2949L47.8223 35.7715H50.3184L49.0703 31.2949ZM48.3555 30.252H49.791L52.4688 39H51.2441L50.5996 36.7207H47.5352L46.9023 39H45.6777L48.3555 30.252ZM57.1445 34.8691C57.4492 34.9473 57.709 35.0957 57.9238 35.3145C58.1387 35.5293 58.4062 35.9609 58.7266 36.6094L59.916 39H58.6445L57.6016 36.791C57.3008 36.1621 57.0293 35.7578 56.7871 35.5781C56.5488 35.3945 56.2363 35.3027 55.8496 35.3027H54.7188V39H53.5293V30.252H55.9668C56.9277 30.252 57.6641 30.4688 58.1758 30.9023C58.6875 31.3359 58.9434 31.9629 58.9434 32.7832C58.9434 33.3613 58.7852 33.834 58.4688 34.2012C58.1562 34.5645 57.7148 34.7871 57.1445 34.8691ZM54.7188 31.2246V34.3301H56.0137C56.5801 34.3301 57.002 34.2031 57.2793 33.9492C57.5566 33.6953 57.6953 33.3066 57.6953 32.7832C57.6953 32.2793 57.5469 31.8945 57.25 31.6289C56.957 31.3594 56.5293 31.2246 55.9668 31.2246H54.7188Z" fill="white"/>
<path d="M107.555 38.0273C108.551 38.0273 109.246 37.7832 109.641 37.2949C110.035 36.8027 110.232 35.916 110.232 34.6348C110.232 33.3418 110.035 32.4512 109.641 31.9629C109.25 31.4707 108.555 31.2246 107.555 31.2246H106.992V38.0273H107.555ZM107.578 30.252C108.914 30.252 109.898 30.6074 110.531 31.3184C111.164 32.0293 111.48 33.1348 111.48 34.6348C111.48 36.127 111.164 37.2285 110.531 37.9395C109.898 38.6465 108.914 39 107.578 39H105.803V30.252H107.578ZM113.596 30.252H118.746V31.248H114.785V33.5918H118.377V34.5879H114.785V39H113.596V30.252ZM121.646 38.0039H125.666V39H120.352V38.0039C121.082 37.2344 121.721 36.5547 122.268 35.9648C122.814 35.375 123.191 34.959 123.398 34.7168C123.789 34.2402 124.053 33.8555 124.189 33.5625C124.326 33.2656 124.395 32.9629 124.395 32.6543C124.395 32.166 124.25 31.7832 123.961 31.5059C123.676 31.2285 123.283 31.0898 122.783 31.0898C122.428 31.0898 122.055 31.1543 121.664 31.2832C121.273 31.4121 120.859 31.6074 120.422 31.8691V30.6738C120.824 30.4824 121.219 30.3379 121.605 30.2402C121.996 30.1426 122.381 30.0938 122.76 30.0938C123.615 30.0938 124.303 30.3223 124.822 30.7793C125.346 31.2324 125.607 31.8281 125.607 32.5664C125.607 32.9414 125.52 33.3164 125.344 33.6914C125.172 34.0664 124.891 34.4805 124.5 34.9336C124.281 35.1875 123.963 35.5391 123.545 35.9883C123.131 36.4375 122.498 37.1094 121.646 38.0039Z" fill="white"/>
<path d="M110.93 80.5508V81.752C110.57 81.5215 110.209 81.3477 109.846 81.2305C109.486 81.1133 109.123 81.0547 108.756 81.0547C108.197 81.0547 107.756 81.1855 107.432 81.4473C107.107 81.7051 106.945 82.0547 106.945 82.4961C106.945 82.8828 107.051 83.1777 107.262 83.3809C107.477 83.584 107.875 83.7539 108.457 83.8906L109.078 84.0312C109.898 84.2227 110.496 84.5234 110.871 84.9336C111.246 85.3438 111.434 85.9023 111.434 86.6094C111.434 87.4414 111.176 88.0762 110.66 88.5137C110.145 88.9512 109.395 89.1699 108.41 89.1699C108 89.1699 107.588 89.125 107.174 89.0352C106.76 88.9492 106.344 88.8184 105.926 88.6426V87.3828C106.375 87.668 106.799 87.877 107.197 88.0098C107.6 88.1426 108.004 88.209 108.41 88.209C109.008 88.209 109.473 88.0762 109.805 87.8105C110.137 87.541 110.303 87.166 110.303 86.6855C110.303 86.248 110.188 85.9141 109.957 85.6836C109.73 85.4531 109.334 85.2754 108.768 85.1504L108.135 85.0039C107.322 84.8203 106.732 84.543 106.365 84.1719C105.998 83.8008 105.814 83.3027 105.814 82.6777C105.814 81.8965 106.076 81.2715 106.6 80.8027C107.127 80.3301 107.826 80.0938 108.697 80.0938C109.033 80.0938 109.387 80.1328 109.758 80.2109C110.129 80.2852 110.52 80.3984 110.93 80.5508ZM112.441 80.2812H114.023L115.535 84.7227L117.059 80.2812H118.646V89H117.551V81.2949L115.992 85.8887H115.096L113.531 81.2949V89H112.441V80.2812ZM120.615 80.252H125.807V81.248H121.799V83.6035H125.631V84.5996H121.799V88.0039H125.918V89H120.615V80.252Z" fill="white"/>
<path d="M173.211 30.2812H174.793L176.305 34.7227L177.828 30.2812H179.416V39H178.32V31.2949L176.762 35.8887H175.865L174.301 31.2949V39H173.211V30.2812ZM180.506 30.252H187.18V31.248H184.443V39H183.254V31.248H180.506V30.252ZM188.615 30.252H193.807V31.248H189.799V33.6035H193.631V34.5996H189.799V38.0039H193.918V39H188.615V30.252ZM195.195 30.252H196.467L198.389 33.5508L200.346 30.252H201.617L198.998 34.3652L201.805 39H200.533L198.389 35.2324L196.074 39H194.797L197.727 34.3652L195.195 30.252Z" fill="white"/>
<path d="M246.275 30.252H252.949V31.248H250.213V39H249.023V31.248H246.275V30.252ZM254.033 30.252H255.223V33.6035H258.463V30.252H259.652V39H258.463V34.5996H255.223V39H254.033V30.252ZM261.615 30.252H266.807V31.248H262.799V33.6035H266.631V34.5996H262.799V38.0039H266.918V39H261.615V30.252Z" fill="white"/>
<path d="M458.93 80.5508V81.752C458.57 81.5215 458.209 81.3477 457.846 81.2305C457.486 81.1133 457.123 81.0547 456.756 81.0547C456.197 81.0547 455.756 81.1855 455.432 81.4473C455.107 81.7051 454.945 82.0547 454.945 82.4961C454.945 82.8828 455.051 83.1777 455.262 83.3809C455.477 83.584 455.875 83.7539 456.457 83.8906L457.078 84.0312C457.898 84.2227 458.496 84.5234 458.871 84.9336C459.246 85.3438 459.434 85.9023 459.434 86.6094C459.434 87.4414 459.176 88.0762 458.66 88.5137C458.145 88.9512 457.395 89.1699 456.41 89.1699C456 89.1699 455.588 89.125 455.174 89.0352C454.76 88.9492 454.344 88.8184 453.926 88.6426V87.3828C454.375 87.668 454.799 87.877 455.197 88.0098C455.6 88.1426 456.004 88.209 456.41 88.209C457.008 88.209 457.473 88.0762 457.805 87.8105C458.137 87.541 458.303 87.166 458.303 86.6855C458.303 86.248 458.188 85.9141 457.957 85.6836C457.73 85.4531 457.334 85.2754 456.768 85.1504L456.135 85.0039C455.322 84.8203 454.732 84.543 454.365 84.1719C453.998 83.8008 453.814 83.3027 453.814 82.6777C453.814 81.8965 454.076 81.2715 454.6 80.8027C455.127 80.3301 455.826 80.0938 456.697 80.0938C457.033 80.0938 457.387 80.1328 457.758 80.2109C458.129 80.2852 458.52 80.3984 458.93 80.5508ZM466.16 80.5508V81.752C465.801 81.5215 465.439 81.3477 465.076 81.2305C464.717 81.1133 464.354 81.0547 463.986 81.0547C463.428 81.0547 462.986 81.1855 462.662 81.4473C462.338 81.7051 462.176 82.0547 462.176 82.4961C462.176 82.8828 462.281 83.1777 462.492 83.3809C462.707 83.584 463.105 83.7539 463.688 83.8906L464.309 84.0312C465.129 84.2227 465.727 84.5234 466.102 84.9336C466.477 85.3438 466.664 85.9023 466.664 86.6094C466.664 87.4414 466.406 88.0762 465.891 88.5137C465.375 88.9512 464.625 89.1699 463.641 89.1699C463.23 89.1699 462.818 89.125 462.404 89.0352C461.99 88.9492 461.574 88.8184 461.156 88.6426V87.3828C461.605 87.668 462.029 87.877 462.428 88.0098C462.83 88.1426 463.234 88.209 463.641 88.209C464.238 88.209 464.703 88.0762 465.035 87.8105C465.367 87.541 465.533 87.166 465.533 86.6855C465.533 86.248 465.418 85.9141 465.188 85.6836C464.961 85.4531 464.564 85.2754 463.998 85.1504L463.365 85.0039C462.553 84.8203 461.963 84.543 461.596 84.1719C461.229 83.8008 461.045 83.3027 461.045 82.6777C461.045 81.8965 461.307 81.2715 461.83 80.8027C462.357 80.3301 463.057 80.0938 463.928 80.0938C464.264 80.0938 464.617 80.1328 464.988 80.2109C465.359 80.2852 465.75 80.3984 466.16 80.5508ZM469.623 84.5879V88.0273H471.023C471.711 88.0273 472.201 87.9082 472.494 87.6699C472.787 87.4277 472.934 87.0312 472.934 86.4805C472.934 85.7539 472.779 85.2578 472.471 84.9922C472.162 84.7227 471.68 84.5879 471.023 84.5879H469.623ZM469.623 81.2246V83.627H471C471.57 83.627 471.982 83.5176 472.236 83.2988C472.494 83.0801 472.623 82.8047 472.623 82.4727C472.623 82.0312 472.496 81.7129 472.242 81.5176C471.992 81.3223 471.578 81.2246 471 81.2246H469.623ZM468.434 80.252H471.023C471.918 80.252 472.607 80.4453 473.092 80.832C473.576 81.2188 473.818 81.7656 473.818 82.4727C473.818 82.8516 473.689 83.1953 473.432 83.5039C473.178 83.8125 472.795 84.0059 472.283 84.084C472.857 84.1699 473.307 84.416 473.631 84.8223C473.959 85.2246 474.123 85.8164 474.123 86.5977C474.123 87.3906 473.863 87.9902 473.344 88.3965C472.824 88.7988 472.051 89 471.023 89H468.434V80.252ZM480.621 80.5508V81.752C480.262 81.5215 479.9 81.3477 479.537 81.2305C479.178 81.1133 478.814 81.0547 478.447 81.0547C477.889 81.0547 477.447 81.1855 477.123 81.4473C476.799 81.7051 476.637 82.0547 476.637 82.4961C476.637 82.8828 476.742 83.1777 476.953 83.3809C477.168 83.584 477.566 83.7539 478.148 83.8906L478.77 84.0312C479.59 84.2227 480.188 84.5234 480.562 84.9336C480.938 85.3438 481.125 85.9023 481.125 86.6094C481.125 87.4414 480.867 88.0762 480.352 88.5137C479.836 88.9512 479.086 89.1699 478.102 89.1699C477.691 89.1699 477.279 89.125 476.865 89.0352C476.451 88.9492 476.035 88.8184 475.617 88.6426V87.3828C476.066 87.668 476.49 87.877 476.889 88.0098C477.291 88.1426 477.695 88.209 478.102 88.209C478.699 88.209 479.164 88.0762 479.496 87.8105C479.828 87.541 479.994 87.166 479.994 86.6855C479.994 86.248 479.879 85.9141 479.648 85.6836C479.422 85.4531 479.025 85.2754 478.459 85.1504L477.826 85.0039C477.014 84.8203 476.424 84.543 476.057 84.1719C475.689 83.8008 475.506 83.3027 475.506 82.6777C475.506 81.8965 475.768 81.2715 476.291 80.8027C476.818 80.3301 477.518 80.0938 478.389 80.0938C478.725 80.0938 479.078 80.1328 479.449 80.2109C479.82 80.2852 480.211 80.3984 480.621 80.5508Z" fill="white"/>
<path d="M532.162 84.5879V88.0273H533.562C534.25 88.0273 534.74 87.9082 535.033 87.6699C535.326 87.4277 535.473 87.0312 535.473 86.4805C535.473 85.7539 535.318 85.2578 535.01 84.9922C534.701 84.7227 534.219 84.5879 533.562 84.5879H532.162ZM532.162 81.2246V83.627H533.539C534.109 83.627 534.521 83.5176 534.775 83.2988C535.033 83.0801 535.162 82.8047 535.162 82.4727C535.162 82.0312 535.035 81.7129 534.781 81.5176C534.531 81.3223 534.117 81.2246 533.539 81.2246H532.162ZM530.973 80.252H533.562C534.457 80.252 535.146 80.4453 535.631 80.832C536.115 81.2188 536.357 81.7656 536.357 82.4727C536.357 82.8516 536.229 83.1953 535.971 83.5039C535.717 83.8125 535.334 84.0059 534.822 84.084C535.396 84.1699 535.846 84.416 536.17 84.8223C536.498 85.2246 536.662 85.8164 536.662 86.5977C536.662 87.3906 536.402 87.9902 535.883 88.3965C535.363 88.7988 534.59 89 533.562 89H530.973V80.252ZM537.506 80.252H544.18V81.248H541.443V89H540.254V81.248H537.506V80.252Z" fill="white"/>
<path d="M322.469 38.2793C322.152 38.5723 321.795 38.7949 321.396 38.9473C321.002 39.0957 320.574 39.1699 320.113 39.1699C319.004 39.1699 318.141 38.7734 317.523 37.9805C316.906 37.1836 316.598 36.0684 316.598 34.6348C316.598 33.2051 316.91 32.0918 317.535 31.2949C318.16 30.4941 319.029 30.0938 320.143 30.0938C320.51 30.0938 320.861 30.1465 321.197 30.252C321.533 30.3535 321.857 30.5098 322.17 30.7207V31.9336C321.854 31.6328 321.529 31.4121 321.197 31.2715C320.865 31.127 320.514 31.0547 320.143 31.0547C319.373 31.0547 318.795 31.3535 318.408 31.9512C318.025 32.5449 317.834 33.4395 317.834 34.6348C317.834 35.8496 318.02 36.75 318.391 37.3359C318.766 37.918 319.34 38.209 320.113 38.209C320.375 38.209 320.604 38.1797 320.799 38.1211C320.998 38.0586 321.178 37.9629 321.338 37.834V35.4844H320.066V34.5117H322.469V38.2793ZM329.518 38.6895C329.217 38.8496 328.908 38.9688 328.592 39.0469C328.275 39.1289 327.939 39.1699 327.584 39.1699C326.463 39.1699 325.592 38.7734 324.971 37.9805C324.354 37.1875 324.045 36.0723 324.045 34.6348C324.045 33.2051 324.355 32.0918 324.977 31.2949C325.602 30.4941 326.471 30.0938 327.584 30.0938C327.939 30.0938 328.275 30.1348 328.592 30.2168C328.908 30.2949 329.217 30.4141 329.518 30.5742V31.7871C329.229 31.5488 328.918 31.3672 328.586 31.2422C328.254 31.1172 327.92 31.0547 327.584 31.0547C326.814 31.0547 326.238 31.3516 325.855 31.9453C325.473 32.5391 325.281 33.4355 325.281 34.6348C325.281 35.8301 325.473 36.7246 325.855 37.3184C326.238 37.9121 326.814 38.209 327.584 38.209C327.928 38.209 328.264 38.1465 328.592 38.0215C328.924 37.8965 329.232 37.7148 329.518 37.4766V38.6895ZM336.391 30.5508V31.752C336.031 31.5215 335.67 31.3477 335.307 31.2305C334.947 31.1133 334.584 31.0547 334.217 31.0547C333.658 31.0547 333.217 31.1855 332.893 31.4473C332.568 31.7051 332.406 32.0547 332.406 32.4961C332.406 32.8828 332.512 33.1777 332.723 33.3809C332.938 33.584 333.336 33.7539 333.918 33.8906L334.539 34.0312C335.359 34.2227 335.957 34.5234 336.332 34.9336C336.707 35.3438 336.895 35.9023 336.895 36.6094C336.895 37.4414 336.637 38.0762 336.121 38.5137C335.605 38.9512 334.855 39.1699 333.871 39.1699C333.461 39.1699 333.049 39.125 332.635 39.0352C332.221 38.9492 331.805 38.8184 331.387 38.6426V37.3828C331.836 37.668 332.26 37.877 332.658 38.0098C333.061 38.1426 333.465 38.209 333.871 38.209C334.469 38.209 334.934 38.0762 335.266 37.8105C335.598 37.541 335.764 37.166 335.764 36.6855C335.764 36.248 335.648 35.9141 335.418 35.6836C335.191 35.4531 334.795 35.2754 334.229 35.1504L333.596 35.0039C332.783 34.8203 332.193 34.543 331.826 34.1719C331.459 33.8008 331.275 33.3027 331.275 32.6777C331.275 31.8965 331.537 31.2715 332.061 30.8027C332.588 30.3301 333.287 30.0938 334.158 30.0938C334.494 30.0938 334.848 30.1328 335.219 30.2109C335.59 30.2852 335.98 30.3984 336.391 30.5508Z" fill="white"/>
<path d="M458.111 30.2812H459.729L463.15 37.459V30.2812H464.41V39H462.793L459.371 31.8223V39H458.111V30.2812ZM465.441 30.2812H467.023L468.535 34.7227L470.059 30.2812H471.646V39H470.551V31.2949L468.992 35.8887H468.096L466.531 31.2949V39H465.441V30.2812ZM473.639 30.252H478.496V31.248H476.662V38.0039H478.496V39H473.639V38.0039H475.473V31.248H473.639V30.252Z" fill="white"/>
<path d="M512.763 38.7153C512.487 38.8621 512.205 38.9714 511.915 39.043C511.625 39.1182 511.317 39.1558 510.991 39.1558C509.963 39.1558 509.165 38.7923 508.595 38.0654C508.029 37.3385 507.747 36.3162 507.747 34.9985C507.747 33.688 508.031 32.6675 508.601 31.937C509.174 31.203 509.97 30.8359 510.991 30.8359C511.317 30.8359 511.625 30.8735 511.915 30.9487C512.205 31.0203 512.487 31.1296 512.763 31.2764V32.3882C512.498 32.1698 512.214 32.0033 511.909 31.8887C511.605 31.7741 511.299 31.7168 510.991 31.7168C510.285 31.7168 509.757 31.9889 509.406 32.5332C509.055 33.0775 508.88 33.8993 508.88 34.9985C508.88 36.0942 509.055 36.9142 509.406 37.4585C509.757 38.0028 510.285 38.2749 510.991 38.2749C511.306 38.2749 511.614 38.2176 511.915 38.103C512.219 37.9884 512.502 37.8219 512.763 37.6035V38.7153ZM519.063 31.2549V32.356C518.734 32.1447 518.403 31.9854 518.07 31.8779C517.74 31.7705 517.407 31.7168 517.071 31.7168C516.559 31.7168 516.154 31.8368 515.857 32.0767C515.56 32.313 515.411 32.6335 515.411 33.0381C515.411 33.3926 515.508 33.6629 515.701 33.8491C515.898 34.0353 516.263 34.1911 516.797 34.3164L517.366 34.4453C518.118 34.6208 518.666 34.8965 519.01 35.2725C519.354 35.6484 519.525 36.1605 519.525 36.8086C519.525 37.5713 519.289 38.1532 518.816 38.5542C518.344 38.9552 517.656 39.1558 516.754 39.1558C516.378 39.1558 516 39.1146 515.621 39.0322C515.241 38.9535 514.86 38.8335 514.477 38.6724V37.5176C514.888 37.779 515.277 37.9705 515.642 38.0923C516.011 38.214 516.382 38.2749 516.754 38.2749C517.302 38.2749 517.728 38.1532 518.032 37.9097C518.337 37.6626 518.489 37.3188 518.489 36.8784C518.489 36.4774 518.383 36.1712 518.172 35.96C517.964 35.7487 517.601 35.5858 517.082 35.4712L516.501 35.3369C515.757 35.1686 515.216 34.9144 514.879 34.5742C514.543 34.234 514.375 33.7775 514.375 33.2046C514.375 32.4884 514.614 31.9155 515.094 31.4858C515.578 31.0526 516.219 30.8359 517.017 30.8359C517.325 30.8359 517.649 30.8717 517.989 30.9434C518.329 31.0114 518.688 31.1152 519.063 31.2549ZM523.564 38.0869L525.45 30.981H526.572L524.225 39H522.909L520.562 30.981H521.685L523.564 38.0869ZM528.887 38.0869H532.572V39H527.7V38.0869C528.37 37.3815 528.955 36.7585 529.457 36.2178C529.958 35.6771 530.303 35.2957 530.493 35.0737C530.851 34.6369 531.093 34.2842 531.218 34.0156C531.344 33.7435 531.406 33.466 531.406 33.1831C531.406 32.7355 531.274 32.3846 531.009 32.1304C530.747 31.8761 530.388 31.749 529.929 31.749C529.603 31.749 529.261 31.8081 528.903 31.9263C528.545 32.0444 528.166 32.2235 527.765 32.4634V31.3677C528.133 31.1922 528.495 31.0597 528.85 30.9702C529.208 30.8807 529.56 30.8359 529.908 30.8359C530.692 30.8359 531.322 31.0454 531.798 31.4644C532.278 31.8797 532.518 32.4258 532.518 33.1025C532.518 33.4463 532.438 33.79 532.276 34.1338C532.119 34.4775 531.861 34.8571 531.503 35.2725C531.302 35.5052 531.011 35.8275 530.627 36.2393C530.248 36.651 529.668 37.2669 528.887 38.0869ZM540.086 40.0205V40.9336H533.512V40.0205H540.086ZM545.849 30.6426V31.4644H544.727C544.372 31.4644 544.125 31.5378 543.985 31.6846C543.849 31.8278 543.781 32.0838 543.781 32.4526V32.9844H545.849V33.7524H543.781V39H542.793V33.7524H541.187V32.9844H542.793V32.5654C542.793 31.9066 542.943 31.4214 543.244 31.1099C543.549 30.7983 544.021 30.6426 544.662 30.6426H545.849ZM552.971 34.2251C552.76 34.0604 552.545 33.9404 552.327 33.8652C552.108 33.79 551.868 33.7524 551.607 33.7524C550.991 33.7524 550.52 33.9458 550.194 34.3325C549.868 34.7192 549.706 35.2778 549.706 36.0083V39H548.712V32.9844H549.706V34.1606C549.87 33.7345 550.123 33.4087 550.463 33.1831C550.807 32.9539 551.213 32.8394 551.682 32.8394C551.926 32.8394 552.153 32.8698 552.364 32.9307C552.576 32.9915 552.778 33.0864 552.971 33.2153V34.2251ZM557.166 35.9761H556.838C556.262 35.9761 555.827 36.0781 555.533 36.2822C555.243 36.4827 555.098 36.7835 555.098 37.1846C555.098 37.5462 555.207 37.8273 555.426 38.0278C555.644 38.2284 555.947 38.3286 556.333 38.3286C556.878 38.3286 557.306 38.1406 557.617 37.7646C557.929 37.3851 558.086 36.8623 558.09 36.1963V35.9761H557.166ZM559.083 35.5679V39H558.09V38.1084C557.879 38.4665 557.612 38.7314 557.29 38.9033C556.971 39.0716 556.582 39.1558 556.124 39.1558C555.512 39.1558 555.023 38.9839 554.658 38.6401C554.292 38.2928 554.11 37.8291 554.11 37.249C554.11 36.5794 554.334 36.071 554.781 35.7236C555.232 35.3763 555.893 35.2026 556.763 35.2026H558.09V35.0469C558.086 34.5671 557.965 34.2197 557.725 34.0049C557.485 33.7865 557.102 33.6772 556.575 33.6772C556.239 33.6772 555.898 33.7256 555.555 33.8223C555.211 33.9189 554.876 34.0604 554.55 34.2466V33.2583C554.916 33.1187 555.265 33.0148 555.598 32.9468C555.934 32.8752 556.26 32.8394 556.575 32.8394C557.073 32.8394 557.497 32.9128 557.848 33.0596C558.203 33.2064 558.489 33.4266 558.708 33.7202C558.844 33.8993 558.94 34.1213 558.998 34.3862C559.055 34.6476 559.083 35.0415 559.083 35.5679ZM565.722 38.6938C565.457 38.8478 565.183 38.9624 564.9 39.0376C564.621 39.1164 564.335 39.1558 564.041 39.1558C563.11 39.1558 562.381 38.8765 561.855 38.3179C561.332 37.7593 561.071 36.9858 561.071 35.9976C561.071 35.0093 561.332 34.2358 561.855 33.6772C562.381 33.1187 563.11 32.8394 564.041 32.8394C564.331 32.8394 564.614 32.877 564.89 32.9521C565.165 33.0273 565.443 33.1437 565.722 33.3013V34.3379C565.461 34.1051 565.198 33.9368 564.933 33.833C564.671 33.7292 564.374 33.6772 564.041 33.6772C563.422 33.6772 562.945 33.8778 562.612 34.2788C562.279 34.6799 562.113 35.2528 562.113 35.9976C562.113 36.7388 562.279 37.3117 562.612 37.7163C562.949 38.1174 563.425 38.3179 564.041 38.3179C564.385 38.3179 564.693 38.266 564.965 38.1621C565.237 38.0547 565.489 37.89 565.722 37.668V38.6938Z" fill="white"/>
<path d="M22.082 85.2134C22.3613 85.285 22.5994 85.4211 22.7964 85.6216C22.9933 85.8185 23.2386 86.2142 23.5322 86.8086L24.6226 89H23.457L22.501 86.9751C22.2253 86.3986 21.9764 86.028 21.7544 85.8633C21.536 85.695 21.2495 85.6108 20.895 85.6108H19.8584V89H18.7681V80.981H21.0024C21.8833 80.981 22.5583 81.1797 23.0273 81.5771C23.4964 81.9746 23.731 82.5493 23.731 83.3013C23.731 83.8312 23.5859 84.2645 23.2959 84.6011C23.0094 84.9341 22.6048 85.1382 22.082 85.2134ZM19.8584 81.8726V84.7192H21.0454C21.5646 84.7192 21.9513 84.6029 22.2056 84.3701C22.4598 84.1374 22.5869 83.7811 22.5869 83.3013C22.5869 82.8394 22.4508 82.4867 22.1787 82.2432C21.9102 81.9961 21.5181 81.8726 21.0024 81.8726H19.8584ZM24.73 81.0078H26.2124L29.3491 87.5874V81.0078H30.5039V89H29.0215L25.8848 82.4204V89H24.73V81.0078ZM33.5977 88.1084C34.5107 88.1084 35.1481 87.8846 35.5098 87.437C35.8714 86.9858 36.0522 86.173 36.0522 84.9985C36.0522 83.8133 35.8714 82.9969 35.5098 82.5493C35.1517 82.0981 34.5143 81.8726 33.5977 81.8726H33.082V88.1084H33.5977ZM33.6191 80.981C34.8438 80.981 35.7461 81.3068 36.3262 81.9585C36.9062 82.6102 37.1963 83.6235 37.1963 84.9985C37.1963 86.3664 36.9062 87.3761 36.3262 88.0278C35.7461 88.6759 34.8438 89 33.6191 89H31.9917V80.981H33.6191ZM41.9658 85.2134C42.2451 85.285 42.4832 85.4211 42.6802 85.6216C42.8771 85.8185 43.1224 86.2142 43.416 86.8086L44.5063 89H43.3408L42.3848 86.9751C42.109 86.3986 41.8602 86.028 41.6382 85.8633C41.4198 85.695 41.1333 85.6108 40.7788 85.6108H39.7422V89H38.6519V80.981H40.8862C41.7671 80.981 42.4421 81.1797 42.9111 81.5771C43.3802 81.9746 43.6147 82.5493 43.6147 83.3013C43.6147 83.8312 43.4697 84.2645 43.1797 84.6011C42.8932 84.9341 42.4886 85.1382 41.9658 85.2134ZM39.7422 81.8726V84.7192H40.9292C41.4484 84.7192 41.8351 84.6029 42.0894 84.3701C42.3436 84.1374 42.4707 83.7811 42.4707 83.3013C42.4707 82.8394 42.3346 82.4867 42.0625 82.2432C41.7939 81.9961 41.4019 81.8726 40.8862 81.8726H39.7422ZM51.0859 90.0205V90.9336H44.5117V90.0205H51.0859ZM54.4375 81.2764V82.9844H56.6826V83.7524H54.4375V87.0181C54.4375 87.4621 54.5216 87.7718 54.6899 87.9473C54.8582 88.1227 55.1519 88.2104 55.5708 88.2104H56.6826V89H55.4741C54.7329 89 54.2101 88.8514 53.9058 88.5542C53.6014 88.257 53.4492 87.745 53.4492 87.0181V83.7524H51.8433V82.9844H53.4492V81.2764H54.4375ZM63.9712 84.2251C63.7599 84.0604 63.5451 83.9404 63.3267 83.8652C63.1082 83.79 62.8683 83.7524 62.6069 83.7524C61.991 83.7524 61.5202 83.9458 61.1943 84.3325C60.8685 84.7192 60.7056 85.2778 60.7056 86.0083V89H59.7119V82.9844H60.7056V84.1606C60.8703 83.7345 61.1227 83.4087 61.4629 83.1831C61.8066 82.9539 62.2131 82.8394 62.6821 82.8394C62.9256 82.8394 63.153 82.8698 63.3643 82.9307C63.5755 82.9915 63.7778 83.0864 63.9712 83.2153V84.2251ZM68.166 85.9761H67.8384C67.2619 85.9761 66.8268 86.0781 66.5332 86.2822C66.2432 86.4827 66.0981 86.7835 66.0981 87.1846C66.0981 87.5462 66.2074 87.8273 66.4258 88.0278C66.6442 88.2284 66.9468 88.3286 67.3335 88.3286C67.8778 88.3286 68.3057 88.1406 68.6172 87.7646C68.9287 87.3851 69.0863 86.8623 69.0898 86.1963V85.9761H68.166ZM70.0835 85.5679V89H69.0898V88.1084C68.8786 88.4665 68.6118 88.7314 68.2896 88.9033C67.9709 89.0716 67.5824 89.1558 67.124 89.1558C66.5117 89.1558 66.0229 88.9839 65.6577 88.6401C65.2925 88.2928 65.1099 87.8291 65.1099 87.249C65.1099 86.5794 65.3337 86.071 65.7812 85.7236C66.2324 85.3763 66.8931 85.2026 67.7632 85.2026H69.0898V85.0469C69.0863 84.5671 68.9645 84.2197 68.7246 84.0049C68.4847 83.7865 68.1016 83.6772 67.5752 83.6772C67.2386 83.6772 66.8984 83.7256 66.5547 83.8223C66.2109 83.9189 65.8761 84.0604 65.5503 84.2466V83.2583C65.9155 83.1187 66.2646 83.0148 66.5977 82.9468C66.9342 82.8752 67.2601 82.8394 67.5752 82.8394C68.0729 82.8394 68.4972 82.9128 68.8481 83.0596C69.2026 83.2064 69.4891 83.4266 69.7075 83.7202C69.8436 83.8993 69.9403 84.1213 69.9976 84.3862C70.0549 84.6476 70.0835 85.0415 70.0835 85.5679ZM73.0376 88.2427V91.2881H72.0439V82.9844H73.0376V83.7524C73.2023 83.4552 73.4207 83.2297 73.6929 83.0757C73.9686 82.9181 74.2855 82.8394 74.6436 82.8394C75.3704 82.8394 75.9398 83.1204 76.3516 83.6826C76.7669 84.2448 76.9746 85.0236 76.9746 86.019C76.9746 86.9966 76.7669 87.7646 76.3516 88.3232C75.9362 88.8783 75.3669 89.1558 74.6436 89.1558C74.2783 89.1558 73.9578 89.0788 73.6821 88.9248C73.41 88.7673 73.1951 88.5399 73.0376 88.2427ZM75.938 85.9976C75.938 85.2313 75.8162 84.653 75.5728 84.2627C75.3328 83.8724 74.9748 83.6772 74.4985 83.6772C74.0187 83.6772 73.6553 83.8742 73.4082 84.2681C73.1611 84.6584 73.0376 85.2349 73.0376 85.9976C73.0376 86.7567 73.1611 87.3332 73.4082 87.7271C73.6553 88.1209 74.0187 88.3179 74.4985 88.3179C74.9748 88.3179 75.3328 88.1227 75.5728 87.7324C75.8162 87.3421 75.938 86.7638 75.938 85.9976Z" fill="white"/>
<path d="M227.193 81.0078H228.644L230.029 85.0791L231.426 81.0078H232.881V89H231.877V81.937L230.448 86.1479H229.626L228.192 81.937V89H227.193V81.0078ZM235.771 81.8726V84.8857H237.028C237.529 84.8857 237.919 84.7533 238.199 84.4883C238.482 84.2233 238.623 83.8527 238.623 83.3765C238.623 82.9002 238.483 82.5314 238.204 82.27C237.925 82.005 237.533 81.8726 237.028 81.8726H235.771ZM234.686 80.981H237.028C237.923 80.981 238.602 81.1851 239.063 81.5933C239.525 81.9979 239.756 82.5923 239.756 83.3765C239.756 84.1678 239.525 84.7658 239.063 85.1704C238.605 85.575 237.927 85.7773 237.028 85.7773H235.771V89H234.686V80.981ZM243.564 81.937L242.42 86.0405H244.708L243.564 81.937ZM242.909 80.981H244.225L246.68 89H245.557L244.966 86.9106H242.157L241.577 89H240.455L242.909 80.981ZM247.077 81.0078H248.527L249.913 85.0791L251.31 81.0078H252.765V89H251.761V81.937L250.332 86.1479H249.51L248.076 81.937V89H247.077V81.0078ZM260.086 90.0205V90.9336H253.512V90.0205H260.086ZM265.849 80.6426V81.4644H264.727C264.372 81.4644 264.125 81.5378 263.985 81.6846C263.849 81.8278 263.781 82.0838 263.781 82.4526V82.9844H265.849V83.7524H263.781V89H262.793V83.7524H261.187V82.9844H262.793V82.5654C262.793 81.9066 262.943 81.4214 263.244 81.1099C263.549 80.7983 264.021 80.6426 264.662 80.6426H265.849ZM272.971 84.2251C272.76 84.0604 272.545 83.9404 272.327 83.8652C272.108 83.79 271.868 83.7524 271.607 83.7524C270.991 83.7524 270.52 83.9458 270.194 84.3325C269.868 84.7192 269.706 85.2778 269.706 86.0083V89H268.712V82.9844H269.706V84.1606C269.87 83.7345 270.123 83.4087 270.463 83.1831C270.807 82.9539 271.213 82.8394 271.682 82.8394C271.926 82.8394 272.153 82.8698 272.364 82.9307C272.576 82.9915 272.778 83.0864 272.971 83.2153V84.2251ZM277.166 85.9761H276.838C276.262 85.9761 275.827 86.0781 275.533 86.2822C275.243 86.4827 275.098 86.7835 275.098 87.1846C275.098 87.5462 275.207 87.8273 275.426 88.0278C275.644 88.2284 275.947 88.3286 276.333 88.3286C276.878 88.3286 277.306 88.1406 277.617 87.7646C277.929 87.3851 278.086 86.8623 278.09 86.1963V85.9761H277.166ZM279.083 85.5679V89H278.09V88.1084C277.879 88.4665 277.612 88.7314 277.29 88.9033C276.971 89.0716 276.582 89.1558 276.124 89.1558C275.512 89.1558 275.023 88.9839 274.658 88.6401C274.292 88.2928 274.11 87.8291 274.11 87.249C274.11 86.5794 274.334 86.071 274.781 85.7236C275.232 85.3763 275.893 85.2026 276.763 85.2026H278.09V85.0469C278.086 84.5671 277.965 84.2197 277.725 84.0049C277.485 83.7865 277.102 83.6772 276.575 83.6772C276.239 83.6772 275.898 83.7256 275.555 83.8223C275.211 83.9189 274.876 84.0604 274.55 84.2466V83.2583C274.916 83.1187 275.265 83.0148 275.598 82.9468C275.934 82.8752 276.26 82.8394 276.575 82.8394C277.073 82.8394 277.497 82.9128 277.848 83.0596C278.203 83.2064 278.489 83.4266 278.708 83.7202C278.844 83.8993 278.94 84.1213 278.998 84.3862C279.055 84.6476 279.083 85.0415 279.083 85.5679ZM285.722 88.6938C285.457 88.8478 285.183 88.9624 284.9 89.0376C284.621 89.1164 284.335 89.1558 284.041 89.1558C283.11 89.1558 282.381 88.8765 281.855 88.3179C281.332 87.7593 281.071 86.9858 281.071 85.9976C281.071 85.0093 281.332 84.2358 281.855 83.6772C282.381 83.1187 283.11 82.8394 284.041 82.8394C284.331 82.8394 284.614 82.877 284.89 82.9521C285.165 83.0273 285.443 83.1437 285.722 83.3013V84.3379C285.461 84.1051 285.198 83.9368 284.933 83.833C284.671 83.7292 284.374 83.6772 284.041 83.6772C283.422 83.6772 282.945 83.8778 282.612 84.2788C282.279 84.6799 282.113 85.2528 282.113 85.9976C282.113 86.7388 282.279 87.3117 282.612 87.7163C282.949 88.1174 283.425 88.3179 284.041 88.3179C284.385 88.3179 284.693 88.266 284.965 88.1621C285.237 88.0547 285.489 87.89 285.722 87.668V88.6938Z" fill="white"/>
<path d="M306.082 85.2134C306.361 85.285 306.599 85.4211 306.796 85.6216C306.993 85.8185 307.239 86.2142 307.532 86.8086L308.623 89H307.457L306.501 86.9751C306.225 86.3986 305.976 86.028 305.754 85.8633C305.536 85.695 305.25 85.6108 304.895 85.6108H303.858V89H302.768V80.981H305.002C305.883 80.981 306.558 81.1797 307.027 81.5771C307.496 81.9746 307.731 82.5493 307.731 83.3013C307.731 83.8312 307.586 84.2645 307.296 84.6011C307.009 84.9341 306.605 85.1382 306.082 85.2134ZM303.858 81.8726V84.7192H305.045C305.565 84.7192 305.951 84.6029 306.206 84.3701C306.46 84.1374 306.587 83.7811 306.587 83.3013C306.587 82.8394 306.451 82.4867 306.179 82.2432C305.91 81.9961 305.518 81.8726 305.002 81.8726H303.858ZM311.937 81.937L310.792 86.0405H313.081L311.937 81.937ZM311.281 80.981H312.597L315.052 89H313.929L313.338 86.9106H310.529L309.949 89H308.827L311.281 80.981ZM320.691 81.2549V82.356C320.362 82.1447 320.031 81.9854 319.698 81.8779C319.368 81.7705 319.035 81.7168 318.699 81.7168C318.187 81.7168 317.782 81.8368 317.485 82.0767C317.188 82.313 317.039 82.6335 317.039 83.0381C317.039 83.3926 317.136 83.6629 317.329 83.8491C317.526 84.0353 317.891 84.1911 318.425 84.3164L318.994 84.4453C319.746 84.6208 320.294 84.8965 320.638 85.2725C320.981 85.6484 321.153 86.1605 321.153 86.8086C321.153 87.5713 320.917 88.1532 320.444 88.5542C319.972 88.9552 319.284 89.1558 318.382 89.1558C318.006 89.1558 317.628 89.1146 317.249 89.0322C316.869 88.9535 316.488 88.8335 316.104 88.6724V87.5176C316.516 87.779 316.905 87.9705 317.27 88.0923C317.639 88.214 318.009 88.2749 318.382 88.2749C318.93 88.2749 319.356 88.1532 319.66 87.9097C319.965 87.6626 320.117 87.3188 320.117 86.8784C320.117 86.4774 320.011 86.1712 319.8 85.96C319.592 85.7487 319.229 85.5858 318.709 85.4712L318.129 85.3369C317.385 85.1686 316.844 84.9144 316.507 84.5742C316.171 84.234 316.002 83.7775 316.002 83.2046C316.002 82.4884 316.242 81.9155 316.722 81.4858C317.206 81.0526 317.847 80.8359 318.645 80.8359C318.953 80.8359 319.277 80.8717 319.617 80.9434C319.957 81.0114 320.315 81.1152 320.691 81.2549ZM328.458 90.0205V90.9336H321.884V90.0205H328.458ZM334.221 80.6426V81.4644H333.099C332.744 81.4644 332.497 81.5378 332.357 81.6846C332.221 81.8278 332.153 82.0838 332.153 82.4526V82.9844H334.221V83.7524H332.153V89H331.165V83.7524H329.559V82.9844H331.165V82.5654C331.165 81.9066 331.315 81.4214 331.616 81.1099C331.921 80.7983 332.393 80.6426 333.034 80.6426H334.221ZM341.343 84.2251C341.132 84.0604 340.917 83.9404 340.699 83.8652C340.48 83.79 340.24 83.7524 339.979 83.7524C339.363 83.7524 338.892 83.9458 338.566 84.3325C338.241 84.7192 338.078 85.2778 338.078 86.0083V89H337.084V82.9844H338.078V84.1606C338.242 83.7345 338.495 83.4087 338.835 83.1831C339.179 82.9539 339.585 82.8394 340.054 82.8394C340.298 82.8394 340.525 82.8698 340.736 82.9307C340.948 82.9915 341.15 83.0864 341.343 83.2153V84.2251ZM345.538 85.9761H345.21C344.634 85.9761 344.199 86.0781 343.905 86.2822C343.615 86.4827 343.47 86.7835 343.47 87.1846C343.47 87.5462 343.579 87.8273 343.798 88.0278C344.016 88.2284 344.319 88.3286 344.706 88.3286C345.25 88.3286 345.678 88.1406 345.989 87.7646C346.301 87.3851 346.458 86.8623 346.462 86.1963V85.9761H345.538ZM347.456 85.5679V89H346.462V88.1084C346.251 88.4665 345.984 88.7314 345.662 88.9033C345.343 89.0716 344.954 89.1558 344.496 89.1558C343.884 89.1558 343.395 88.9839 343.03 88.6401C342.665 88.2928 342.482 87.8291 342.482 87.249C342.482 86.5794 342.706 86.071 343.153 85.7236C343.604 85.3763 344.265 85.2026 345.135 85.2026H346.462V85.0469C346.458 84.5671 346.337 84.2197 346.097 84.0049C345.857 83.7865 345.474 83.6772 344.947 83.6772C344.611 83.6772 344.271 83.7256 343.927 83.8223C343.583 83.9189 343.248 84.0604 342.922 84.2466V83.2583C343.288 83.1187 343.637 83.0148 343.97 82.9468C344.306 82.8752 344.632 82.8394 344.947 82.8394C345.445 82.8394 345.869 82.9128 346.22 83.0596C346.575 83.2064 346.861 83.4266 347.08 83.7202C347.216 83.8993 347.312 84.1213 347.37 84.3862C347.427 84.6476 347.456 85.0415 347.456 85.5679ZM354.094 88.6938C353.829 88.8478 353.555 88.9624 353.272 89.0376C352.993 89.1164 352.707 89.1558 352.413 89.1558C351.482 89.1558 350.753 88.8765 350.227 88.3179C349.704 87.7593 349.443 86.9858 349.443 85.9976C349.443 85.0093 349.704 84.2358 350.227 83.6772C350.753 83.1187 351.482 82.8394 352.413 82.8394C352.703 82.8394 352.986 82.877 353.262 82.9521C353.537 83.0273 353.815 83.1437 354.094 83.3013V84.3379C353.833 84.1051 353.57 83.9368 353.305 83.833C353.043 83.7292 352.746 83.6772 352.413 83.6772C351.794 83.6772 351.317 83.8778 350.984 84.2788C350.651 84.6799 350.485 85.2528 350.485 85.9976C350.485 86.7388 350.651 87.3117 350.984 87.7163C351.321 88.1174 351.797 88.3179 352.413 88.3179C352.757 88.3179 353.065 88.266 353.337 88.1621C353.609 88.0547 353.861 87.89 354.094 87.668V88.6938Z" fill="white"/>
<path d="M177.453 84.8691C177.758 84.9473 178.018 85.0957 178.232 85.3145C178.447 85.5293 178.715 85.9609 179.035 86.6094L180.225 89H178.953L177.91 86.791C177.609 86.1621 177.338 85.7578 177.096 85.5781C176.857 85.3945 176.545 85.3027 176.158 85.3027H175.027V89H173.838V80.252H176.275C177.236 80.252 177.973 80.4688 178.484 80.9023C178.996 81.3359 179.252 81.9629 179.252 82.7832C179.252 83.3613 179.094 83.834 178.777 84.2012C178.465 84.5645 178.023 84.7871 177.453 84.8691ZM175.027 81.2246V84.3301H176.322C176.889 84.3301 177.311 84.2031 177.588 83.9492C177.865 83.6953 178.004 83.3066 178.004 82.7832C178.004 82.2793 177.855 81.8945 177.559 81.6289C177.266 81.3594 176.838 81.2246 176.275 81.2246H175.027ZM181.385 80.252H186.576V81.248H182.568V83.6035H186.4V84.5996H182.568V88.0039H186.688V89H181.385V80.252ZM193.391 80.5508V81.752C193.031 81.5215 192.67 81.3477 192.307 81.2305C191.947 81.1133 191.584 81.0547 191.217 81.0547C190.658 81.0547 190.217 81.1855 189.893 81.4473C189.568 81.7051 189.406 82.0547 189.406 82.4961C189.406 82.8828 189.512 83.1777 189.723 83.3809C189.938 83.584 190.336 83.7539 190.918 83.8906L191.539 84.0312C192.359 84.2227 192.957 84.5234 193.332 84.9336C193.707 85.3438 193.895 85.9023 193.895 86.6094C193.895 87.4414 193.637 88.0762 193.121 88.5137C192.605 88.9512 191.855 89.1699 190.871 89.1699C190.461 89.1699 190.049 89.125 189.635 89.0352C189.221 88.9492 188.805 88.8184 188.387 88.6426V87.3828C188.836 87.668 189.26 87.877 189.658 88.0098C190.061 88.1426 190.465 88.209 190.871 88.209C191.469 88.209 191.934 88.0762 192.266 87.8105C192.598 87.541 192.764 87.166 192.764 86.6855C192.764 86.248 192.648 85.9141 192.418 85.6836C192.191 85.4531 191.795 85.2754 191.229 85.1504L190.596 85.0039C189.783 84.8203 189.193 84.543 188.826 84.1719C188.459 83.8008 188.275 83.3027 188.275 82.6777C188.275 81.8965 188.537 81.2715 189.061 80.8027C189.588 80.3301 190.287 80.0938 191.158 80.0938C191.494 80.0938 191.848 80.1328 192.219 80.2109C192.59 80.2852 192.98 80.3984 193.391 80.5508ZM198.301 80.123C199.234 80.123 199.939 80.5039 200.416 81.2656C200.896 82.0273 201.137 83.1543 201.137 84.6465C201.137 86.1387 200.896 87.2656 200.416 88.0273C199.939 88.7891 199.234 89.1699 198.301 89.1699C197.367 89.1699 196.662 88.7891 196.186 88.0273C195.709 87.2656 195.471 86.1387 195.471 84.6465C195.471 83.1543 195.709 82.0273 196.186 81.2656C196.662 80.5039 197.367 80.123 198.301 80.123ZM198.301 88.2324C198.855 88.2324 199.268 87.9375 199.537 87.3477C199.811 86.7578 199.947 85.8574 199.947 84.6465C199.947 84.002 199.908 83.4199 199.83 82.9004L197.041 87.2656C197.334 87.9102 197.754 88.2324 198.301 88.2324ZM198.301 81.0605C197.75 81.0605 197.338 81.3555 197.064 81.9453C196.795 82.5352 196.66 83.4355 196.66 84.6465C196.66 85.1973 196.697 85.7129 196.771 86.1934L199.502 81.8398C199.205 81.3203 198.805 81.0605 198.301 81.0605Z" fill="black"/>
<path d="M386.211 80.2812H387.793L389.305 84.7227L390.828 80.2812H392.416V89H391.32V81.2949L389.762 85.8887H388.865L387.301 81.2949V89H386.211V80.2812ZM393.506 80.252H400.18V81.248H397.443V89H396.254V81.248H393.506V80.252ZM401.615 80.252H406.807V81.248H402.799V83.6035H406.631V84.5996H402.799V88.0039H406.918V89H401.615V80.252Z" fill="black"/>
<path d="M370.193 31.0078H371.644L373.029 35.0791L374.426 31.0078H375.881V39H374.877V31.937L373.448 36.1479H372.626L371.192 31.937V39H370.193V31.0078ZM376.88 30.981H382.998V31.894H380.49V39H379.399V31.894H376.88V30.981ZM384.314 30.981H389.073V31.894H385.399V34.0532H388.912V34.9663H385.399V38.0869H389.175V39H384.314V30.981ZM396.458 40.0205V40.9336H389.884V40.0205H396.458ZM402.221 30.6426V31.4644H401.099C400.744 31.4644 400.497 31.5378 400.357 31.6846C400.221 31.8278 400.153 32.0838 400.153 32.4526V32.9844H402.221V33.7524H400.153V39H399.165V33.7524H397.559V32.9844H399.165V32.5654C399.165 31.9066 399.315 31.4214 399.616 31.1099C399.921 30.7983 400.393 30.6426 401.034 30.6426H402.221ZM409.343 34.2251C409.132 34.0604 408.917 33.9404 408.699 33.8652C408.48 33.79 408.24 33.7524 407.979 33.7524C407.363 33.7524 406.892 33.9458 406.566 34.3325C406.241 34.7192 406.078 35.2778 406.078 36.0083V39H405.084V32.9844H406.078V34.1606C406.242 33.7345 406.495 33.4087 406.835 33.1831C407.179 32.9539 407.585 32.8394 408.054 32.8394C408.298 32.8394 408.525 32.8698 408.736 32.9307C408.948 32.9915 409.15 33.0864 409.343 33.2153V34.2251ZM413.538 35.9761H413.21C412.634 35.9761 412.199 36.0781 411.905 36.2822C411.615 36.4827 411.47 36.7835 411.47 37.1846C411.47 37.5462 411.579 37.8273 411.798 38.0278C412.016 38.2284 412.319 38.3286 412.706 38.3286C413.25 38.3286 413.678 38.1406 413.989 37.7646C414.301 37.3851 414.458 36.8623 414.462 36.1963V35.9761H413.538ZM415.456 35.5679V39H414.462V38.1084C414.251 38.4665 413.984 38.7314 413.662 38.9033C413.343 39.0716 412.954 39.1558 412.496 39.1558C411.884 39.1558 411.395 38.9839 411.03 38.6401C410.665 38.2928 410.482 37.8291 410.482 37.249C410.482 36.5794 410.706 36.071 411.153 35.7236C411.604 35.3763 412.265 35.2026 413.135 35.2026H414.462V35.0469C414.458 34.5671 414.337 34.2197 414.097 34.0049C413.857 33.7865 413.474 33.6772 412.947 33.6772C412.611 33.6772 412.271 33.7256 411.927 33.8223C411.583 33.9189 411.248 34.0604 410.922 34.2466V33.2583C411.288 33.1187 411.637 33.0148 411.97 32.9468C412.306 32.8752 412.632 32.8394 412.947 32.8394C413.445 32.8394 413.869 32.9128 414.22 33.0596C414.575 33.2064 414.861 33.4266 415.08 33.7202C415.216 33.8993 415.312 34.1213 415.37 34.3862C415.427 34.6476 415.456 35.0415 415.456 35.5679ZM422.094 38.6938C421.829 38.8478 421.555 38.9624 421.272 39.0376C420.993 39.1164 420.707 39.1558 420.413 39.1558C419.482 39.1558 418.753 38.8765 418.227 38.3179C417.704 37.7593 417.443 36.9858 417.443 35.9976C417.443 35.0093 417.704 34.2358 418.227 33.6772C418.753 33.1187 419.482 32.8394 420.413 32.8394C420.703 32.8394 420.986 32.877 421.262 32.9521C421.537 33.0273 421.815 33.1437 422.094 33.3013V34.3379C421.833 34.1051 421.57 33.9368 421.305 33.833C421.043 33.7292 420.746 33.6772 420.413 33.6772C419.794 33.6772 419.317 33.8778 418.984 34.2788C418.651 34.6799 418.485 35.2528 418.485 35.9976C418.485 36.7388 418.651 37.3117 418.984 37.7163C419.321 38.1174 419.797 38.3179 420.413 38.3179C420.757 38.3179 421.065 38.266 421.337 38.1621C421.609 38.0547 421.861 37.89 422.094 37.668V38.6938Z" fill="black"/>
</svg>
