<svg width="699" height="149" viewBox="0 0 699 149" fill="none" xmlns="http://www.w3.org/2000/svg">
<rect width="699" height="149" fill="#1B1B1B"/>
<path d="M160.5 41.5V110.5H17.5V41.5H160.5Z" fill="#1B1B1B" stroke="white"/>
<path d="M332.5 41.5V110.5H189.5V41.5H332.5Z" fill="#1B1B1B" stroke="white"/>
<path d="M504.5 41.5V109.5H361.5V41.5H504.5Z" fill="#1B1B1B" stroke="white"/>
<path d="M60.4609 61.3018C59.7627 61.9408 58.8698 62.2603 57.7822 62.2603C56.4365 62.2603 55.3786 61.8286 54.6084 60.9653C53.8382 60.0978 53.4531 58.9087 53.4531 57.3979C53.4531 55.7645 53.8911 54.5055 54.7671 53.6211C55.5288 52.8509 56.4979 52.4658 57.6743 52.4658C59.2485 52.4658 60.3996 52.9821 61.1274 54.0146C61.5295 54.5944 61.7453 55.1763 61.7749 55.7603H59.8198C59.6929 55.3117 59.5299 54.9731 59.3311 54.7446C58.9756 54.3384 58.4487 54.1353 57.7505 54.1353C57.0396 54.1353 56.4788 54.423 56.0684 54.9985C55.6579 55.5698 55.4526 56.3802 55.4526 57.4297C55.4526 58.4792 55.6685 59.2663 56.1001 59.791C56.536 60.3115 57.0882 60.5718 57.7568 60.5718C58.4424 60.5718 58.965 60.3475 59.3247 59.8989C59.5236 59.6577 59.6886 59.2959 59.8198 58.8135H61.7559C61.5866 59.8333 61.1549 60.6628 60.4609 61.3018ZM67.2275 58.6357H65.2407V62H63.2983V52.6436H67.3735C68.313 52.6436 69.062 52.8848 69.6206 53.3672C70.1792 53.8496 70.4585 54.5965 70.4585 55.6079C70.4585 56.7124 70.1792 57.4932 69.6206 57.9502C69.062 58.4072 68.2643 58.6357 67.2275 58.6357ZM68.1416 56.687C68.3955 56.4627 68.5225 56.1073 68.5225 55.6206C68.5225 55.134 68.3934 54.7869 68.1353 54.5796C67.8813 54.3722 67.5238 54.2686 67.0625 54.2686H65.2407V57.0234H67.0625C67.5238 57.0234 67.8835 56.9113 68.1416 56.687ZM77.46 58.3945V52.6436H79.4468V58.3945C79.4468 59.389 79.2923 60.1634 78.9834 60.7178C78.4079 61.7334 77.3097 62.2412 75.689 62.2412C74.0682 62.2412 72.9679 61.7334 72.3882 60.7178C72.0793 60.1634 71.9248 59.389 71.9248 58.3945V52.6436H73.9116V58.3945C73.9116 59.0378 73.9878 59.5075 74.1401 59.8037C74.3771 60.3285 74.8934 60.5908 75.689 60.5908C76.4803 60.5908 76.9945 60.3285 77.2314 59.8037C77.3838 59.5075 77.46 59.0378 77.46 58.3945ZM91.5391 61.3018C90.8408 61.9408 89.9479 62.2603 88.8604 62.2603C87.5146 62.2603 86.4567 61.8286 85.6865 60.9653C84.9163 60.0978 84.5312 58.9087 84.5312 57.3979C84.5312 55.7645 84.9692 54.5055 85.8452 53.6211C86.6069 52.8509 87.576 52.4658 88.7524 52.4658C90.3267 52.4658 91.4777 52.9821 92.2056 54.0146C92.6076 54.5944 92.8234 55.1763 92.853 55.7603H90.8979C90.771 55.3117 90.6081 54.9731 90.4092 54.7446C90.0537 54.3384 89.5269 54.1353 88.8286 54.1353C88.1177 54.1353 87.557 54.423 87.1465 54.9985C86.736 55.5698 86.5308 56.3802 86.5308 57.4297C86.5308 58.4792 86.7466 59.2663 87.1782 59.791C87.6141 60.3115 88.1663 60.5718 88.835 60.5718C89.5205 60.5718 90.0431 60.3475 90.4028 59.8989C90.6017 59.6577 90.7668 59.2959 90.8979 58.8135H92.834C92.6647 59.8333 92.2331 60.6628 91.5391 61.3018ZM99.9561 55.957C100.54 56.6891 100.832 57.5545 100.832 58.5532C100.832 59.5688 100.54 60.4385 99.9561 61.1621C99.3721 61.8815 98.4855 62.2412 97.2964 62.2412C96.1073 62.2412 95.2207 61.8815 94.6367 61.1621C94.0527 60.4385 93.7607 59.5688 93.7607 58.5532C93.7607 57.5545 94.0527 56.6891 94.6367 55.957C95.2207 55.2249 96.1073 54.8589 97.2964 54.8589C98.4855 54.8589 99.3721 55.2249 99.9561 55.957ZM97.29 56.3887C96.7611 56.3887 96.3527 56.577 96.0649 56.9536C95.7814 57.326 95.6396 57.8592 95.6396 58.5532C95.6396 59.2472 95.7814 59.7826 96.0649 60.1592C96.3527 60.5358 96.7611 60.7241 97.29 60.7241C97.819 60.7241 98.2253 60.5358 98.5088 60.1592C98.7923 59.7826 98.9341 59.2472 98.9341 58.5532C98.9341 57.8592 98.7923 57.326 98.5088 56.9536C98.2253 56.577 97.819 56.3887 97.29 56.3887ZM105.39 56.4204C104.776 56.4204 104.355 56.6807 104.126 57.2012C104.008 57.4762 103.949 57.8275 103.949 58.2549V62H102.146V55.0938H103.892V56.103C104.124 55.7476 104.344 55.4915 104.552 55.335C104.924 55.0557 105.396 54.916 105.967 54.916C106.682 54.916 107.266 55.1043 107.719 55.481C108.176 55.8534 108.405 56.4733 108.405 57.3408V62H106.551V57.7915C106.551 57.4276 106.503 57.1483 106.405 56.9536C106.228 56.5981 105.889 56.4204 105.39 56.4204ZM112.226 62H110.423V56.4204H109.414V55.1445H110.404V54.7002C110.404 53.9639 110.567 53.4159 110.893 53.0562C111.185 52.7176 111.78 52.5483 112.677 52.5483C112.787 52.5483 112.899 52.5526 113.013 52.561C113.127 52.5695 113.246 52.578 113.369 52.5864V54.0591C113.284 54.0549 113.201 54.0527 113.121 54.0527C113.041 54.0485 112.943 54.0464 112.829 54.0464C112.546 54.0464 112.372 54.1247 112.309 54.2812C112.245 54.4378 112.218 54.6833 112.226 55.0176V55.1445H113.413V56.4204H112.226V62ZM116.289 55.1128V62H114.486V55.1128H116.289ZM114.486 54.2368V52.5864H116.257V54.2368H114.486ZM119.983 63.2124C120.178 63.3774 120.506 63.46 120.967 63.46C121.618 63.46 122.054 63.242 122.274 62.8062C122.418 62.5269 122.49 62.0571 122.49 61.397V60.9526C122.317 61.2489 122.131 61.471 121.932 61.6191C121.572 61.8942 121.104 62.0317 120.529 62.0317C119.64 62.0317 118.929 61.7207 118.396 61.0986C117.867 60.4723 117.603 59.626 117.603 58.5596C117.603 57.5312 117.859 56.668 118.371 55.9697C118.883 55.2673 119.608 54.916 120.548 54.916C120.895 54.916 121.197 54.9689 121.456 55.0747C121.896 55.2567 122.251 55.591 122.522 56.0776V55.0811H124.28V61.6445C124.28 62.5374 124.13 63.2103 123.83 63.6631C123.313 64.4417 122.323 64.8311 120.859 64.8311C119.974 64.8311 119.253 64.6576 118.694 64.3105C118.136 63.9635 117.827 63.4451 117.768 62.7554H119.735C119.786 62.967 119.869 63.1193 119.983 63.2124ZM119.678 59.6387C119.924 60.2227 120.364 60.5146 120.999 60.5146C121.422 60.5146 121.779 60.356 122.071 60.0386C122.363 59.717 122.509 59.207 122.509 58.5088C122.509 57.8529 122.37 57.3535 122.09 57.0107C121.815 56.668 121.445 56.4966 120.979 56.4966C120.345 56.4966 119.907 56.7949 119.666 57.3916C119.539 57.709 119.475 58.1004 119.475 58.5659C119.475 58.9679 119.543 59.3255 119.678 59.6387ZM33.7563 81L37.3809 71.3579H38.8853L35.248 81H33.7563ZM45.6138 73.2368L44.7314 77.1152H46.5024L45.6138 73.2368ZM44.4712 71.5229H46.7627L49.3208 81H47.4482L46.8643 78.6577H44.3569L43.7856 81H41.9131L44.4712 71.5229ZM56.8428 75.8521C56.6396 75.6659 56.4006 75.5262 56.1255 75.4331C55.8547 75.34 55.5563 75.2935 55.2305 75.2935C54.8369 75.2935 54.492 75.3633 54.1958 75.5029C53.9038 75.6383 53.6774 75.8372 53.5166 76.0996C53.415 76.2604 53.3431 76.4551 53.3008 76.6836C53.2627 76.9121 53.2437 77.2591 53.2437 77.7246V81H51.3838V73.8906H53.2437V74.9951C53.4256 74.5889 53.7049 74.2757 54.0815 74.0557C54.4582 73.8314 54.8983 73.7192 55.4019 73.7192C55.6558 73.7192 55.9033 73.751 56.1445 73.8145C56.39 73.8737 56.6227 73.9626 56.8428 74.0811V75.8521ZM61.7495 74.6016C61.8892 74.3011 62.0669 74.0789 62.2827 73.9351C62.4985 73.7912 62.763 73.7192 63.0762 73.7192C63.6898 73.7192 64.113 73.9308 64.3457 74.354C64.5827 74.7772 64.7012 75.6574 64.7012 76.9946V81H63.1777V76.436C63.1777 75.9071 63.1375 75.5537 63.0571 75.376C62.9767 75.1982 62.8307 75.1094 62.6191 75.1094C62.4076 75.1094 62.2594 75.2004 62.1748 75.3823C62.0902 75.5643 62.0479 75.9155 62.0479 76.436V81H60.5435V76.436C60.5435 75.9155 60.5011 75.5643 60.4165 75.3823C60.3319 75.2004 60.1838 75.1094 59.9722 75.1094C59.7606 75.1094 59.6146 75.1982 59.5342 75.376C59.4538 75.5537 59.4136 75.9071 59.4136 76.436V81H57.8901V73.8906H59.2422V74.627C59.348 74.3477 59.5173 74.1276 59.75 73.9668C59.9827 73.8018 60.243 73.7192 60.5308 73.7192C60.8185 73.7192 61.0809 73.806 61.3179 73.9795C61.5549 74.1488 61.6987 74.3561 61.7495 74.6016ZM72.1724 81H66.269V71.5229H72.1724V73.1733H68.1416V75.2173H71.7915V76.8677H68.1416V79.3496H72.1724V81ZM80.3037 73.8906L77.9106 77.293L80.5132 81H78.3423L76.9458 78.6069L75.5557 81H73.3848L76.0127 77.293L73.5942 73.8906H75.7651L76.9458 76.0107L78.1328 73.8906H80.3037ZM85.2485 71.8721V73.8906H87.6797V75.3188H85.2485V78.6831C85.2485 79.0005 85.3247 79.229 85.4771 79.3687C85.6336 79.5041 85.8918 79.5718 86.2515 79.5718H87.6797V81H86.1182C85.0518 81 84.3302 80.8307 83.9536 80.4922C83.577 80.1494 83.3887 79.5168 83.3887 78.5942V75.3188H81.5732V73.8906H83.3887V71.8721H85.2485ZM95.6968 80.6509C95.2651 80.8286 94.825 80.9619 94.3765 81.0508C93.9279 81.1396 93.4539 81.1841 92.9546 81.1841C91.7655 81.1841 90.8556 80.8667 90.2251 80.2319C89.5988 79.5929 89.2856 78.6746 89.2856 77.4771C89.2856 76.3175 89.5882 75.4014 90.1934 74.7285C90.7985 74.0557 91.6237 73.7192 92.6689 73.7192C93.7227 73.7192 94.5394 74.0324 95.1191 74.6587C95.7031 75.2808 95.9951 76.1589 95.9951 77.293V78.0483H91.1772C91.1815 78.6069 91.3465 79.0238 91.6724 79.2988C91.9982 79.5739 92.4849 79.7114 93.1323 79.7114C93.5597 79.7114 93.9808 79.6501 94.3955 79.5273C94.8102 79.4046 95.244 79.21 95.6968 78.9434V80.6509ZM94.1226 76.6519C94.1141 76.161 93.9871 75.7907 93.7417 75.541C93.5005 75.2871 93.1429 75.1602 92.6689 75.1602C92.2415 75.1602 91.9009 75.2913 91.647 75.5537C91.3931 75.8118 91.2428 76.18 91.1963 76.6582L94.1226 76.6519ZM103.333 76.3853V81H101.486V76.6709C101.486 76.1546 101.412 75.7865 101.264 75.5664C101.12 75.3421 100.883 75.23 100.553 75.23C100.218 75.23 99.9539 75.3802 99.7593 75.6807C99.5688 75.9811 99.4736 76.3979 99.4736 76.9312V81H97.6265V73.8906H99.4736V74.957C99.6048 74.5635 99.8291 74.2588 100.146 74.043C100.464 73.8271 100.847 73.7192 101.295 73.7192C101.968 73.7192 102.476 73.9435 102.819 74.3921C103.162 74.8364 103.333 75.5008 103.333 76.3853ZM110.658 74.1128V75.7378C110.315 75.5177 109.958 75.3527 109.585 75.2427C109.217 75.1284 108.847 75.0713 108.475 75.0713C108.06 75.0713 107.747 75.1326 107.535 75.2554C107.324 75.3739 107.218 75.5516 107.218 75.7886C107.218 76.1271 107.671 76.4022 108.576 76.6138L108.646 76.6328L109.179 76.7598C109.856 76.9206 110.351 77.1808 110.665 77.5405C110.982 77.896 111.141 78.3784 111.141 78.9878C111.141 79.7199 110.899 80.27 110.417 80.6382C109.939 81.0021 109.217 81.1841 108.252 81.1841C107.825 81.1841 107.387 81.146 106.938 81.0698C106.49 80.9979 106.035 80.8879 105.574 80.7397V79.1147C105.984 79.3475 106.401 79.5252 106.824 79.6479C107.252 79.7707 107.664 79.832 108.062 79.832C108.498 79.832 108.828 79.7686 109.052 79.6416C109.277 79.5146 109.389 79.3306 109.389 79.0894C109.389 78.8524 109.308 78.6704 109.147 78.5435C108.991 78.4165 108.614 78.2811 108.018 78.1372L107.503 78.0229C106.792 77.8621 106.274 77.6104 105.948 77.2676C105.622 76.9248 105.459 76.4657 105.459 75.8901C105.459 75.2046 105.707 74.6714 106.202 74.2905C106.697 73.9097 107.393 73.7192 108.291 73.7192C108.693 73.7192 109.092 73.7531 109.49 73.8208C109.892 73.8843 110.282 73.9816 110.658 74.1128ZM113.604 73.8906H117.285V79.5718H119.596V81H113.108V79.5718H115.425V75.3188H113.604V73.8906ZM115.425 70.4312H117.285V72.6021H115.425V70.4312ZM123.944 75.23C123.5 75.23 123.15 75.4268 122.896 75.8203C122.643 76.2096 122.516 76.7534 122.516 77.4517C122.516 78.1499 122.643 78.6958 122.896 79.0894C123.15 79.4787 123.5 79.6733 123.944 79.6733C124.392 79.6733 124.744 79.4787 124.998 79.0894C125.251 78.6958 125.378 78.1499 125.378 77.4517C125.378 76.7534 125.251 76.2096 124.998 75.8203C124.744 75.4268 124.392 75.23 123.944 75.23ZM120.656 77.4517C120.656 76.3049 120.952 75.3971 121.544 74.7285C122.141 74.0557 122.941 73.7192 123.944 73.7192C124.951 73.7192 125.751 74.0557 126.343 74.7285C126.94 75.3971 127.238 76.3049 127.238 77.4517C127.238 78.5985 126.94 79.5083 126.343 80.1812C125.751 80.8498 124.951 81.1841 123.944 81.1841C122.941 81.1841 122.141 80.8498 121.544 80.1812C120.952 79.5083 120.656 78.5985 120.656 77.4517ZM134.665 76.3853V81H132.818V76.6709C132.818 76.1546 132.744 75.7865 132.596 75.5664C132.452 75.3421 132.215 75.23 131.885 75.23C131.55 75.23 131.286 75.3802 131.091 75.6807C130.901 75.9811 130.806 76.3979 130.806 76.9312V81H128.958V73.8906H130.806V74.957C130.937 74.5635 131.161 74.2588 131.479 74.043C131.796 73.8271 132.179 73.7192 132.627 73.7192C133.3 73.7192 133.808 73.9435 134.151 74.3921C134.494 74.8364 134.665 75.5008 134.665 76.3853ZM141.99 74.1128V75.7378C141.647 75.5177 141.29 75.3527 140.917 75.2427C140.549 75.1284 140.179 75.0713 139.807 75.0713C139.392 75.0713 139.079 75.1326 138.867 75.2554C138.656 75.3739 138.55 75.5516 138.55 75.7886C138.55 76.1271 139.003 76.4022 139.908 76.6138L139.978 76.6328L140.511 76.7598C141.188 76.9206 141.683 77.1808 141.997 77.5405C142.314 77.896 142.473 78.3784 142.473 78.9878C142.473 79.7199 142.231 80.27 141.749 80.6382C141.271 81.0021 140.549 81.1841 139.584 81.1841C139.157 81.1841 138.719 81.146 138.271 81.0698C137.822 80.9979 137.367 80.8879 136.906 80.7397V79.1147C137.316 79.3475 137.733 79.5252 138.156 79.6479C138.584 79.7707 138.996 79.832 139.394 79.832C139.83 79.832 140.16 79.7686 140.384 79.6416C140.609 79.5146 140.721 79.3306 140.721 79.0894C140.721 78.8524 140.64 78.6704 140.479 78.5435C140.323 78.4165 139.946 78.2811 139.35 78.1372L138.835 78.0229C138.125 77.8621 137.606 77.6104 137.28 77.2676C136.954 76.9248 136.792 76.4657 136.792 75.8901C136.792 75.2046 137.039 74.6714 137.534 74.2905C138.029 73.9097 138.725 73.7192 139.623 73.7192C140.025 73.7192 140.424 73.7531 140.822 73.8208C141.224 73.8843 141.614 73.9816 141.99 74.1128ZM35.2036 102.622L34.7529 102.006C34.4609 101.633 34.1499 101.079 33.8198 100.343C33.2316 99.0267 32.9375 97.7318 32.9375 96.458C32.9375 95.2985 33.1851 94.1475 33.6802 93.0049C34.0145 92.2262 34.5033 91.3883 35.1465 90.4912H36.5112L36.124 91.2021C35.5908 92.1797 35.2205 93.2038 35.0132 94.2744C34.8778 94.9769 34.8101 95.7428 34.8101 96.5723C34.8101 97.8672 34.9984 99.0584 35.375 100.146C35.5951 100.789 35.9844 101.614 36.543 102.622H35.2036ZM43.8428 90.6562V100H42.0845V99.0415C41.8263 99.452 41.5322 99.7503 41.2021 99.9365C40.8721 100.123 40.4616 100.216 39.9707 100.216C39.1624 100.216 38.4811 99.89 37.9268 99.2383C37.3766 98.5824 37.1016 97.7424 37.1016 96.7183C37.1016 95.5376 37.3724 94.6087 37.9141 93.9316C38.46 93.2546 39.1878 92.916 40.0977 92.916C40.5166 92.916 40.889 93.0091 41.2148 93.1953C41.5407 93.3773 41.8052 93.6312 42.0083 93.957V90.6562H43.8428ZM38.9678 96.585C38.9678 97.224 39.0947 97.7339 39.3486 98.1147C39.5983 98.4998 39.9792 98.6924 40.4912 98.6924C41.0033 98.6924 41.3926 98.502 41.6592 98.1211C41.9258 97.7402 42.0591 97.2472 42.0591 96.6421C42.0591 95.7957 41.8454 95.1906 41.418 94.8267C41.1556 94.6066 40.8509 94.4966 40.5039 94.4966C39.9749 94.4966 39.5856 94.6976 39.3359 95.0996C39.0905 95.4974 38.9678 95.9925 38.9678 96.585ZM51.4155 97.9688C51.369 98.3792 51.1553 98.7961 50.7744 99.2192C50.182 99.8921 49.3525 100.229 48.2861 100.229C47.4059 100.229 46.6294 99.945 45.9565 99.3779C45.2837 98.8109 44.9473 97.8883 44.9473 96.6104C44.9473 95.4128 45.2498 94.4945 45.855 93.8555C46.4644 93.2165 47.2536 92.897 48.2227 92.897C48.7982 92.897 49.3166 93.0049 49.7778 93.2207C50.2391 93.4365 50.62 93.7772 50.9204 94.2427C51.1912 94.6532 51.3669 95.1292 51.4473 95.6709C51.4938 95.9883 51.5129 96.4453 51.5044 97.042H46.769C46.7944 97.736 47.0124 98.2227 47.4229 98.502C47.6725 98.6755 47.973 98.7622 48.3242 98.7622C48.6966 98.7622 48.9992 98.6564 49.2319 98.4448C49.3589 98.3306 49.471 98.1719 49.5684 97.9688H51.4155ZM49.6255 95.8486C49.5959 95.3704 49.4499 95.0086 49.1875 94.7632C48.9294 94.5135 48.6077 94.3887 48.2227 94.3887C47.8037 94.3887 47.4779 94.5199 47.2451 94.7822C47.0166 95.0446 46.8727 95.4001 46.8135 95.8486H49.6255ZM54.875 100H53.0723V94.4204H52.063V93.1445H53.0532V92.7002C53.0532 91.9639 53.2161 91.4159 53.542 91.0562C53.834 90.7176 54.4285 90.5483 55.3257 90.5483C55.4357 90.5483 55.5479 90.5526 55.6621 90.561C55.7764 90.5695 55.8949 90.578 56.0176 90.5864V92.0591C55.9329 92.0549 55.8504 92.0527 55.77 92.0527C55.6896 92.0485 55.5923 92.0464 55.478 92.0464C55.1945 92.0464 55.021 92.1247 54.9575 92.2812C54.894 92.4378 54.8665 92.6833 54.875 93.0176V93.1445H56.062V94.4204H54.875V100ZM58.9375 93.1128V100H57.1348V93.1128H58.9375ZM57.1348 92.2368V90.5864H58.9058V92.2368H57.1348ZM63.9331 94.4204C63.3195 94.4204 62.8984 94.6807 62.6699 95.2012C62.5514 95.4762 62.4922 95.8275 62.4922 96.2549V100H60.6895V93.0938H62.4351V94.103C62.6678 93.7476 62.8879 93.4915 63.0952 93.335C63.4676 93.0557 63.9395 92.916 64.5107 92.916C65.2259 92.916 65.8099 93.1043 66.2627 93.481C66.7197 93.8534 66.9482 94.4733 66.9482 95.3408V100H65.0947V95.7915C65.0947 95.4276 65.0461 95.1483 64.9487 94.9536C64.771 94.5981 64.4325 94.4204 63.9331 94.4204ZM74.5464 97.9688C74.4998 98.3792 74.2861 98.7961 73.9053 99.2192C73.3128 99.8921 72.4834 100.229 71.417 100.229C70.5368 100.229 69.7603 99.945 69.0874 99.3779C68.4146 98.8109 68.0781 97.8883 68.0781 96.6104C68.0781 95.4128 68.3807 94.4945 68.9858 93.8555C69.5952 93.2165 70.3844 92.897 71.3535 92.897C71.929 92.897 72.4474 93.0049 72.9087 93.2207C73.37 93.4365 73.7508 93.7772 74.0513 94.2427C74.3221 94.6532 74.4977 95.1292 74.5781 95.6709C74.6247 95.9883 74.6437 96.4453 74.6353 97.042H69.8999C69.9253 97.736 70.1432 98.2227 70.5537 98.502C70.8034 98.6755 71.1038 98.7622 71.4551 98.7622C71.8275 98.7622 72.13 98.6564 72.3628 98.4448C72.4897 98.3306 72.6019 98.1719 72.6992 97.9688H74.5464ZM72.7563 95.8486C72.7267 95.3704 72.5807 95.0086 72.3184 94.7632C72.0602 94.5135 71.7386 94.3887 71.3535 94.3887C70.9346 94.3887 70.6087 94.5199 70.376 94.7822C70.1475 95.0446 70.0036 95.4001 69.9443 95.8486H72.7563ZM85.6929 92.1733H81.6621V94.2173H85.3311V95.8677H81.6621V100H79.7896V90.5229H85.6929V92.1733ZM93.437 100H87.5337V90.5229H93.437V92.1733H89.4062V94.2173H93.0562V95.8677H89.4062V98.3496H93.437V100ZM98.2104 92.2368L97.3281 96.1152H99.0991L98.2104 92.2368ZM97.0679 90.5229H99.3594L101.917 100H100.045L99.4609 97.6577H96.9536L96.3823 100H94.5098L97.0679 90.5229ZM106.983 100H105.11V92.1606H102.705V90.5229H109.389V92.1606H106.983V100ZM117.793 101.206V102.476H109.966V101.206H117.793ZM118.345 90.5229H120.58L121.709 94.6807L122.833 90.5229H125.08V100H123.468V92.4082L122.465 96.5532H120.973L119.958 92.4082V100H118.345V90.5229ZM130.482 100H128.609V92.1606H126.204V90.5229H132.888V92.1606H130.482V100ZM140.435 100H134.532V90.5229H140.435V92.1733H136.404V94.2173H140.054V95.8677H136.404V98.3496H140.435V100ZM143.222 102.006L142.771 102.622H141.432C141.99 101.614 142.38 100.789 142.6 100.146C142.976 99.0584 143.165 97.8672 143.165 96.5723C143.165 95.7428 143.097 94.9769 142.961 94.2744C142.754 93.2038 142.384 92.1797 141.851 91.2021L141.463 90.4912H142.828C143.471 91.3883 143.96 92.2262 144.294 93.0049C144.79 94.1475 145.037 95.2985 145.037 96.458C145.037 97.7318 144.743 99.0267 144.155 100.343C143.825 101.079 143.514 101.633 143.222 102.006Z" fill="white"/>
<path d="M214.294 54.2368L213.412 58.1152H215.183L214.294 54.2368ZM213.151 52.5229H215.443L218.001 62H216.128L215.544 59.6577H213.037L212.466 62H210.593L213.151 52.5229ZM225.523 56.8521C225.32 56.6659 225.081 56.5262 224.806 56.4331C224.535 56.34 224.236 56.2935 223.911 56.2935C223.517 56.2935 223.172 56.3633 222.876 56.5029C222.584 56.6383 222.358 56.8372 222.197 57.0996C222.095 57.2604 222.023 57.4551 221.981 57.6836C221.943 57.9121 221.924 58.2591 221.924 58.7246V62H220.064V54.8906H221.924V55.9951C222.106 55.5889 222.385 55.2757 222.762 55.0557C223.138 54.8314 223.578 54.7192 224.082 54.7192C224.336 54.7192 224.583 54.751 224.825 54.8145C225.07 54.8737 225.303 54.9626 225.523 55.0811V56.8521ZM230.43 55.6016C230.569 55.3011 230.747 55.0789 230.963 54.9351C231.179 54.7912 231.443 54.7192 231.756 54.7192C232.37 54.7192 232.793 54.9308 233.026 55.354C233.263 55.7772 233.381 56.6574 233.381 57.9946V62H231.858V57.436C231.858 56.9071 231.818 56.5537 231.737 56.376C231.657 56.1982 231.511 56.1094 231.299 56.1094C231.088 56.1094 230.94 56.2004 230.855 56.3823C230.77 56.5643 230.728 56.9155 230.728 57.436V62H229.224V57.436C229.224 56.9155 229.181 56.5643 229.097 56.3823C229.012 56.2004 228.864 56.1094 228.652 56.1094C228.441 56.1094 228.295 56.1982 228.214 56.376C228.134 56.5537 228.094 56.9071 228.094 57.436V62H226.57V54.8906H227.922V55.627C228.028 55.3477 228.197 55.1276 228.43 54.9668C228.663 54.8018 228.923 54.7192 229.211 54.7192C229.499 54.7192 229.761 54.806 229.998 54.9795C230.235 55.1488 230.379 55.3561 230.43 55.6016ZM237.12 57.8423C236.176 57.4826 235.537 57.106 235.203 56.7124C234.869 56.3146 234.702 55.7814 234.702 55.1128C234.702 54.2537 234.977 53.5788 235.527 53.0879C236.077 52.597 236.832 52.3516 237.793 52.3516C238.229 52.3516 238.665 52.4023 239.101 52.5039C239.536 52.6012 239.968 52.7472 240.396 52.9419V54.77C239.993 54.4865 239.585 54.2707 239.17 54.1226C238.756 53.9744 238.345 53.9004 237.939 53.9004C237.486 53.9004 237.139 53.9914 236.898 54.1733C236.657 54.3553 236.536 54.6156 236.536 54.9541C236.536 55.2165 236.623 55.4344 236.796 55.6079C236.974 55.7772 237.342 55.9655 237.901 56.1729L238.707 56.4775C239.469 56.7568 240.029 57.1271 240.389 57.5884C240.749 58.0496 240.929 58.6315 240.929 59.334C240.929 60.2904 240.645 61.0055 240.078 61.4795C239.515 61.9492 238.663 62.1841 237.52 62.1841C237.05 62.1841 236.578 62.127 236.104 62.0127C235.635 61.9027 235.18 61.7376 234.74 61.5176V59.5815C235.239 59.937 235.722 60.2015 236.187 60.375C236.657 60.5485 237.12 60.6353 237.577 60.6353C238.038 60.6353 238.396 60.5316 238.65 60.3242C238.904 60.1126 239.031 59.8185 239.031 59.4419C239.031 59.1584 238.946 58.9108 238.777 58.6992C238.608 58.4834 238.362 58.3141 238.041 58.1914L237.12 57.8423ZM246.229 62.7681C245.979 63.4367 245.679 63.9233 245.328 64.228C244.981 64.5369 244.557 64.6914 244.058 64.6914H242.522V63.2759H243.277C243.658 63.2759 243.938 63.2103 244.115 63.0791C244.293 62.9521 244.473 62.6538 244.655 62.1841L244.794 61.8032L242.09 54.8906H244.045L245.67 59.5054L247.226 54.8906H249.181L246.229 62.7681ZM255.839 55.1128V56.7378C255.497 56.5177 255.139 56.3527 254.767 56.2427C254.398 56.1284 254.028 56.0713 253.656 56.0713C253.241 56.0713 252.928 56.1326 252.716 56.2554C252.505 56.3739 252.399 56.5516 252.399 56.7886C252.399 57.1271 252.852 57.4022 253.757 57.6138L253.827 57.6328L254.36 57.7598C255.037 57.9206 255.533 58.1808 255.846 58.5405C256.163 58.896 256.322 59.3784 256.322 59.9878C256.322 60.7199 256.081 61.27 255.598 61.6382C255.12 62.0021 254.398 62.1841 253.434 62.1841C253.006 62.1841 252.568 62.146 252.12 62.0698C251.671 61.9979 251.216 61.8879 250.755 61.7397V60.1147C251.165 60.3475 251.582 60.5252 252.005 60.6479C252.433 60.7707 252.845 60.832 253.243 60.832C253.679 60.832 254.009 60.7686 254.233 60.6416C254.458 60.5146 254.57 60.3306 254.57 60.0894C254.57 59.8524 254.489 59.6704 254.329 59.5435C254.172 59.4165 253.795 59.2811 253.199 59.1372L252.685 59.0229C251.974 58.8621 251.455 58.6104 251.129 58.2676C250.804 57.9248 250.641 57.4657 250.641 56.8901C250.641 56.2046 250.888 55.6714 251.383 55.2905C251.878 54.9097 252.575 54.7192 253.472 54.7192C253.874 54.7192 254.274 54.7531 254.671 54.8208C255.073 54.8843 255.463 54.9816 255.839 55.1128ZM261.762 52.8721V54.8906H264.193V56.3188H261.762V59.6831C261.762 60.0005 261.838 60.229 261.99 60.3687C262.147 60.5041 262.405 60.5718 262.765 60.5718H264.193V62H262.631C261.565 62 260.843 61.8307 260.467 61.4922C260.09 61.1494 259.902 60.5168 259.902 59.5942V56.3188H258.086V54.8906H259.902V52.8721H261.762ZM272.21 61.6509C271.778 61.8286 271.338 61.9619 270.89 62.0508C270.441 62.1396 269.967 62.1841 269.468 62.1841C268.279 62.1841 267.369 61.8667 266.738 61.2319C266.112 60.5929 265.799 59.6746 265.799 58.4771C265.799 57.3175 266.101 56.4014 266.707 55.7285C267.312 55.0557 268.137 54.7192 269.182 54.7192C270.236 54.7192 271.053 55.0324 271.632 55.6587C272.216 56.2808 272.508 57.1589 272.508 58.293V59.0483H267.69C267.695 59.6069 267.86 60.0238 268.186 60.2988C268.511 60.5739 268.998 60.7114 269.646 60.7114C270.073 60.7114 270.494 60.6501 270.909 60.5273C271.323 60.4046 271.757 60.21 272.21 59.9434V61.6509ZM270.636 57.6519C270.627 57.161 270.5 56.7907 270.255 56.541C270.014 56.2871 269.656 56.1602 269.182 56.1602C268.755 56.1602 268.414 56.2913 268.16 56.5537C267.906 56.8118 267.756 57.18 267.709 57.6582L270.636 57.6519ZM277.428 55.6016C277.567 55.3011 277.745 55.0789 277.961 54.9351C278.177 54.7912 278.441 54.7192 278.754 54.7192C279.368 54.7192 279.791 54.9308 280.024 55.354C280.261 55.7772 280.379 56.6574 280.379 57.9946V62H278.856V57.436C278.856 56.9071 278.816 56.5537 278.735 56.376C278.655 56.1982 278.509 56.1094 278.297 56.1094C278.086 56.1094 277.938 56.2004 277.853 56.3823C277.768 56.5643 277.726 56.9155 277.726 57.436V62H276.222V57.436C276.222 56.9155 276.179 56.5643 276.095 56.3823C276.01 56.2004 275.862 56.1094 275.65 56.1094C275.439 56.1094 275.293 56.1982 275.212 56.376C275.132 56.5537 275.092 56.9071 275.092 57.436V62H273.568V54.8906H274.92V55.627C275.026 55.3477 275.195 55.1276 275.428 54.9668C275.661 54.8018 275.921 54.7192 276.209 54.7192C276.497 54.7192 276.759 54.806 276.996 54.9795C277.233 55.1488 277.377 55.3561 277.428 55.6016ZM283.731 59.6704H285.845V62H283.731V59.6704ZM291.52 60.9971V64.7041H289.666V54.8906H291.52V55.957C291.714 55.5465 291.97 55.2376 292.288 55.0303C292.605 54.8229 292.977 54.7192 293.405 54.7192C294.217 54.7192 294.848 55.0451 295.296 55.6968C295.745 56.3485 295.969 57.2668 295.969 58.4517C295.969 59.6535 295.741 60.576 295.284 61.2192C294.831 61.8625 294.183 62.1841 293.341 62.1841C292.96 62.1841 292.618 62.0868 292.313 61.8921C292.013 61.6932 291.748 61.3949 291.52 60.9971ZM294.109 58.439C294.109 57.7534 293.995 57.216 293.767 56.8267C293.538 56.4373 293.223 56.2427 292.821 56.2427C292.419 56.2427 292.101 56.4373 291.869 56.8267C291.636 57.216 291.52 57.7534 291.52 58.439C291.52 59.1245 291.636 59.6619 291.869 60.0513C292.101 60.4406 292.419 60.6353 292.821 60.6353C293.223 60.6353 293.538 60.4406 293.767 60.0513C293.995 59.6619 294.109 59.1245 294.109 58.439ZM301.06 62.7681C300.81 63.4367 300.51 63.9233 300.159 64.228C299.812 64.5369 299.389 64.6914 298.889 64.6914H297.353V63.2759H298.108C298.489 63.2759 298.769 63.2103 298.946 63.0791C299.124 62.9521 299.304 62.6538 299.486 62.1841L299.625 61.8032L296.921 54.8906H298.876L300.501 59.5054L302.057 54.8906H304.012L301.06 62.7681ZM307.287 62L310.912 52.3579H312.416L308.779 62H307.287ZM206.531 73.2368L205.648 77.1152H207.419L206.531 73.2368ZM205.388 71.5229H207.68L210.238 81H208.365L207.781 78.6577H205.274L204.703 81H202.83L205.388 71.5229ZM217.76 75.8521C217.557 75.6659 217.318 75.5262 217.042 75.4331C216.772 75.34 216.473 75.2935 216.147 75.2935C215.754 75.2935 215.409 75.3633 215.113 75.5029C214.821 75.6383 214.594 75.8372 214.434 76.0996C214.332 76.2604 214.26 76.4551 214.218 76.6836C214.18 76.9121 214.161 77.2591 214.161 77.7246V81H212.301V73.8906H214.161V74.9951C214.343 74.5889 214.622 74.2757 214.999 74.0557C215.375 73.8314 215.815 73.7192 216.319 73.7192C216.573 73.7192 216.82 73.751 217.062 73.8145C217.307 73.8737 217.54 73.9626 217.76 74.0811V75.8521ZM222.667 74.6016C222.806 74.3011 222.984 74.0789 223.2 73.9351C223.416 73.7912 223.68 73.7192 223.993 73.7192C224.607 73.7192 225.03 73.9308 225.263 74.354C225.5 74.7772 225.618 75.6574 225.618 76.9946V81H224.095V76.436C224.095 75.9071 224.055 75.5537 223.974 75.376C223.894 75.1982 223.748 75.1094 223.536 75.1094C223.325 75.1094 223.176 75.2004 223.092 75.3823C223.007 75.5643 222.965 75.9155 222.965 76.436V81H221.46V76.436C221.46 75.9155 221.418 75.5643 221.333 75.3823C221.249 75.2004 221.101 75.1094 220.889 75.1094C220.678 75.1094 220.532 75.1982 220.451 75.376C220.371 75.5537 220.331 75.9071 220.331 76.436V81H218.807V73.8906H220.159V74.627C220.265 74.3477 220.434 74.1276 220.667 73.9668C220.9 73.8018 221.16 73.7192 221.448 73.7192C221.736 73.7192 221.998 73.806 222.235 73.9795C222.472 74.1488 222.616 74.3561 222.667 74.6016ZM227.211 73.1733V71.5229H232.854V73.1733H230.969V79.3496H232.854V81H227.211V79.3496H229.097V73.1733H227.211ZM237.19 76.8423C236.246 76.4826 235.607 76.106 235.273 75.7124C234.939 75.3146 234.771 74.7814 234.771 74.1128C234.771 73.2537 235.047 72.5788 235.597 72.0879C236.147 71.597 236.902 71.3516 237.863 71.3516C238.299 71.3516 238.735 71.4023 239.17 71.5039C239.606 71.6012 240.038 71.7472 240.465 71.9419V73.77C240.063 73.4865 239.655 73.2707 239.24 73.1226C238.826 72.9744 238.415 72.9004 238.009 72.9004C237.556 72.9004 237.209 72.9914 236.968 73.1733C236.727 73.3553 236.606 73.6156 236.606 73.9541C236.606 74.2165 236.693 74.4344 236.866 74.6079C237.044 74.7772 237.412 74.9655 237.971 75.1729L238.777 75.4775C239.539 75.7568 240.099 76.1271 240.459 76.5884C240.819 77.0496 240.999 77.6315 240.999 78.334C240.999 79.2904 240.715 80.0055 240.148 80.4795C239.585 80.9492 238.732 81.1841 237.59 81.1841C237.12 81.1841 236.648 81.127 236.174 81.0127C235.705 80.9027 235.25 80.7376 234.81 80.5176V78.5815C235.309 78.937 235.791 79.2015 236.257 79.375C236.727 79.5485 237.19 79.6353 237.647 79.6353C238.108 79.6353 238.466 79.5316 238.72 79.3242C238.974 79.1126 239.101 78.8185 239.101 78.4419C239.101 78.1584 239.016 77.9108 238.847 77.6992C238.677 77.4834 238.432 77.3141 238.11 77.1914L237.19 76.8423ZM245.696 73.2368L244.813 77.1152H246.584L245.696 73.2368ZM244.553 71.5229H246.845L249.403 81H247.53L246.946 78.6577H244.439L243.868 81H241.995L244.553 71.5229ZM252.469 78.6704H254.583V81H252.469V78.6704ZM260.257 79.9971V83.7041H258.404V73.8906H260.257V74.957C260.452 74.5465 260.708 74.2376 261.025 74.0303C261.343 73.8229 261.715 73.7192 262.143 73.7192C262.955 73.7192 263.586 74.0451 264.034 74.6968C264.483 75.3485 264.707 76.2668 264.707 77.4517C264.707 78.6535 264.479 79.576 264.021 80.2192C263.569 80.8625 262.921 81.1841 262.079 81.1841C261.698 81.1841 261.355 81.0868 261.051 80.8921C260.75 80.6932 260.486 80.3949 260.257 79.9971ZM262.847 77.439C262.847 76.7534 262.733 76.216 262.504 75.8267C262.276 75.4373 261.961 75.2427 261.559 75.2427C261.157 75.2427 260.839 75.4373 260.606 75.8267C260.374 76.216 260.257 76.7534 260.257 77.439C260.257 78.1245 260.374 78.6619 260.606 79.0513C260.839 79.4406 261.157 79.6353 261.559 79.6353C261.961 79.6353 262.276 79.4406 262.504 79.0513C262.733 78.6619 262.847 78.1245 262.847 77.439ZM269.798 81.7681C269.548 82.4367 269.248 82.9233 268.896 83.228C268.549 83.5369 268.126 83.6914 267.627 83.6914H266.091V82.2759H266.846C267.227 82.2759 267.506 82.2103 267.684 82.0791C267.862 81.9521 268.042 81.6538 268.224 81.1841L268.363 80.8032L265.659 73.8906H267.614L269.239 78.5054L270.794 73.8906H272.75L269.798 81.7681ZM283.877 71.6562V81H282.119V80.0415C281.861 80.452 281.566 80.7503 281.236 80.9365C280.906 81.1227 280.496 81.2158 280.005 81.2158C279.197 81.2158 278.515 80.89 277.961 80.2383C277.411 79.5824 277.136 78.7424 277.136 77.7183C277.136 76.5376 277.407 75.6087 277.948 74.9316C278.494 74.2546 279.222 73.916 280.132 73.916C280.551 73.916 280.923 74.0091 281.249 74.1953C281.575 74.3773 281.839 74.6312 282.042 74.957V71.6562H283.877ZM279.002 77.585C279.002 78.224 279.129 78.7339 279.383 79.1147C279.632 79.4998 280.013 79.6924 280.525 79.6924C281.037 79.6924 281.427 79.502 281.693 79.1211C281.96 78.7402 282.093 78.2472 282.093 77.6421C282.093 76.7957 281.88 76.1906 281.452 75.8267C281.19 75.6066 280.885 75.4966 280.538 75.4966C280.009 75.4966 279.62 75.6976 279.37 76.0996C279.125 76.4974 279.002 76.9925 279.002 77.585ZM291.45 78.9688C291.403 79.3792 291.189 79.7961 290.809 80.2192C290.216 80.8921 289.387 81.2285 288.32 81.2285C287.44 81.2285 286.664 80.945 285.991 80.3779C285.318 79.8109 284.981 78.8883 284.981 77.6104C284.981 76.4128 285.284 75.4945 285.889 74.8555C286.499 74.2165 287.288 73.897 288.257 73.897C288.832 73.897 289.351 74.0049 289.812 74.2207C290.273 74.4365 290.654 74.7772 290.955 75.2427C291.225 75.6532 291.401 76.1292 291.481 76.6709C291.528 76.9883 291.547 77.4453 291.539 78.042H286.803C286.829 78.736 287.047 79.2227 287.457 79.502C287.707 79.6755 288.007 79.7622 288.358 79.7622C288.731 79.7622 289.033 79.6564 289.266 79.4448C289.393 79.3306 289.505 79.1719 289.603 78.9688H291.45ZM289.66 76.8486C289.63 76.3704 289.484 76.0086 289.222 75.7632C288.964 75.5135 288.642 75.3887 288.257 75.3887C287.838 75.3887 287.512 75.5199 287.279 75.7822C287.051 76.0446 286.907 76.4001 286.848 76.8486H289.66ZM296.007 71.5864V73.0591C295.906 73.0464 295.734 73.0379 295.493 73.0337C295.256 73.0252 295.091 73.0781 294.998 73.1924C294.909 73.3024 294.865 73.4251 294.865 73.5605V74.1445H296.052V75.4204H294.865V81H293.062V75.4204H292.053V74.1445H293.043V73.7002C293.043 72.9596 293.168 72.4497 293.417 72.1704C293.68 71.7557 294.312 71.5483 295.315 71.5483C295.43 71.5483 295.533 71.5526 295.626 71.561C295.72 71.5653 295.847 71.5737 296.007 71.5864ZM297.353 74.8301C297.831 74.2207 298.652 73.916 299.816 73.916C300.573 73.916 301.246 74.0662 301.834 74.3667C302.423 74.6672 302.717 75.2342 302.717 76.0679V79.2417C302.717 79.4618 302.721 79.7284 302.729 80.0415C302.742 80.2785 302.778 80.4393 302.837 80.5239C302.897 80.6086 302.986 80.6784 303.104 80.7334V81H301.136C301.081 80.8604 301.043 80.7292 301.022 80.6064C301.001 80.4837 300.984 80.3441 300.971 80.1875C300.722 80.4583 300.434 80.689 300.108 80.8794C299.719 81.1037 299.278 81.2158 298.788 81.2158C298.161 81.2158 297.643 81.0381 297.232 80.6826C296.826 80.3229 296.623 79.8151 296.623 79.1592C296.623 78.3086 296.951 77.6929 297.607 77.312C297.967 77.1047 298.496 76.9565 299.194 76.8677L299.81 76.7915C300.144 76.7492 300.383 76.6963 300.527 76.6328C300.785 76.5228 300.914 76.3514 300.914 76.1187C300.914 75.8351 300.815 75.6405 300.616 75.5347C300.421 75.4246 300.133 75.3696 299.752 75.3696C299.325 75.3696 299.022 75.4754 298.845 75.687C298.718 75.8436 298.633 76.0552 298.591 76.3218H296.845C296.883 75.7166 297.053 75.2194 297.353 74.8301ZM298.699 79.6924C298.868 79.832 299.075 79.9019 299.321 79.9019C299.71 79.9019 300.068 79.7876 300.394 79.5591C300.724 79.3306 300.895 78.9137 300.908 78.3086V77.6357C300.793 77.7077 300.677 77.7669 300.559 77.8135C300.444 77.8558 300.286 77.896 300.083 77.9341L299.676 78.0103C299.295 78.078 299.022 78.1605 298.857 78.2578C298.578 78.4229 298.438 78.6789 298.438 79.0259C298.438 79.3348 298.525 79.557 298.699 79.6924ZM308.766 80.0225C308.749 80.0436 308.707 80.1071 308.639 80.2129C308.571 80.3187 308.491 80.4118 308.398 80.4922C308.114 80.7461 307.839 80.9196 307.573 81.0127C307.31 81.1058 307.001 81.1523 306.646 81.1523C305.622 81.1523 304.932 80.7842 304.577 80.0479C304.378 79.6416 304.278 79.0428 304.278 78.2515V74.0811H306.132V78.2515C306.132 78.645 306.178 78.9412 306.271 79.1401C306.437 79.4914 306.76 79.667 307.243 79.667C307.861 79.667 308.284 79.4173 308.512 78.918C308.631 78.6471 308.69 78.2896 308.69 77.8452V74.0811H310.524V81H308.766V80.0225ZM312.314 71.6436H314.124V81H312.314V71.6436ZM319.062 79.7114V81.0635L318.205 81.0952C317.35 81.1248 316.766 80.9767 316.453 80.6509C316.25 80.4435 316.148 80.124 316.148 79.6924V75.4331H315.184V74.1445H316.148V72.2148H317.938V74.1445H319.062V75.4331H317.938V79.0894C317.938 79.3729 317.974 79.5506 318.046 79.6226C318.118 79.6903 318.338 79.7241 318.707 79.7241C318.762 79.7241 318.819 79.7241 318.878 79.7241C318.941 79.7199 319.003 79.7157 319.062 79.7114ZM222.571 97.9688C222.525 98.3792 222.311 98.7961 221.93 99.2192C221.338 99.8921 220.508 100.229 219.442 100.229C218.562 100.229 217.785 99.945 217.112 99.3779C216.439 98.8109 216.103 97.8883 216.103 96.6104C216.103 95.4128 216.406 94.4945 217.011 93.8555C217.62 93.2165 218.409 92.897 219.378 92.897C219.954 92.897 220.472 93.0049 220.934 93.2207C221.395 93.4365 221.776 93.7772 222.076 94.2427C222.347 94.6532 222.523 95.1292 222.603 95.6709C222.65 95.9883 222.669 96.4453 222.66 97.042H217.925C217.95 97.736 218.168 98.2227 218.579 98.502C218.828 98.6755 219.129 98.7622 219.48 98.7622C219.852 98.7622 220.155 98.6564 220.388 98.4448C220.515 98.3306 220.627 98.1719 220.724 97.9688H222.571ZM220.781 95.8486C220.752 95.3704 220.606 95.0086 220.343 94.7632C220.085 94.5135 219.764 94.3887 219.378 94.3887C218.959 94.3887 218.634 94.5199 218.401 94.7822C218.172 95.0446 218.028 95.4001 217.969 95.8486H220.781ZM230.049 100H227.795L226.602 97.9243L225.402 100H223.206L225.567 96.4961L223.308 93.0938H225.523L226.678 95.0996L227.808 93.0938H229.96L227.688 96.4644L230.049 100ZM234.289 98.7114V100.063L233.432 100.095C232.577 100.125 231.993 99.9767 231.68 99.6509C231.477 99.4435 231.375 99.124 231.375 98.6924V94.4331H230.411V93.1445H231.375V91.2148H233.166V93.1445H234.289V94.4331H233.166V98.0894C233.166 98.3729 233.201 98.5506 233.273 98.6226C233.345 98.6903 233.565 98.7241 233.934 98.7241C233.989 98.7241 234.046 98.7241 234.105 98.7241C234.168 98.7199 234.23 98.7157 234.289 98.7114ZM241.373 97.9688C241.326 98.3792 241.113 98.7961 240.732 99.2192C240.139 99.8921 239.31 100.229 238.244 100.229C237.363 100.229 236.587 99.945 235.914 99.3779C235.241 98.8109 234.905 97.8883 234.905 96.6104C234.905 95.4128 235.207 94.4945 235.812 93.8555C236.422 93.2165 237.211 92.897 238.18 92.897C238.756 92.897 239.274 93.0049 239.735 93.2207C240.197 93.4365 240.577 93.7772 240.878 94.2427C241.149 94.6532 241.324 95.1292 241.405 95.6709C241.451 95.9883 241.47 96.4453 241.462 97.042H236.727C236.752 97.736 236.97 98.2227 237.38 98.502C237.63 98.6755 237.931 98.7622 238.282 98.7622C238.654 98.7622 238.957 98.6564 239.189 98.4448C239.316 98.3306 239.429 98.1719 239.526 97.9688H241.373ZM239.583 95.8486C239.553 95.3704 239.407 95.0086 239.145 94.7632C238.887 94.5135 238.565 94.3887 238.18 94.3887C237.761 94.3887 237.435 94.5199 237.203 94.7822C236.974 95.0446 236.83 95.4001 236.771 95.8486H239.583ZM245.943 94.4204C245.33 94.4204 244.909 94.6807 244.68 95.2012C244.562 95.4762 244.502 95.8275 244.502 96.2549V100H242.7V93.0938H244.445V94.103C244.678 93.7476 244.898 93.4915 245.105 93.335C245.478 93.0557 245.95 92.916 246.521 92.916C247.236 92.916 247.82 93.1043 248.273 93.481C248.73 93.8534 248.958 94.4733 248.958 95.3408V100H247.105V95.7915C247.105 95.4276 247.056 95.1483 246.959 94.9536C246.781 94.5981 246.443 94.4204 245.943 94.4204ZM255.401 93.3984C255.943 93.7454 256.254 94.3421 256.334 95.1885H254.525C254.5 94.9557 254.434 94.7716 254.329 94.6362C254.13 94.3908 253.791 94.2681 253.313 94.2681C252.919 94.2681 252.638 94.3294 252.469 94.4521C252.304 94.5749 252.221 94.7188 252.221 94.8838C252.221 95.0911 252.31 95.2414 252.488 95.3345C252.666 95.4318 253.294 95.599 254.373 95.8359C255.092 96.0052 255.632 96.2612 255.992 96.604C256.347 96.951 256.525 97.3848 256.525 97.9053C256.525 98.5908 256.269 99.1515 255.757 99.5874C255.249 100.019 254.462 100.235 253.396 100.235C252.308 100.235 251.504 100.006 250.983 99.5493C250.467 99.0881 250.209 98.502 250.209 97.791H252.043C252.082 98.1126 252.164 98.3411 252.291 98.4766C252.515 98.7178 252.93 98.8384 253.535 98.8384C253.891 98.8384 254.172 98.7855 254.379 98.6797C254.591 98.5739 254.697 98.4152 254.697 98.2036C254.697 98.0005 254.612 97.846 254.443 97.7402C254.274 97.6344 253.645 97.4525 252.558 97.1943C251.775 96.9997 251.222 96.7563 250.901 96.4644C250.579 96.1766 250.418 95.7619 250.418 95.2202C250.418 94.5812 250.668 94.0332 251.167 93.5762C251.671 93.1149 252.378 92.8843 253.288 92.8843C254.151 92.8843 254.855 93.0557 255.401 93.3984ZM259.73 93.0811V100H257.896V93.0811H259.73ZM259.73 90.5864V92.2559H257.896V90.5864H259.73ZM267.259 93.957C267.843 94.6891 268.135 95.5545 268.135 96.5532C268.135 97.5688 267.843 98.4385 267.259 99.1621C266.675 99.8815 265.788 100.241 264.599 100.241C263.41 100.241 262.523 99.8815 261.939 99.1621C261.355 98.4385 261.063 97.5688 261.063 96.5532C261.063 95.5545 261.355 94.6891 261.939 93.957C262.523 93.2249 263.41 92.8589 264.599 92.8589C265.788 92.8589 266.675 93.2249 267.259 93.957ZM264.593 94.3887C264.064 94.3887 263.655 94.577 263.368 94.9536C263.084 95.326 262.942 95.8592 262.942 96.5532C262.942 97.2472 263.084 97.7826 263.368 98.1592C263.655 98.5358 264.064 98.7241 264.593 98.7241C265.122 98.7241 265.528 98.5358 265.812 98.1592C266.095 97.7826 266.237 97.2472 266.237 96.5532C266.237 95.8592 266.095 95.326 265.812 94.9536C265.528 94.577 265.122 94.3887 264.593 94.3887ZM272.692 94.4204C272.079 94.4204 271.658 94.6807 271.429 95.2012C271.311 95.4762 271.251 95.8275 271.251 96.2549V100H269.449V93.0938H271.194V94.103C271.427 93.7476 271.647 93.4915 271.854 93.335C272.227 93.0557 272.699 92.916 273.27 92.916C273.985 92.916 274.569 93.1043 275.022 93.481C275.479 93.8534 275.708 94.4733 275.708 95.3408V100H273.854V95.7915C273.854 95.4276 273.805 95.1483 273.708 94.9536C273.53 94.5981 273.192 94.4204 272.692 94.4204ZM281.04 90.6436H282.849V100H281.04V90.6436ZM286.479 93.0811V100H284.645V93.0811H286.479ZM286.479 90.5864V92.2559H284.645V90.5864H286.479ZM293.005 93.3984C293.547 93.7454 293.858 94.3421 293.938 95.1885H292.129C292.104 94.9557 292.038 94.7716 291.932 94.6362C291.733 94.3908 291.395 94.2681 290.917 94.2681C290.523 94.2681 290.242 94.3294 290.072 94.4521C289.907 94.5749 289.825 94.7188 289.825 94.8838C289.825 95.0911 289.914 95.2414 290.091 95.3345C290.269 95.4318 290.897 95.599 291.977 95.8359C292.696 96.0052 293.236 96.2612 293.595 96.604C293.951 96.951 294.128 97.3848 294.128 97.9053C294.128 98.5908 293.872 99.1515 293.36 99.5874C292.853 100.019 292.065 100.235 290.999 100.235C289.911 100.235 289.107 100.006 288.587 99.5493C288.071 99.0881 287.812 98.502 287.812 97.791H289.647C289.685 98.1126 289.768 98.3411 289.895 98.4766C290.119 98.7178 290.534 98.8384 291.139 98.8384C291.494 98.8384 291.776 98.7855 291.983 98.6797C292.194 98.5739 292.3 98.4152 292.3 98.2036C292.3 98.0005 292.216 97.846 292.046 97.7402C291.877 97.6344 291.249 97.4525 290.161 97.1943C289.378 96.9997 288.826 96.7563 288.504 96.4644C288.183 96.1766 288.022 95.7619 288.022 95.2202C288.022 94.5812 288.272 94.0332 288.771 93.5762C289.275 93.1149 289.981 92.8843 290.891 92.8843C291.754 92.8843 292.459 93.0557 293.005 93.3984ZM298.642 98.7114V100.063L297.785 100.095C296.93 100.125 296.346 99.9767 296.033 99.6509C295.83 99.4435 295.728 99.124 295.728 98.6924V94.4331H294.763V93.1445H295.728V91.2148H297.518V93.1445H298.642V94.4331H297.518V98.0894C297.518 98.3729 297.554 98.5506 297.626 98.6226C297.698 98.6903 297.918 98.7241 298.286 98.7241C298.341 98.7241 298.398 98.7241 298.458 98.7241C298.521 98.7199 298.582 98.7157 298.642 98.7114ZM304.57 93.3984C305.112 93.7454 305.423 94.3421 305.503 95.1885H303.694C303.669 94.9557 303.603 94.7716 303.498 94.6362C303.299 94.3908 302.96 94.2681 302.482 94.2681C302.088 94.2681 301.807 94.3294 301.638 94.4521C301.473 94.5749 301.39 94.7188 301.39 94.8838C301.39 95.0911 301.479 95.2414 301.657 95.3345C301.834 95.4318 302.463 95.599 303.542 95.8359C304.261 96.0052 304.801 96.2612 305.161 96.604C305.516 96.951 305.694 97.3848 305.694 97.9053C305.694 98.5908 305.438 99.1515 304.926 99.5874C304.418 100.019 303.631 100.235 302.564 100.235C301.477 100.235 300.673 100.006 300.152 99.5493C299.636 99.0881 299.378 98.502 299.378 97.791H301.212C301.25 98.1126 301.333 98.3411 301.46 98.4766C301.684 98.7178 302.099 98.8384 302.704 98.8384C303.06 98.8384 303.341 98.7855 303.548 98.6797C303.76 98.5739 303.866 98.4152 303.866 98.2036C303.866 98.0005 303.781 97.846 303.612 97.7402C303.443 97.6344 302.814 97.4525 301.727 97.1943C300.944 96.9997 300.391 96.7563 300.07 96.4644C299.748 96.1766 299.587 95.7619 299.587 95.2202C299.587 94.5812 299.837 94.0332 300.336 93.5762C300.84 93.1149 301.547 92.8843 302.457 92.8843C303.32 92.8843 304.024 93.0557 304.57 93.3984Z" fill="white"/>
<path d="M390.452 55.6016C390.591 55.3011 390.769 55.0789 390.985 54.9351C391.201 54.7912 391.465 54.7192 391.778 54.7192C392.392 54.7192 392.815 54.9308 393.048 55.354C393.285 55.7772 393.403 56.6574 393.403 57.9946V62H391.88V57.436C391.88 56.9071 391.84 56.5537 391.759 56.376C391.679 56.1982 391.533 56.1094 391.321 56.1094C391.11 56.1094 390.962 56.2004 390.877 56.3823C390.792 56.5643 390.75 56.9155 390.75 57.436V62H389.246V57.436C389.246 56.9155 389.203 56.5643 389.119 56.3823C389.034 56.2004 388.886 56.1094 388.674 56.1094C388.463 56.1094 388.317 56.1982 388.236 56.376C388.156 56.5537 388.116 56.9071 388.116 57.436V62H386.592V54.8906H387.944V55.627C388.05 55.3477 388.219 55.1276 388.452 54.9668C388.685 54.8018 388.945 54.7192 389.233 54.7192C389.521 54.7192 389.783 54.806 390.02 54.9795C390.257 55.1488 390.401 55.3561 390.452 55.6016ZM395.308 54.8906H398.989V60.5718H401.3V62H394.812V60.5718H397.129V56.3188H395.308V54.8906ZM397.129 51.4312H398.989V53.6021H397.129V51.4312ZM408.028 55.1128V56.7378C407.686 56.5177 407.328 56.3527 406.956 56.2427C406.587 56.1284 406.217 56.0713 405.845 56.0713C405.43 56.0713 405.117 56.1326 404.905 56.2554C404.694 56.3739 404.588 56.5516 404.588 56.7886C404.588 57.1271 405.041 57.4022 405.946 57.6138L406.016 57.6328L406.549 57.7598C407.226 57.9206 407.722 58.1808 408.035 58.5405C408.352 58.896 408.511 59.3784 408.511 59.9878C408.511 60.7199 408.27 61.27 407.787 61.6382C407.309 62.0021 406.587 62.1841 405.623 62.1841C405.195 62.1841 404.757 62.146 404.309 62.0698C403.86 61.9979 403.405 61.8879 402.944 61.7397V60.1147C403.354 60.3475 403.771 60.5252 404.194 60.6479C404.622 60.7707 405.034 60.832 405.432 60.832C405.868 60.832 406.198 60.7686 406.422 60.6416C406.647 60.5146 406.759 60.3306 406.759 60.0894C406.759 59.8524 406.678 59.6704 406.518 59.5435C406.361 59.4165 405.984 59.2811 405.388 59.1372L404.874 59.0229C404.163 58.8621 403.644 58.6104 403.318 58.2676C402.993 57.9248 402.83 57.4657 402.83 56.8901C402.83 56.2046 403.077 55.6714 403.572 55.2905C404.067 54.9097 404.764 54.7192 405.661 54.7192C406.063 54.7192 406.463 54.7531 406.86 54.8208C407.262 54.8843 407.652 54.9816 408.028 55.1128ZM416.306 61.6382C415.993 61.8201 415.656 61.9556 415.296 62.0444C414.937 62.1375 414.549 62.1841 414.135 62.1841C413.039 62.1841 412.182 61.854 411.564 61.1938C410.946 60.5337 410.637 59.6196 410.637 58.4517C410.637 57.2795 410.948 56.3633 411.57 55.7031C412.192 55.0387 413.051 54.7065 414.147 54.7065C414.528 54.7065 414.894 54.751 415.246 54.8398C415.601 54.9287 415.954 55.0662 416.306 55.2524V56.9536C416.035 56.7209 415.736 56.5431 415.411 56.4204C415.089 56.2935 414.755 56.23 414.408 56.23C413.803 56.23 413.337 56.4225 413.011 56.8076C412.685 57.1927 412.522 57.7407 412.522 58.4517C412.522 59.1626 412.685 59.7085 413.011 60.0894C413.337 60.4702 413.803 60.6606 414.408 60.6606C414.767 60.6606 415.104 60.6014 415.417 60.4829C415.73 60.3602 416.026 60.1761 416.306 59.9307V61.6382ZM420.254 59.6704H422.368V62H420.254V59.6704ZM431.972 61.6382C431.659 61.8201 431.322 61.9556 430.962 62.0444C430.603 62.1375 430.215 62.1841 429.801 62.1841C428.705 62.1841 427.848 61.854 427.23 61.1938C426.612 60.5337 426.303 59.6196 426.303 58.4517C426.303 57.2795 426.614 56.3633 427.236 55.7031C427.858 55.0387 428.717 54.7065 429.813 54.7065C430.194 54.7065 430.56 54.751 430.912 54.8398C431.267 54.9287 431.62 55.0662 431.972 55.2524V56.9536C431.701 56.7209 431.403 56.5431 431.077 56.4204C430.755 56.2935 430.421 56.23 430.074 56.23C429.469 56.23 429.003 56.4225 428.677 56.8076C428.351 57.1927 428.188 57.7407 428.188 58.4517C428.188 59.1626 428.351 59.7085 428.677 60.0894C429.003 60.4702 429.469 60.6606 430.074 60.6606C430.433 60.6606 430.77 60.6014 431.083 60.4829C431.396 60.3602 431.692 60.1761 431.972 59.9307V61.6382ZM439.805 61.6382C439.492 61.8201 439.155 61.9556 438.795 62.0444C438.436 62.1375 438.049 62.1841 437.634 62.1841C436.538 62.1841 435.681 61.854 435.063 61.1938C434.445 60.5337 434.136 59.6196 434.136 58.4517C434.136 57.2795 434.447 56.3633 435.069 55.7031C435.691 55.0387 436.55 54.7065 437.646 54.7065C438.027 54.7065 438.393 54.751 438.745 54.8398C439.1 54.9287 439.453 55.0662 439.805 55.2524V56.9536C439.534 56.7209 439.236 56.5431 438.91 56.4204C438.588 56.2935 438.254 56.23 437.907 56.23C437.302 56.23 436.836 56.4225 436.51 56.8076C436.184 57.1927 436.021 57.7407 436.021 58.4517C436.021 59.1626 436.184 59.7085 436.51 60.0894C436.836 60.4702 437.302 60.6606 437.907 60.6606C438.266 60.6606 438.603 60.6014 438.916 60.4829C439.229 60.3602 439.525 60.1761 439.805 59.9307V61.6382ZM447.225 55.0811V62H445.391V55.0811H447.225ZM447.225 52.5864V54.2559H445.391V52.5864H447.225ZM452.24 56.4204C451.626 56.4204 451.205 56.6807 450.977 57.2012C450.858 57.4762 450.799 57.8275 450.799 58.2549V62H448.996V55.0938H450.742V56.103C450.974 55.7476 451.194 55.4915 451.402 55.335C451.774 55.0557 452.246 54.916 452.817 54.916C453.533 54.916 454.117 55.1043 454.569 55.481C455.026 55.8534 455.255 56.4733 455.255 57.3408V62H453.401V57.7915C453.401 57.4276 453.353 57.1483 453.255 56.9536C453.078 56.5981 452.739 56.4204 452.24 56.4204ZM458.791 55.0811V62H456.956V55.0811H458.791ZM458.791 52.5864V54.2559H456.956V52.5864H458.791ZM463.716 60.7114V62.0635L462.859 62.0952C462.005 62.1248 461.421 61.9767 461.107 61.6509C460.904 61.4435 460.803 61.124 460.803 60.6924V56.4331H459.838V55.1445H460.803V53.2148H462.593V55.1445H463.716V56.4331H462.593V60.0894C462.593 60.3729 462.629 60.5506 462.701 60.6226C462.773 60.6903 462.993 60.7241 463.361 60.7241C463.416 60.7241 463.473 60.7241 463.532 60.7241C463.596 60.7199 463.657 60.7157 463.716 60.7114ZM474.266 55.957C474.85 56.6891 475.142 57.5545 475.142 58.5532C475.142 59.5688 474.85 60.4385 474.266 61.1621C473.682 61.8815 472.796 62.2412 471.606 62.2412C470.417 62.2412 469.531 61.8815 468.947 61.1621C468.363 60.4385 468.071 59.5688 468.071 58.5532C468.071 57.5545 468.363 56.6891 468.947 55.957C469.531 55.2249 470.417 54.8589 471.606 54.8589C472.796 54.8589 473.682 55.2249 474.266 55.957ZM471.6 56.3887C471.071 56.3887 470.663 56.577 470.375 56.9536C470.091 57.326 469.95 57.8592 469.95 58.5532C469.95 59.2472 470.091 59.7826 470.375 60.1592C470.663 60.5358 471.071 60.7241 471.6 60.7241C472.129 60.7241 472.535 60.5358 472.819 60.1592C473.102 59.7826 473.244 59.2472 473.244 58.5532C473.244 57.8592 473.102 57.326 472.819 56.9536C472.535 56.577 472.129 56.3887 471.6 56.3887ZM479.687 52.5864V54.0591C479.585 54.0464 479.414 54.0379 479.173 54.0337C478.936 54.0252 478.771 54.0781 478.678 54.1924C478.589 54.3024 478.544 54.4251 478.544 54.5605V55.1445H479.731V56.4204H478.544V62H476.742V56.4204H475.732V55.1445H476.723V54.7002C476.723 53.9596 476.847 53.4497 477.097 53.1704C477.36 52.7557 477.992 52.5483 478.995 52.5483C479.109 52.5483 479.213 52.5526 479.306 52.561C479.399 52.5653 479.526 52.5737 479.687 52.5864ZM375.344 73.1733V71.5229H380.987V73.1733H379.102V79.3496H380.987V81H375.344V79.3496H377.229V73.1733H375.344ZM384.828 73.2114V79.3115H385.335C386.072 79.3115 386.597 79.0809 386.91 78.6196C387.223 78.1541 387.379 77.3649 387.379 76.252C387.379 75.1475 387.223 74.3646 386.91 73.9033C386.597 73.4421 386.072 73.2114 385.335 73.2114H384.828ZM382.955 71.5229H384.961C386.51 71.5229 387.625 71.8932 388.306 72.6338C388.987 73.3701 389.328 74.5762 389.328 76.252C389.328 77.932 388.987 79.1444 388.306 79.8892C387.625 80.6297 386.51 81 384.961 81H382.955V71.5229ZM397.745 82.2061V83.4756H389.918V82.2061H397.745ZM401.662 73.2368L400.779 77.1152H402.55L401.662 73.2368ZM400.519 71.5229H402.811L405.369 81H403.496L402.912 78.6577H400.405L399.833 81H397.961L400.519 71.5229ZM409.495 73.2368L408.612 77.1152H410.383L409.495 73.2368ZM408.352 71.5229H410.644L413.202 81H411.329L410.745 78.6577H408.238L407.667 81H405.794L408.352 71.5229ZM417.499 76.252C417.093 76.252 416.782 76.4001 416.566 76.6963C416.354 76.9883 416.249 77.4136 416.249 77.9722C416.249 78.5265 416.354 78.9518 416.566 79.248C416.782 79.54 417.093 79.686 417.499 79.686C417.905 79.686 418.216 79.54 418.432 79.248C418.652 78.9518 418.762 78.5265 418.762 77.9722C418.762 77.4178 418.652 76.9925 418.432 76.6963C418.216 76.4001 417.905 76.252 417.499 76.252ZM419.956 71.7451V73.4463C419.621 73.2559 419.3 73.1141 418.991 73.021C418.686 72.9237 418.392 72.875 418.108 72.875C417.431 72.875 416.915 73.1035 416.56 73.5605C416.208 74.0133 416.024 74.6841 416.007 75.5728C416.206 75.2977 416.46 75.0924 416.769 74.957C417.078 74.8174 417.442 74.7476 417.861 74.7476C418.716 74.7476 419.376 75.0184 419.841 75.5601C420.307 76.0975 420.54 76.8613 420.54 77.8516C420.54 78.9137 420.277 79.7368 419.752 80.3208C419.232 80.9048 418.498 81.1968 417.55 81.1968C416.395 81.1968 415.555 80.8096 415.03 80.0352C414.509 79.2607 414.249 78.0103 414.249 76.2837C414.249 74.6418 414.569 73.4124 415.208 72.5957C415.847 71.7747 416.805 71.3643 418.083 71.3643C418.379 71.3643 418.684 71.396 418.997 71.4595C419.314 71.5229 419.634 71.6182 419.956 71.7451ZM425.656 73.605L423.263 77.3501H425.656V73.605ZM425.491 71.5229H427.452V77.3501H428.493V78.9561H427.452V81H425.656V78.9561H421.898V77.1406L425.491 71.5229ZM431.984 73.0972V75.8774H432.752C433.366 75.8774 433.796 75.7738 434.041 75.5664C434.291 75.359 434.416 74.9993 434.416 74.4873C434.416 73.9753 434.291 73.6156 434.041 73.4082C433.796 73.2008 433.366 73.0972 432.752 73.0972H431.984ZM430.112 71.5229H432.683C433.99 71.5229 434.93 71.7557 435.501 72.2212C436.076 72.6867 436.364 73.4421 436.364 74.4873C436.364 75.5326 436.076 76.2879 435.501 76.7534C434.93 77.2189 433.99 77.4517 432.683 77.4517H431.984V81H430.112V71.5229ZM443.975 73.1733H439.944V75.2173H443.613V76.8677H439.944V81H438.072V71.5229H443.975V73.1733ZM449.872 76.5249C450.058 76.563 450.219 76.6519 450.354 76.7915C450.494 76.9269 450.663 77.1935 450.862 77.5913L452.576 81H450.52L449.377 78.6069C449.343 78.5392 449.299 78.4461 449.244 78.3276C448.909 77.6125 448.516 77.2549 448.063 77.2549H447.466V81H445.594V71.5229H448.298C449.517 71.5229 450.39 71.7388 450.919 72.1704C451.453 72.6021 451.719 73.3045 451.719 74.2778C451.719 74.9295 451.561 75.4479 451.243 75.833C450.926 76.2181 450.469 76.4487 449.872 76.5249ZM447.466 73.0972V75.6807H448.349C448.861 75.6807 449.227 75.5812 449.447 75.3823C449.671 75.1792 449.783 74.847 449.783 74.3857C449.783 73.9245 449.673 73.5944 449.453 73.3955C449.233 73.1966 448.865 73.0972 448.349 73.0972H447.466ZM453.776 79.3496H455.871V73.1987L453.922 73.6812V71.9927L455.883 71.5229H457.692V79.3496H459.787V81H453.776V79.3496ZM468.242 82.2061V83.4756H460.416V82.2061H468.242ZM475.218 81H469.315V71.5229H475.218V73.1733H471.188V75.2173H474.837V76.8677H471.188V79.3496H475.218V81ZM477.51 81V71.5229H479.382V79.3496H483.388V81H477.51ZM485.108 79.3496H487.203V73.1987L485.254 73.6812V71.9927L487.215 71.5229H489.024V79.3496H491.119V81H485.108V79.3496ZM392.876 102.622L392.426 102.006C392.134 101.633 391.823 101.079 391.493 100.343C390.904 99.0267 390.61 97.7318 390.61 96.458C390.61 95.2985 390.858 94.1475 391.353 93.0049C391.687 92.2262 392.176 91.3883 392.819 90.4912H394.184L393.797 91.2021C393.264 92.1797 392.893 93.2038 392.686 94.2744C392.551 94.9769 392.483 95.7428 392.483 96.5723C392.483 97.8672 392.671 99.0584 393.048 100.146C393.268 100.789 393.657 101.614 394.216 102.622H392.876ZM399.986 93.3984C400.528 93.7454 400.839 94.3421 400.919 95.1885H399.11C399.084 94.9557 399.019 94.7716 398.913 94.6362C398.714 94.3908 398.376 94.2681 397.897 94.2681C397.504 94.2681 397.222 94.3294 397.053 94.4521C396.888 94.5749 396.806 94.7188 396.806 94.8838C396.806 95.0911 396.895 95.2414 397.072 95.3345C397.25 95.4318 397.878 95.599 398.958 95.8359C399.677 96.0052 400.216 96.2612 400.576 96.604C400.932 96.951 401.109 97.3848 401.109 97.9053C401.109 98.5908 400.853 99.1515 400.341 99.5874C399.833 100.019 399.046 100.235 397.98 100.235C396.892 100.235 396.088 100.006 395.568 99.5493C395.052 99.0881 394.793 98.502 394.793 97.791H396.628C396.666 98.1126 396.749 98.3411 396.875 98.4766C397.1 98.7178 397.514 98.8384 398.12 98.8384C398.475 98.8384 398.757 98.7855 398.964 98.6797C399.175 98.5739 399.281 98.4152 399.281 98.2036C399.281 98.0005 399.197 97.846 399.027 97.7402C398.858 97.6344 398.23 97.4525 397.142 97.1943C396.359 96.9997 395.807 96.7563 395.485 96.4644C395.164 96.1766 395.003 95.7619 395.003 95.2202C395.003 94.5812 395.253 94.0332 395.752 93.5762C396.256 93.1149 396.962 92.8843 397.872 92.8843C398.735 92.8843 399.44 93.0557 399.986 93.3984ZM408.377 97.9688C408.331 98.3792 408.117 98.7961 407.736 99.2192C407.144 99.8921 406.314 100.229 405.248 100.229C404.368 100.229 403.591 99.945 402.918 99.3779C402.246 98.8109 401.909 97.8883 401.909 96.6104C401.909 95.4128 402.212 94.4945 402.817 93.8555C403.426 93.2165 404.215 92.897 405.185 92.897C405.76 92.897 406.278 93.0049 406.74 93.2207C407.201 93.4365 407.582 93.7772 407.882 94.2427C408.153 94.6532 408.329 95.1292 408.409 95.6709C408.456 95.9883 408.475 96.4453 408.466 97.042H403.731C403.756 97.736 403.974 98.2227 404.385 98.502C404.634 98.6755 404.935 98.7622 405.286 98.7622C405.659 98.7622 405.961 98.6564 406.194 98.4448C406.321 98.3306 406.433 98.1719 406.53 97.9688H408.377ZM406.587 95.8486C406.558 95.3704 406.412 95.0086 406.149 94.7632C405.891 94.5135 405.57 94.3887 405.185 94.3887C404.766 94.3887 404.44 94.5199 404.207 94.7822C403.979 95.0446 403.835 95.4001 403.775 95.8486H406.587ZM412.859 98.7114V100.063L412.002 100.095C411.147 100.125 410.563 99.9767 410.25 99.6509C410.047 99.4435 409.945 99.124 409.945 98.6924V94.4331H408.98V93.1445H409.945V91.2148H411.735V93.1445H412.859V94.4331H411.735V98.0894C411.735 98.3729 411.771 98.5506 411.843 98.6226C411.915 98.6903 412.135 98.7241 412.503 98.7241C412.558 98.7241 412.616 98.7241 412.675 98.7241C412.738 98.7199 412.8 98.7157 412.859 98.7114ZM421.174 93.6016C421.314 93.3011 421.492 93.0789 421.708 92.9351C421.923 92.7912 422.188 92.7192 422.501 92.7192C423.115 92.7192 423.538 92.9308 423.771 93.354C424.007 93.7772 424.126 94.6574 424.126 95.9946V100H422.603V95.436C422.603 94.9071 422.562 94.5537 422.482 94.376C422.402 94.1982 422.256 94.1094 422.044 94.1094C421.832 94.1094 421.684 94.2004 421.6 94.3823C421.515 94.5643 421.473 94.9155 421.473 95.436V100H419.968V95.436C419.968 94.9155 419.926 94.5643 419.841 94.3823C419.757 94.2004 419.609 94.1094 419.397 94.1094C419.185 94.1094 419.039 94.1982 418.959 94.376C418.879 94.5537 418.838 94.9071 418.838 95.436V100H417.315V92.8906H418.667V93.627C418.773 93.3477 418.942 93.1276 419.175 92.9668C419.408 92.8018 419.668 92.7192 419.956 92.7192C420.243 92.7192 420.506 92.806 420.743 92.9795C420.98 93.1488 421.124 93.3561 421.174 93.6016ZM429.007 90.8721V92.8906H431.438V94.3188H429.007V97.6831C429.007 98.0005 429.083 98.229 429.236 98.3687C429.392 98.5041 429.651 98.5718 430.01 98.5718H431.438V100H429.877C428.811 100 428.089 99.8307 427.712 99.4922C427.336 99.1494 427.147 98.5168 427.147 97.5942V94.3188H425.332V92.8906H427.147V90.8721H429.007ZM439.456 99.6509C439.024 99.8286 438.584 99.9619 438.135 100.051C437.687 100.14 437.213 100.184 436.713 100.184C435.524 100.184 434.614 99.8667 433.984 99.2319C433.358 98.5929 433.044 97.6746 433.044 96.4771C433.044 95.3175 433.347 94.4014 433.952 93.7285C434.557 93.0557 435.382 92.7192 436.428 92.7192C437.481 92.7192 438.298 93.0324 438.878 93.6587C439.462 94.2808 439.754 95.1589 439.754 96.293V97.0483H434.936C434.94 97.6069 435.105 98.0238 435.431 98.2988C435.757 98.5739 436.244 98.7114 436.891 98.7114C437.319 98.7114 437.74 98.6501 438.154 98.5273C438.569 98.4046 439.003 98.21 439.456 97.9434V99.6509ZM437.881 95.6519C437.873 95.161 437.746 94.7907 437.5 94.541C437.259 94.2871 436.902 94.1602 436.428 94.1602C436 94.1602 435.66 94.2913 435.406 94.5537C435.152 94.8118 435.002 95.18 434.955 95.6582L437.881 95.6519ZM440.852 96.623H447.562V98.1274H440.852V96.623ZM440.852 93.7349H447.562V95.2266H440.852V93.7349ZM448.907 95.271C448.907 93.6291 449.167 92.3997 449.688 91.583C450.208 90.762 450.991 90.3516 452.037 90.3516C453.086 90.3516 453.871 90.7599 454.392 91.5767C454.912 92.3934 455.172 93.6248 455.172 95.271C455.172 96.9129 454.912 98.1423 454.392 98.959C453.871 99.7757 453.086 100.184 452.037 100.184C450.991 100.184 450.208 99.7757 449.688 98.959C449.167 98.138 448.907 96.9087 448.907 95.271ZM451.091 97.8037C451.29 98.3327 451.605 98.5972 452.037 98.5972C452.472 98.5972 452.79 98.3327 452.989 97.8037C453.188 97.2747 453.287 96.4305 453.287 95.271C453.287 94.8309 453.272 94.4373 453.243 94.0903L451.027 97.6196C451.049 97.6873 451.07 97.7487 451.091 97.8037ZM452.037 91.9385C451.605 91.9385 451.29 92.203 451.091 92.7319C450.892 93.2609 450.792 94.1073 450.792 95.271C450.792 95.6307 450.801 95.9587 450.818 96.2549L453.001 92.77C452.997 92.7573 452.993 92.7446 452.989 92.7319C452.79 92.203 452.472 91.9385 452.037 91.9385ZM463.228 92.8906L460.834 96.293L463.437 100H461.266L459.87 97.6069L458.479 100H456.309L458.937 96.293L456.518 92.8906H458.689L459.87 95.0107L461.057 92.8906H463.228ZM464.986 98.3496H467.081V92.1987L465.132 92.6812V90.9927L467.093 90.5229H468.902V98.3496H470.997V100H464.986V98.3496ZM473.549 102.006L473.098 102.622H471.759C472.317 101.614 472.707 100.789 472.927 100.146C473.303 99.0584 473.492 97.8672 473.492 96.5723C473.492 95.7428 473.424 94.9769 473.289 94.2744C473.081 93.2038 472.711 92.1797 472.178 91.2021L471.791 90.4912H473.155C473.799 91.3883 474.287 92.2262 474.622 93.0049C475.117 94.1475 475.364 95.2985 475.364 96.458C475.364 97.7318 475.07 99.0267 474.482 100.343C474.152 101.079 473.841 101.633 473.549 102.006Z" fill="white"/>
<path d="M676.5 40.5V109.5H533.5V40.5H676.5Z" fill="#1B1B1B" stroke="white"/>
<path d="M556.263 62.2603C554.925 62.2603 553.903 61.8963 553.197 61.1685C552.249 60.2756 551.775 58.9891 551.775 57.3091C551.775 55.5952 552.249 54.3088 553.197 53.4497C553.903 52.7218 554.925 52.3579 556.263 52.3579C557.6 52.3579 558.622 52.7218 559.329 53.4497C560.272 54.3088 560.744 55.5952 560.744 57.3091C560.744 58.9891 560.272 60.2756 559.329 61.1685C558.622 61.8963 557.6 62.2603 556.263 62.2603ZM558.11 59.7466C558.563 59.1753 558.789 58.3628 558.789 57.3091C558.789 56.2596 558.561 55.4492 558.104 54.8779C557.651 54.3024 557.037 54.0146 556.263 54.0146C555.488 54.0146 554.87 54.3003 554.409 54.8716C553.948 55.4429 553.717 56.2554 553.717 57.3091C553.717 58.3628 553.948 59.1753 554.409 59.7466C554.87 60.3179 555.488 60.6035 556.263 60.6035C557.037 60.6035 557.653 60.3179 558.11 59.7466ZM565.638 60.6479C566.099 60.6479 566.474 60.5972 566.762 60.4956C567.308 60.3009 567.581 59.9391 567.581 59.4102C567.581 59.1012 567.445 58.8621 567.174 58.6929C566.903 58.5278 566.478 58.3818 565.898 58.2549L564.908 58.0327C563.935 57.8127 563.262 57.5736 562.89 57.3154C562.259 56.8838 561.944 56.2088 561.944 55.2905C561.944 54.4526 562.249 53.7565 562.858 53.2021C563.467 52.6478 564.362 52.3706 565.543 52.3706C566.529 52.3706 567.369 52.633 568.063 53.1577C568.761 53.6782 569.127 54.4357 569.161 55.4302H567.282C567.248 54.8674 567.003 54.4674 566.546 54.2305C566.241 54.0739 565.862 53.9956 565.41 53.9956C564.906 53.9956 564.504 54.0972 564.204 54.3003C563.903 54.5034 563.753 54.7869 563.753 55.1509C563.753 55.4852 563.901 55.7349 564.197 55.8999C564.388 56.0099 564.794 56.139 565.416 56.2871L567.028 56.6743C567.735 56.8436 568.268 57.07 568.628 57.3535C569.187 57.7936 569.466 58.4305 569.466 59.2642C569.466 60.119 569.138 60.8299 568.482 61.397C567.83 61.9598 566.908 62.2412 565.714 62.2412C564.496 62.2412 563.537 61.964 562.839 61.4097C562.141 60.8511 561.792 60.0851 561.792 59.1118H563.658C563.717 59.5392 563.833 59.8587 564.007 60.0703C564.324 60.4554 564.868 60.6479 565.638 60.6479ZM569.212 62L572.836 52.3579H574.341L570.704 62H569.212ZM580.066 58.3945V52.6436H582.053V58.3945C582.053 59.389 581.899 60.1634 581.59 60.7178C581.014 61.7334 579.916 62.2412 578.295 62.2412C576.675 62.2412 575.574 61.7334 574.995 60.7178C574.686 60.1634 574.531 59.389 574.531 58.3945V52.6436H576.518V58.3945C576.518 59.0378 576.594 59.5075 576.747 59.8037C576.984 60.3285 577.5 60.5908 578.295 60.5908C579.087 60.5908 579.601 60.3285 579.838 59.8037C579.99 59.5075 580.066 59.0378 580.066 58.3945ZM588.547 55.3984C589.089 55.7454 589.4 56.3421 589.48 57.1885H587.671C587.646 56.9557 587.58 56.7716 587.474 56.6362C587.275 56.3908 586.937 56.2681 586.458 56.2681C586.065 56.2681 585.784 56.3294 585.614 56.4521C585.449 56.5749 585.367 56.7188 585.367 56.8838C585.367 57.0911 585.456 57.2414 585.633 57.3345C585.811 57.4318 586.439 57.599 587.519 57.8359C588.238 58.0052 588.778 58.2612 589.137 58.604C589.493 58.951 589.67 59.3848 589.67 59.9053C589.67 60.5908 589.414 61.1515 588.902 61.5874C588.395 62.019 587.607 62.2349 586.541 62.2349C585.453 62.2349 584.649 62.0063 584.129 61.5493C583.613 61.0881 583.354 60.502 583.354 59.791H585.189C585.227 60.1126 585.31 60.3411 585.437 60.4766C585.661 60.7178 586.076 60.8384 586.681 60.8384C587.036 60.8384 587.318 60.7855 587.525 60.6797C587.736 60.5739 587.842 60.4152 587.842 60.2036C587.842 60.0005 587.758 59.846 587.588 59.7402C587.419 59.6344 586.791 59.4525 585.703 59.1943C584.92 58.9997 584.368 58.7563 584.046 58.4644C583.725 58.1766 583.564 57.7619 583.564 57.2202C583.564 56.5812 583.814 56.0332 584.313 55.5762C584.817 55.1149 585.523 54.8843 586.433 54.8843C587.296 54.8843 588.001 55.0557 588.547 55.3984ZM596.938 59.9688C596.892 60.3792 596.678 60.7961 596.297 61.2192C595.705 61.8921 594.875 62.2285 593.809 62.2285C592.929 62.2285 592.152 61.945 591.479 61.3779C590.807 60.8109 590.47 59.8883 590.47 58.6104C590.47 57.4128 590.773 56.4945 591.378 55.8555C591.987 55.2165 592.777 54.897 593.746 54.897C594.321 54.897 594.84 55.0049 595.301 55.2207C595.762 55.4365 596.143 55.7772 596.443 56.2427C596.714 56.6532 596.89 57.1292 596.97 57.6709C597.017 57.9883 597.036 58.4453 597.027 59.042H592.292C592.317 59.736 592.535 60.2227 592.946 60.502C593.195 60.6755 593.496 60.7622 593.847 60.7622C594.22 60.7622 594.522 60.6564 594.755 60.4448C594.882 60.3306 594.994 60.1719 595.091 59.9688H596.938ZM595.148 57.8486C595.119 57.3704 594.973 57.0086 594.71 56.7632C594.452 56.5135 594.131 56.3887 593.746 56.3887C593.327 56.3887 593.001 56.5199 592.768 56.7822C592.54 57.0446 592.396 57.4001 592.336 57.8486H595.148ZM601.731 56.7505C601.003 56.7505 600.514 56.9875 600.265 57.4614C600.125 57.728 600.055 58.1385 600.055 58.6929V62H598.233V55.0811H599.96V56.2871C600.239 55.8258 600.483 55.5106 600.69 55.3413C601.028 55.0578 601.469 54.916 602.01 54.916C602.044 54.916 602.072 54.9181 602.093 54.9224C602.118 54.9224 602.171 54.9245 602.251 54.9287V56.7822C602.137 56.7695 602.036 56.7611 601.947 56.7568C601.858 56.7526 601.786 56.7505 601.731 56.7505ZM612.731 55.8237C613.29 56.4204 613.569 57.2964 613.569 58.4517C613.569 59.6704 613.294 60.5993 612.744 61.2383C612.198 61.8773 611.494 62.1968 610.63 62.1968C610.08 62.1968 609.623 62.0592 609.259 61.7842C609.06 61.6318 608.866 61.4097 608.675 61.1177V64.7231H606.885V55.0811H608.618V56.103C608.813 55.8026 609.02 55.5656 609.24 55.3921C609.642 55.0832 610.12 54.9287 610.675 54.9287C611.483 54.9287 612.169 55.2271 612.731 55.8237ZM611.703 58.5405C611.703 58.0073 611.58 57.5355 611.335 57.125C611.094 56.7145 610.7 56.5093 610.154 56.5093C609.498 56.5093 609.048 56.8203 608.802 57.4424C608.675 57.7725 608.612 58.1914 608.612 58.6992C608.612 59.5033 608.826 60.0682 609.253 60.394C609.507 60.5845 609.807 60.6797 610.154 60.6797C610.658 60.6797 611.041 60.485 611.303 60.0957C611.57 59.7064 611.703 59.188 611.703 58.5405ZM618.362 56.7505C617.634 56.7505 617.145 56.9875 616.896 57.4614C616.756 57.728 616.686 58.1385 616.686 58.6929V62H614.864V55.0811H616.591V56.2871C616.87 55.8258 617.113 55.5106 617.321 55.3413C617.659 55.0578 618.099 54.916 618.641 54.916C618.675 54.916 618.702 54.9181 618.724 54.9224C618.749 54.9224 618.802 54.9245 618.882 54.9287V56.7822C618.768 56.7695 618.667 56.7611 618.578 56.7568C618.489 56.7526 618.417 56.7505 618.362 56.7505ZM625.719 55.957C626.303 56.6891 626.595 57.5545 626.595 58.5532C626.595 59.5688 626.303 60.4385 625.719 61.1621C625.135 61.8815 624.248 62.2412 623.059 62.2412C621.87 62.2412 620.983 61.8815 620.399 61.1621C619.815 60.4385 619.523 59.5688 619.523 58.5532C619.523 57.5545 619.815 56.6891 620.399 55.957C620.983 55.2249 621.87 54.8589 623.059 54.8589C624.248 54.8589 625.135 55.2249 625.719 55.957ZM623.053 56.3887C622.524 56.3887 622.115 56.577 621.828 56.9536C621.544 57.326 621.402 57.8592 621.402 58.5532C621.402 59.2472 621.544 59.7826 621.828 60.1592C622.115 60.5358 622.524 60.7241 623.053 60.7241C623.582 60.7241 623.988 60.5358 624.271 60.1592C624.555 59.7826 624.697 59.2472 624.697 58.5532C624.697 57.8592 624.555 57.326 624.271 56.9536C623.988 56.577 623.582 56.3887 623.053 56.3887ZM629.851 63.2124C630.046 63.3774 630.374 63.46 630.835 63.46C631.487 63.46 631.923 63.242 632.143 62.8062C632.286 62.5269 632.358 62.0571 632.358 61.397V60.9526C632.185 61.2489 631.999 61.471 631.8 61.6191C631.44 61.8942 630.972 62.0317 630.397 62.0317C629.508 62.0317 628.797 61.7207 628.264 61.0986C627.735 60.4723 627.471 59.626 627.471 58.5596C627.471 57.5312 627.727 56.668 628.239 55.9697C628.751 55.2673 629.477 54.916 630.416 54.916C630.763 54.916 631.066 54.9689 631.324 55.0747C631.764 55.2567 632.119 55.591 632.39 56.0776V55.0811H634.148V61.6445C634.148 62.5374 633.998 63.2103 633.698 63.6631C633.181 64.4417 632.191 64.8311 630.727 64.8311C629.843 64.8311 629.121 64.6576 628.562 64.3105C628.004 63.9635 627.695 63.4451 627.636 62.7554H629.604C629.654 62.967 629.737 63.1193 629.851 63.2124ZM629.546 59.6387C629.792 60.2227 630.232 60.5146 630.867 60.5146C631.29 60.5146 631.647 60.356 631.939 60.0386C632.231 59.717 632.377 59.207 632.377 58.5088C632.377 57.8529 632.238 57.3535 631.958 57.0107C631.683 56.668 631.313 56.4966 630.848 56.4966C630.213 56.4966 629.775 56.7949 629.534 57.3916C629.407 57.709 629.343 58.1004 629.343 58.5659C629.343 58.9679 629.411 59.3255 629.546 59.6387ZM639.322 56.7505C638.594 56.7505 638.105 56.9875 637.855 57.4614C637.716 57.728 637.646 58.1385 637.646 58.6929V62H635.824V55.0811H637.551V56.2871C637.83 55.8258 638.073 55.5106 638.281 55.3413C638.619 55.0578 639.059 54.916 639.601 54.916C639.635 54.916 639.662 54.9181 639.684 54.9224C639.709 54.9224 639.762 54.9245 639.842 54.9287V56.7822C639.728 56.7695 639.626 56.7611 639.538 56.7568C639.449 56.7526 639.377 56.7505 639.322 56.7505ZM641.169 55.8301C641.647 55.2207 642.468 54.916 643.632 54.916C644.389 54.916 645.062 55.0662 645.65 55.3667C646.239 55.6672 646.533 56.2342 646.533 57.0679V60.2417C646.533 60.4618 646.537 60.7284 646.545 61.0415C646.558 61.2785 646.594 61.4393 646.653 61.5239C646.713 61.6086 646.801 61.6784 646.92 61.7334V62H644.952C644.897 61.8604 644.859 61.7292 644.838 61.6064C644.817 61.4837 644.8 61.3441 644.787 61.1875C644.537 61.4583 644.25 61.689 643.924 61.8794C643.535 62.1037 643.094 62.2158 642.604 62.2158C641.977 62.2158 641.459 62.0381 641.048 61.6826C640.642 61.3229 640.439 60.8151 640.439 60.1592C640.439 59.3086 640.767 58.6929 641.423 58.312C641.783 58.1047 642.312 57.9565 643.01 57.8677L643.625 57.7915C643.96 57.7492 644.199 57.6963 644.343 57.6328C644.601 57.5228 644.73 57.3514 644.73 57.1187C644.73 56.8351 644.631 56.6405 644.432 56.5347C644.237 56.4246 643.949 56.3696 643.568 56.3696C643.141 56.3696 642.838 56.4754 642.661 56.687C642.534 56.8436 642.449 57.0552 642.407 57.3218H640.661C640.699 56.7166 640.868 56.2194 641.169 55.8301ZM642.515 60.6924C642.684 60.832 642.891 60.9019 643.137 60.9019C643.526 60.9019 643.884 60.7876 644.209 60.5591C644.54 60.3306 644.711 59.9137 644.724 59.3086V58.6357C644.609 58.7077 644.493 58.7669 644.375 58.8135C644.26 58.8558 644.102 58.896 643.898 58.9341L643.492 59.0103C643.111 59.078 642.838 59.1605 642.673 59.2578C642.394 59.4229 642.254 59.6789 642.254 60.0259C642.254 60.3348 642.341 60.557 642.515 60.6924ZM652.03 56.9854C651.877 56.651 651.579 56.4839 651.135 56.4839C650.618 56.4839 650.271 56.651 650.094 56.9854C649.996 57.1758 649.948 57.4593 649.948 57.8359V62H648.113V55.0938H649.872V56.103C650.096 55.7433 650.307 55.4873 650.506 55.335C650.858 55.0641 651.312 54.9287 651.871 54.9287C652.4 54.9287 652.827 55.0451 653.153 55.2778C653.416 55.4937 653.615 55.7708 653.75 56.1094C653.987 55.7031 654.281 55.4048 654.632 55.2144C655.005 55.0239 655.419 54.9287 655.876 54.9287C656.181 54.9287 656.482 54.988 656.778 55.1064C657.074 55.2249 657.343 55.4323 657.584 55.7285C657.779 55.9697 657.91 56.266 657.978 56.6172C658.02 56.8499 658.041 57.1906 658.041 57.6392L658.028 62H656.175V57.5947C656.175 57.3324 656.132 57.1165 656.048 56.9473C655.887 56.6257 655.591 56.4648 655.159 56.4648C654.66 56.4648 654.315 56.6722 654.125 57.0869C654.027 57.307 653.979 57.5715 653.979 57.8804V62H652.157V57.8804C652.157 57.4699 652.114 57.1715 652.03 56.9854ZM553.267 75.7505C552.539 75.7505 552.05 75.9875 551.8 76.4614C551.661 76.728 551.591 77.1385 551.591 77.6929V81H549.769V74.0811H551.496V75.2871C551.775 74.8258 552.018 74.5106 552.226 74.3413C552.564 74.0578 553.004 73.916 553.546 73.916C553.58 73.916 553.607 73.9181 553.628 73.9224C553.654 73.9224 553.707 73.9245 553.787 73.9287V75.7822C553.673 75.7695 553.571 75.7611 553.482 75.7568C553.394 75.7526 553.322 75.7505 553.267 75.7505ZM560.776 78.9688C560.729 79.3792 560.516 79.7961 560.135 80.2192C559.542 80.8921 558.713 81.2285 557.646 81.2285C556.766 81.2285 555.99 80.945 555.317 80.3779C554.644 79.8109 554.308 78.8883 554.308 77.6104C554.308 76.4128 554.61 75.4945 555.215 74.8555C555.825 74.2165 556.614 73.897 557.583 73.897C558.159 73.897 558.677 74.0049 559.138 74.2207C559.599 74.4365 559.98 74.7772 560.281 75.2427C560.552 75.6532 560.727 76.1292 560.808 76.6709C560.854 76.9883 560.873 77.4453 560.865 78.042H556.129C556.155 78.736 556.373 79.2227 556.783 79.502C557.033 79.6755 557.333 79.7622 557.685 79.7622C558.057 79.7622 558.36 79.6564 558.592 79.4448C558.719 79.3306 558.831 79.1719 558.929 78.9688H560.776ZM558.986 76.8486C558.956 76.3704 558.81 76.0086 558.548 75.7632C558.29 75.5135 557.968 75.3887 557.583 75.3887C557.164 75.3887 556.838 75.5199 556.605 75.7822C556.377 76.0446 556.233 76.4001 556.174 76.8486H558.986ZM562.35 74.8301C562.828 74.2207 563.649 73.916 564.813 73.916C565.57 73.916 566.243 74.0662 566.832 74.3667C567.42 74.6672 567.714 75.2342 567.714 76.0679V79.2417C567.714 79.4618 567.718 79.7284 567.727 80.0415C567.739 80.2785 567.775 80.4393 567.834 80.5239C567.894 80.6086 567.983 80.6784 568.101 80.7334V81H566.133C566.078 80.8604 566.04 80.7292 566.019 80.6064C565.998 80.4837 565.981 80.3441 565.968 80.1875C565.719 80.4583 565.431 80.689 565.105 80.8794C564.716 81.1037 564.276 81.2158 563.785 81.2158C563.158 81.2158 562.64 81.0381 562.229 80.6826C561.823 80.3229 561.62 79.8151 561.62 79.1592C561.62 78.3086 561.948 77.6929 562.604 77.312C562.964 77.1047 563.493 76.9565 564.191 76.8677L564.807 76.7915C565.141 76.7492 565.38 76.6963 565.524 76.6328C565.782 76.5228 565.911 76.3514 565.911 76.1187C565.911 75.8351 565.812 75.6405 565.613 75.5347C565.418 75.4246 565.13 75.3696 564.75 75.3696C564.322 75.3696 564.02 75.4754 563.842 75.687C563.715 75.8436 563.63 76.0552 563.588 76.3218H561.842C561.88 75.7166 562.05 75.2194 562.35 74.8301ZM563.696 79.6924C563.865 79.832 564.072 79.9019 564.318 79.9019C564.707 79.9019 565.065 79.7876 565.391 79.5591C565.721 79.3306 565.892 78.9137 565.905 78.3086V77.6357C565.791 77.7077 565.674 77.7669 565.556 77.8135C565.441 77.8558 565.283 77.896 565.08 77.9341L564.673 78.0103C564.292 78.078 564.02 78.1605 563.854 78.2578C563.575 78.4229 563.436 78.6789 563.436 79.0259C563.436 79.3348 563.522 79.557 563.696 79.6924ZM575.623 71.6562V81H573.865V80.0415C573.607 80.452 573.312 80.7503 572.982 80.9365C572.652 81.1227 572.242 81.2158 571.751 81.2158C570.943 81.2158 570.261 80.89 569.707 80.2383C569.157 79.5824 568.882 78.7424 568.882 77.7183C568.882 76.5376 569.153 75.6087 569.694 74.9316C570.24 74.2546 570.968 73.916 571.878 73.916C572.297 73.916 572.669 74.0091 572.995 74.1953C573.321 74.3773 573.585 74.6312 573.789 74.957V71.6562H575.623ZM570.748 77.585C570.748 78.224 570.875 78.7339 571.129 79.1147C571.379 79.4998 571.759 79.6924 572.271 79.6924C572.784 79.6924 573.173 79.502 573.439 79.1211C573.706 78.7402 573.839 78.2472 573.839 77.6421C573.839 76.7957 573.626 76.1906 573.198 75.8267C572.936 75.6066 572.631 75.4966 572.284 75.4966C571.755 75.4966 571.366 75.6976 571.116 76.0996C570.871 76.4974 570.748 76.9925 570.748 77.585ZM582.041 74.3984C582.582 74.7454 582.893 75.3421 582.974 76.1885H581.165C581.139 75.9557 581.074 75.7716 580.968 75.6362C580.769 75.3908 580.43 75.2681 579.952 75.2681C579.559 75.2681 579.277 75.3294 579.108 75.4521C578.943 75.5749 578.86 75.7188 578.86 75.8838C578.86 76.0911 578.949 76.2414 579.127 76.3345C579.305 76.4318 579.933 76.599 581.012 76.8359C581.732 77.0052 582.271 77.2612 582.631 77.604C582.986 77.951 583.164 78.3848 583.164 78.9053C583.164 79.5908 582.908 80.1515 582.396 80.5874C581.888 81.019 581.101 81.2349 580.035 81.2349C578.947 81.2349 578.143 81.0063 577.623 80.5493C577.106 80.0881 576.848 79.502 576.848 78.791H578.683C578.721 79.1126 578.803 79.3411 578.93 79.4766C579.154 79.7178 579.569 79.8384 580.174 79.8384C580.53 79.8384 580.811 79.7855 581.019 79.6797C581.23 79.5739 581.336 79.4152 581.336 79.2036C581.336 79.0005 581.251 78.846 581.082 78.7402C580.913 78.6344 580.284 78.4525 579.197 78.1943C578.414 77.9997 577.862 77.7563 577.54 77.4644C577.218 77.1766 577.058 76.7619 577.058 76.2202C577.058 75.5812 577.307 75.0332 577.807 74.5762C578.31 74.1149 579.017 73.8843 579.927 73.8843C580.79 73.8843 581.495 74.0557 582.041 74.3984ZM591.295 79.7114V81.0635L590.438 81.0952C589.584 81.1248 589 80.9767 588.687 80.6509C588.483 80.4435 588.382 80.124 588.382 79.6924V75.4331H587.417V74.1445H588.382V72.2148H590.172V74.1445H591.295V75.4331H590.172V79.0894C590.172 79.3729 590.208 79.5506 590.28 79.6226C590.352 79.6903 590.572 79.7241 590.94 79.7241C590.995 79.7241 591.052 79.7241 591.111 79.7241C591.175 79.7199 591.236 79.7157 591.295 79.7114ZM598.709 76.9375V81H596.862V76.7915C596.862 76.4191 596.799 76.1187 596.672 75.8901C596.507 75.5685 596.194 75.4077 595.732 75.4077C595.254 75.4077 594.89 75.5685 594.641 75.8901C594.395 76.2075 594.272 76.6624 594.272 77.2549V81H592.47V71.6753H594.272V74.9824C594.535 74.5804 594.837 74.3011 595.18 74.1445C595.527 73.9837 595.891 73.9033 596.272 73.9033C596.699 73.9033 597.087 73.9774 597.434 74.1255C597.785 74.2736 598.073 74.5 598.297 74.8047C598.487 75.0628 598.604 75.3294 598.646 75.6045C598.688 75.8753 598.709 76.3197 598.709 76.9375ZM606.327 78.9688C606.28 79.3792 606.066 79.7961 605.686 80.2192C605.093 80.8921 604.264 81.2285 603.197 81.2285C602.317 81.2285 601.541 80.945 600.868 80.3779C600.195 79.8109 599.858 78.8883 599.858 77.6104C599.858 76.4128 600.161 75.4945 600.766 74.8555C601.375 74.2165 602.165 73.897 603.134 73.897C603.709 73.897 604.228 74.0049 604.689 74.2207C605.15 74.4365 605.531 74.7772 605.832 75.2427C606.102 75.6532 606.278 76.1292 606.358 76.6709C606.405 76.9883 606.424 77.4453 606.416 78.042H601.68C601.706 78.736 601.924 79.2227 602.334 79.502C602.584 79.6755 602.884 79.7622 603.235 79.7622C603.608 79.7622 603.91 79.6564 604.143 79.4448C604.27 79.3306 604.382 79.1719 604.479 78.9688H606.327ZM604.537 76.8486C604.507 76.3704 604.361 76.0086 604.099 75.7632C603.84 75.5135 603.519 75.3887 603.134 75.3887C602.715 75.3887 602.389 75.5199 602.156 75.7822C601.928 76.0446 601.784 76.4001 601.725 76.8486H604.537ZM614.737 75.7505C614.009 75.7505 613.521 75.9875 613.271 76.4614C613.131 76.728 613.062 77.1385 613.062 77.6929V81H611.24V74.0811H612.966V75.2871C613.246 74.8258 613.489 74.5106 613.696 74.3413C614.035 74.0578 614.475 73.916 615.017 73.916C615.05 73.916 615.078 73.9181 615.099 73.9224C615.125 73.9224 615.177 73.9245 615.258 73.9287V75.7822C615.144 75.7695 615.042 75.7611 614.953 75.7568C614.864 75.7526 614.792 75.7505 614.737 75.7505ZM622.247 78.9688C622.2 79.3792 621.986 79.7961 621.605 80.2192C621.013 80.8921 620.184 81.2285 619.117 81.2285C618.237 81.2285 617.46 80.945 616.788 80.3779C616.115 79.8109 615.778 78.8883 615.778 77.6104C615.778 76.4128 616.081 75.4945 616.686 74.8555C617.295 74.2165 618.085 73.897 619.054 73.897C619.629 73.897 620.148 74.0049 620.609 74.2207C621.07 74.4365 621.451 74.7772 621.751 75.2427C622.022 75.6532 622.198 76.1292 622.278 76.6709C622.325 76.9883 622.344 77.4453 622.335 78.042H617.6C617.625 78.736 617.843 79.2227 618.254 79.502C618.504 79.6755 618.804 79.7622 619.155 79.7622C619.528 79.7622 619.83 79.6564 620.063 79.4448C620.19 79.3306 620.302 79.1719 620.399 78.9688H622.247ZM620.457 76.8486C620.427 76.3704 620.281 76.0086 620.019 75.7632C619.76 75.5135 619.439 75.3887 619.054 75.3887C618.635 75.3887 618.309 75.5199 618.076 75.7822C617.848 76.0446 617.704 76.4001 617.645 76.8486H620.457ZM625.516 82.2124C625.71 82.3774 626.038 82.46 626.5 82.46C627.151 82.46 627.587 82.242 627.807 81.8062C627.951 81.5269 628.023 81.0571 628.023 80.397V79.9526C627.849 80.2489 627.663 80.471 627.464 80.6191C627.105 80.8942 626.637 81.0317 626.062 81.0317C625.173 81.0317 624.462 80.7207 623.929 80.0986C623.4 79.4723 623.135 78.626 623.135 77.5596C623.135 76.5312 623.391 75.668 623.903 74.9697C624.415 74.2673 625.141 73.916 626.081 73.916C626.428 73.916 626.73 73.9689 626.988 74.0747C627.428 74.2567 627.784 74.591 628.055 75.0776V74.0811H629.813V80.6445C629.813 81.5374 629.663 82.2103 629.362 82.6631C628.846 83.4417 627.856 83.8311 626.392 83.8311C625.507 83.8311 624.786 83.6576 624.227 83.3105C623.668 82.9635 623.36 82.4451 623.3 81.7554H625.268C625.319 81.967 625.401 82.1193 625.516 82.2124ZM625.211 78.6387C625.456 79.2227 625.896 79.5146 626.531 79.5146C626.954 79.5146 627.312 79.356 627.604 79.0386C627.896 78.717 628.042 78.207 628.042 77.5088C628.042 76.8529 627.902 76.3535 627.623 76.0107C627.348 75.668 626.978 75.4966 626.512 75.4966C625.877 75.4966 625.439 75.7949 625.198 76.3916C625.071 76.709 625.008 77.1004 625.008 77.5659C625.008 77.9679 625.076 78.3255 625.211 78.6387ZM633.368 74.0811V81H631.533V74.0811H633.368ZM633.368 71.5864V73.2559H631.533V71.5864H633.368ZM639.893 74.3984C640.435 74.7454 640.746 75.3421 640.826 76.1885H639.017C638.992 75.9557 638.926 75.7716 638.82 75.6362C638.621 75.3908 638.283 75.2681 637.805 75.2681C637.411 75.2681 637.13 75.3294 636.96 75.4521C636.795 75.5749 636.713 75.7188 636.713 75.8838C636.713 76.0911 636.802 76.2414 636.979 76.3345C637.157 76.4318 637.786 76.599 638.865 76.8359C639.584 77.0052 640.124 77.2612 640.483 77.604C640.839 77.951 641.017 78.3848 641.017 78.9053C641.017 79.5908 640.761 80.1515 640.249 80.5874C639.741 81.019 638.954 81.2349 637.887 81.2349C636.8 81.2349 635.996 81.0063 635.475 80.5493C634.959 80.0881 634.701 79.502 634.701 78.791H636.535C636.573 79.1126 636.656 79.3411 636.783 79.4766C637.007 79.7178 637.422 79.8384 638.027 79.8384C638.382 79.8384 638.664 79.7855 638.871 79.6797C639.083 79.5739 639.188 79.4152 639.188 79.2036C639.188 79.0005 639.104 78.846 638.935 78.7402C638.765 78.6344 638.137 78.4525 637.049 78.1943C636.266 77.9997 635.714 77.7563 635.393 77.4644C635.071 77.1766 634.91 76.7619 634.91 76.2202C634.91 75.5812 635.16 75.0332 635.659 74.5762C636.163 74.1149 636.869 73.8843 637.779 73.8843C638.643 73.8843 639.347 74.0557 639.893 74.3984ZM645.53 79.7114V81.0635L644.673 81.0952C643.818 81.1248 643.234 80.9767 642.921 80.6509C642.718 80.4435 642.616 80.124 642.616 79.6924V75.4331H641.651V74.1445H642.616V72.2148H644.406V74.1445H645.53V75.4331H644.406V79.0894C644.406 79.3729 644.442 79.5506 644.514 79.6226C644.586 79.6903 644.806 79.7241 645.174 79.7241C645.229 79.7241 645.286 79.7241 645.346 79.7241C645.409 79.7199 645.471 79.7157 645.53 79.7114ZM652.614 78.9688C652.567 79.3792 652.354 79.7961 651.973 80.2192C651.38 80.8921 650.551 81.2285 649.484 81.2285C648.604 81.2285 647.828 80.945 647.155 80.3779C646.482 79.8109 646.146 78.8883 646.146 77.6104C646.146 76.4128 646.448 75.4945 647.053 74.8555C647.663 74.2165 648.452 73.897 649.421 73.897C649.996 73.897 650.515 74.0049 650.976 74.2207C651.437 74.4365 651.818 74.7772 652.119 75.2427C652.389 75.6532 652.565 76.1292 652.646 76.6709C652.692 76.9883 652.711 77.4453 652.703 78.042H647.967C647.993 78.736 648.211 79.2227 648.621 79.502C648.871 79.6755 649.171 79.7622 649.522 79.7622C649.895 79.7622 650.197 79.6564 650.43 79.4448C650.557 79.3306 650.669 79.1719 650.767 78.9688H652.614ZM650.824 76.8486C650.794 76.3704 650.648 76.0086 650.386 75.7632C650.128 75.5135 649.806 75.3887 649.421 75.3887C649.002 75.3887 648.676 75.5199 648.443 75.7822C648.215 76.0446 648.071 76.4001 648.012 76.8486H650.824ZM657.406 75.7505C656.678 75.7505 656.19 75.9875 655.94 76.4614C655.8 76.728 655.73 77.1385 655.73 77.6929V81H653.909V74.0811H655.635V75.2871C655.915 74.8258 656.158 74.5106 656.365 74.3413C656.704 74.0578 657.144 73.916 657.686 73.916C657.719 73.916 657.747 73.9181 657.768 73.9224C657.793 73.9224 657.846 73.9245 657.927 73.9287V75.7822C657.812 75.7695 657.711 75.7611 657.622 75.7568C657.533 75.7526 657.461 75.7505 657.406 75.7505ZM660.028 81.6475C659.952 81.9606 659.81 82.2314 659.603 82.46C659.378 82.7054 659.114 82.8895 658.809 83.0122C658.509 83.1392 658.301 83.2026 658.187 83.2026V82.5044C658.551 82.4028 658.818 82.2336 658.987 81.9966C659.16 81.7596 659.26 81.4274 659.285 81H658.187V79.1084H660.142V80.7461C660.142 81.0339 660.104 81.3343 660.028 81.6475ZM551.305 93.3984C551.847 93.7454 552.158 94.3421 552.238 95.1885H550.429C550.404 94.9557 550.338 94.7716 550.232 94.6362C550.034 94.3908 549.695 94.2681 549.217 94.2681C548.823 94.2681 548.542 94.3294 548.373 94.4521C548.208 94.5749 548.125 94.7188 548.125 94.8838C548.125 95.0911 548.214 95.2414 548.392 95.3345C548.569 95.4318 549.198 95.599 550.277 95.8359C550.996 96.0052 551.536 96.2612 551.896 96.604C552.251 96.951 552.429 97.3848 552.429 97.9053C552.429 98.5908 552.173 99.1515 551.661 99.5874C551.153 100.019 550.366 100.235 549.299 100.235C548.212 100.235 547.408 100.006 546.887 99.5493C546.371 99.0881 546.113 98.502 546.113 97.791H547.947C547.985 98.1126 548.068 98.3411 548.195 98.4766C548.419 98.7178 548.834 98.8384 549.439 98.8384C549.794 98.8384 550.076 98.7855 550.283 98.6797C550.495 98.5739 550.601 98.4152 550.601 98.2036C550.601 98.0005 550.516 97.846 550.347 97.7402C550.177 97.6344 549.549 97.4525 548.461 97.1943C547.679 96.9997 547.126 96.7563 546.805 96.4644C546.483 96.1766 546.322 95.7619 546.322 95.2202C546.322 94.5812 546.572 94.0332 547.071 93.5762C547.575 93.1149 548.282 92.8843 549.191 92.8843C550.055 92.8843 550.759 93.0557 551.305 93.3984ZM559.697 97.9688C559.65 98.3792 559.437 98.7961 559.056 99.2192C558.463 99.8921 557.634 100.229 556.567 100.229C555.687 100.229 554.911 99.945 554.238 99.3779C553.565 98.8109 553.229 97.8883 553.229 96.6104C553.229 95.4128 553.531 94.4945 554.136 93.8555C554.746 93.2165 555.535 92.897 556.504 92.897C557.079 92.897 557.598 93.0049 558.059 93.2207C558.52 93.4365 558.901 93.7772 559.202 94.2427C559.472 94.6532 559.648 95.1292 559.729 95.6709C559.775 95.9883 559.794 96.4453 559.786 97.042H555.05C555.076 97.736 555.294 98.2227 555.704 98.502C555.954 98.6755 556.254 98.7622 556.605 98.7622C556.978 98.7622 557.28 98.6564 557.513 98.4448C557.64 98.3306 557.752 98.1719 557.85 97.9688H559.697ZM557.907 95.8486C557.877 95.3704 557.731 95.0086 557.469 94.7632C557.211 94.5135 556.889 94.3887 556.504 94.3887C556.085 94.3887 555.759 94.5199 555.526 94.7822C555.298 95.0446 555.154 95.4001 555.095 95.8486H557.907ZM566.933 97.9688C566.887 98.3792 566.673 98.7961 566.292 99.2192C565.7 99.8921 564.87 100.229 563.804 100.229C562.924 100.229 562.147 99.945 561.474 99.3779C560.801 98.8109 560.465 97.8883 560.465 96.6104C560.465 95.4128 560.767 94.4945 561.373 93.8555C561.982 93.2165 562.771 92.897 563.74 92.897C564.316 92.897 564.834 93.0049 565.295 93.2207C565.757 93.4365 566.138 93.7772 566.438 94.2427C566.709 94.6532 566.884 95.1292 566.965 95.6709C567.011 95.9883 567.03 96.4453 567.022 97.042H562.287C562.312 97.736 562.53 98.2227 562.94 98.502C563.19 98.6755 563.491 98.7622 563.842 98.7622C564.214 98.7622 564.517 98.6564 564.75 98.4448C564.876 98.3306 564.989 98.1719 565.086 97.9688H566.933ZM565.143 95.8486C565.113 95.3704 564.967 95.0086 564.705 94.7632C564.447 94.5135 564.125 94.3887 563.74 94.3887C563.321 94.3887 562.995 94.5199 562.763 94.7822C562.534 95.0446 562.39 95.4001 562.331 95.8486H565.143ZM573.014 93.3984C573.556 93.7454 573.867 94.3421 573.947 95.1885H572.138C572.113 94.9557 572.047 94.7716 571.941 94.6362C571.743 94.3908 571.404 94.2681 570.926 94.2681C570.532 94.2681 570.251 94.3294 570.082 94.4521C569.917 94.5749 569.834 94.7188 569.834 94.8838C569.834 95.0911 569.923 95.2414 570.101 95.3345C570.278 95.4318 570.907 95.599 571.986 95.8359C572.705 96.0052 573.245 96.2612 573.604 96.604C573.96 96.951 574.138 97.3848 574.138 97.9053C574.138 98.5908 573.882 99.1515 573.37 99.5874C572.862 100.019 572.075 100.235 571.008 100.235C569.921 100.235 569.117 100.006 568.596 99.5493C568.08 99.0881 567.822 98.502 567.822 97.791H569.656C569.694 98.1126 569.777 98.3411 569.904 98.4766C570.128 98.7178 570.543 98.8384 571.148 98.8384C571.503 98.8384 571.785 98.7855 571.992 98.6797C572.204 98.5739 572.31 98.4152 572.31 98.2036C572.31 98.0005 572.225 97.846 572.056 97.7402C571.886 97.6344 571.258 97.4525 570.17 97.1943C569.388 96.9997 568.835 96.7563 568.514 96.4644C568.192 96.1766 568.031 95.7619 568.031 95.2202C568.031 94.5812 568.281 94.0332 568.78 93.5762C569.284 93.1149 569.991 92.8843 570.9 92.8843C571.764 92.8843 572.468 93.0557 573.014 93.3984ZM581.038 100H579.216V90.6436H582.06L583.761 98.0005L585.449 90.6436H588.261V100H586.439V93.6714C586.439 93.4894 586.442 93.2355 586.446 92.9097C586.45 92.5796 586.452 92.3257 586.452 92.1479L584.681 100H582.783L581.025 92.1479C581.025 92.3257 581.027 92.5796 581.031 92.9097C581.035 93.2355 581.038 93.4894 581.038 93.6714V100ZM596.875 90.6436V92.3003H594.076V100H592.108V92.3003H589.296V90.6436H596.875ZM604.537 95.9121H599.992V98.3179H605.171V100H598.081V90.6436H604.943V92.3003H599.992V94.2871H604.537V95.9121ZM610.427 93.8301C610.905 93.2207 611.726 92.916 612.89 92.916C613.648 92.916 614.32 93.0662 614.909 93.3667C615.497 93.6672 615.791 94.2342 615.791 95.0679V98.2417C615.791 98.4618 615.795 98.7284 615.804 99.0415C615.816 99.2785 615.852 99.4393 615.912 99.5239C615.971 99.6086 616.06 99.6784 616.178 99.7334V100H614.21C614.155 99.8604 614.117 99.7292 614.096 99.6064C614.075 99.4837 614.058 99.3441 614.045 99.1875C613.796 99.4583 613.508 99.689 613.182 99.8794C612.793 100.104 612.353 100.216 611.862 100.216C611.236 100.216 610.717 100.038 610.307 99.6826C609.9 99.3229 609.697 98.8151 609.697 98.1592C609.697 97.3086 610.025 96.6929 610.681 96.312C611.041 96.1047 611.57 95.9565 612.268 95.8677L612.884 95.7915C613.218 95.7492 613.457 95.6963 613.601 95.6328C613.859 95.5228 613.988 95.3514 613.988 95.1187C613.988 94.8351 613.889 94.6405 613.69 94.5347C613.495 94.4246 613.208 94.3696 612.827 94.3696C612.399 94.3696 612.097 94.4754 611.919 94.687C611.792 94.8436 611.707 95.0552 611.665 95.3218H609.919C609.958 94.7166 610.127 94.2194 610.427 93.8301ZM611.773 98.6924C611.942 98.832 612.15 98.9019 612.395 98.9019C612.784 98.9019 613.142 98.7876 613.468 98.5591C613.798 98.3306 613.969 97.9137 613.982 97.3086V96.6357C613.868 96.7077 613.751 96.7669 613.633 96.8135C613.519 96.8558 613.36 96.896 613.157 96.9341L612.75 97.0103C612.37 97.078 612.097 97.1605 611.932 97.2578C611.652 97.4229 611.513 97.6789 611.513 98.0259C611.513 98.3348 611.599 98.557 611.773 98.6924ZM616.724 93.0811H618.755L620.196 98.1846L621.669 93.0811H623.611L621.117 100H619.206L616.724 93.0811ZM624.9 93.8301C625.378 93.2207 626.199 92.916 627.363 92.916C628.12 92.916 628.793 93.0662 629.381 93.3667C629.97 93.6672 630.264 94.2342 630.264 95.0679V98.2417C630.264 98.4618 630.268 98.7284 630.276 99.0415C630.289 99.2785 630.325 99.4393 630.384 99.5239C630.444 99.6086 630.532 99.6784 630.651 99.7334V100H628.683C628.628 99.8604 628.59 99.7292 628.569 99.6064C628.548 99.4837 628.531 99.3441 628.518 99.1875C628.268 99.4583 627.981 99.689 627.655 99.8794C627.265 100.104 626.825 100.216 626.334 100.216C625.708 100.216 625.19 100.038 624.779 99.6826C624.373 99.3229 624.17 98.8151 624.17 98.1592C624.17 97.3086 624.498 96.6929 625.154 96.312C625.514 96.1047 626.042 95.9565 626.741 95.8677L627.356 95.7915C627.691 95.7492 627.93 95.6963 628.074 95.6328C628.332 95.5228 628.461 95.3514 628.461 95.1187C628.461 94.8351 628.361 94.6405 628.163 94.5347C627.968 94.4246 627.68 94.3696 627.299 94.3696C626.872 94.3696 626.569 94.4754 626.392 94.687C626.265 94.8436 626.18 95.0552 626.138 95.3218H624.392C624.43 94.7166 624.599 94.2194 624.9 93.8301ZM626.246 98.6924C626.415 98.832 626.622 98.9019 626.868 98.9019C627.257 98.9019 627.615 98.7876 627.94 98.5591C628.271 98.3306 628.442 97.9137 628.455 97.3086V96.6357C628.34 96.7077 628.224 96.7669 628.105 96.8135C627.991 96.8558 627.833 96.896 627.629 96.9341L627.223 97.0103C626.842 97.078 626.569 97.1605 626.404 97.2578C626.125 97.4229 625.985 97.6789 625.985 98.0259C625.985 98.3348 626.072 98.557 626.246 98.6924ZM633.736 93.0811V100H631.901V93.0811H633.736ZM633.736 90.5864V92.2559H631.901V90.5864H633.736ZM635.532 90.6436H637.341V100H635.532V90.6436ZM639.373 93.8301C639.851 93.2207 640.672 92.916 641.835 92.916C642.593 92.916 643.266 93.0662 643.854 93.3667C644.442 93.6672 644.736 94.2342 644.736 95.0679V98.2417C644.736 98.4618 644.741 98.7284 644.749 99.0415C644.762 99.2785 644.798 99.4393 644.857 99.5239C644.916 99.6086 645.005 99.6784 645.124 99.7334V100H643.156C643.101 99.8604 643.063 99.7292 643.042 99.6064C643.02 99.4837 643.003 99.3441 642.991 99.1875C642.741 99.4583 642.453 99.689 642.127 99.8794C641.738 100.104 641.298 100.216 640.807 100.216C640.181 100.216 639.662 100.038 639.252 99.6826C638.846 99.3229 638.643 98.8151 638.643 98.1592C638.643 97.3086 638.971 96.6929 639.626 96.312C639.986 96.1047 640.515 95.9565 641.213 95.8677L641.829 95.7915C642.163 95.7492 642.403 95.6963 642.546 95.6328C642.805 95.5228 642.934 95.3514 642.934 95.1187C642.934 94.8351 642.834 94.6405 642.635 94.5347C642.441 94.4246 642.153 94.3696 641.772 94.3696C641.345 94.3696 641.042 94.4754 640.864 94.687C640.737 94.8436 640.653 95.0552 640.61 95.3218H638.865C638.903 94.7166 639.072 94.2194 639.373 93.8301ZM640.718 98.6924C640.888 98.832 641.095 98.9019 641.34 98.9019C641.73 98.9019 642.087 98.7876 642.413 98.5591C642.743 98.3306 642.915 97.9137 642.927 97.3086V96.6357C642.813 96.7077 642.697 96.7669 642.578 96.8135C642.464 96.8558 642.305 96.896 642.102 96.9341L641.696 97.0103C641.315 97.078 641.042 97.1605 640.877 97.2578C640.598 97.4229 640.458 97.6789 640.458 98.0259C640.458 98.3348 640.545 98.557 640.718 98.6924ZM650.106 100.184C649.535 100.184 649.076 100.07 648.729 99.8413C648.522 99.7059 648.297 99.4689 648.056 99.1304V100H646.285V90.6562H648.088V93.9824C648.316 93.6608 648.568 93.4154 648.843 93.2461C649.169 93.0345 649.584 92.9287 650.087 92.9287C650.997 92.9287 651.708 93.2567 652.22 93.9126C652.736 94.5685 652.995 95.4149 652.995 96.4517C652.995 97.5265 652.741 98.4173 652.233 99.124C651.725 99.8307 651.016 100.184 650.106 100.184ZM651.097 96.6421C651.097 96.1512 651.033 95.745 650.906 95.4233C650.665 94.814 650.221 94.5093 649.573 94.5093C648.917 94.5093 648.467 94.8076 648.221 95.4043C648.094 95.7217 648.031 96.1322 648.031 96.6357C648.031 97.2282 648.162 97.7191 648.424 98.1084C648.687 98.4977 649.087 98.6924 649.624 98.6924C650.09 98.6924 650.451 98.5041 650.709 98.1274C650.968 97.7508 651.097 97.2557 651.097 96.6421ZM654.334 90.6436H656.143V100H654.334V90.6436ZM663.836 97.9688C663.79 98.3792 663.576 98.7961 663.195 99.2192C662.603 99.8921 661.773 100.229 660.707 100.229C659.827 100.229 659.05 99.945 658.377 99.3779C657.705 98.8109 657.368 97.8883 657.368 96.6104C657.368 95.4128 657.671 94.4945 658.276 93.8555C658.885 93.2165 659.674 92.897 660.644 92.897C661.219 92.897 661.737 93.0049 662.199 93.2207C662.66 93.4365 663.041 93.7772 663.341 94.2427C663.612 94.6532 663.788 95.1292 663.868 95.6709C663.915 95.9883 663.934 96.4453 663.925 97.042H659.19C659.215 97.736 659.433 98.2227 659.844 98.502C660.093 98.6755 660.394 98.7622 660.745 98.7622C661.118 98.7622 661.42 98.6564 661.653 98.4448C661.78 98.3306 661.892 98.1719 661.989 97.9688H663.836ZM662.046 95.8486C662.017 95.3704 661.871 95.0086 661.608 94.7632C661.35 94.5135 661.029 94.3887 660.644 94.3887C660.225 94.3887 659.899 94.5199 659.666 94.7822C659.438 95.0446 659.294 95.4001 659.234 95.8486H662.046Z" fill="white"/>
<path d="M189.53 77.5303C189.823 77.2374 189.823 76.7626 189.53 76.4697L184.757 71.6967C184.464 71.4038 183.99 71.4038 183.697 71.6967C183.404 71.9896 183.404 72.4645 183.697 72.7574L187.939 77L183.697 81.2426C183.404 81.5355 183.404 82.0104 183.697 82.3033C183.99 82.5962 184.464 82.5962 184.757 82.3033L189.53 77.5303ZM161 77V77.75H189V77V76.25H161V77Z" fill="white"/>
<path d="M361.53 77.5303C361.823 77.2374 361.823 76.7626 361.53 76.4697L356.757 71.6967C356.464 71.4038 355.99 71.4038 355.697 71.6967C355.404 71.9896 355.404 72.4645 355.697 72.7574L359.939 77L355.697 81.2426C355.404 81.5355 355.404 82.0104 355.697 82.3033C355.99 82.5962 356.464 82.5962 356.757 82.3033L361.53 77.5303ZM333 77V77.75H361V77V76.25H333V77Z" fill="white"/>
<path d="M533.53 77.5303C533.823 77.2374 533.823 76.7626 533.53 76.4697L528.757 71.6967C528.464 71.4038 527.99 71.4038 527.697 71.6967C527.404 71.9896 527.404 72.4645 527.697 72.7574L531.939 77L527.697 81.2426C527.404 81.5355 527.404 82.0104 527.697 82.3033C527.99 82.5962 528.464 82.5962 528.757 82.3033L533.53 77.5303ZM505 77V77.75H533V77V76.25H505V77Z" fill="white"/>
</svg>
