<?xml version='1.0' encoding='UTF-8'?>
<!DOCTYPE svg PUBLIC "-//W3C//DTD SVG 1.1//EN" "http://www.w3.org/Graphics/SVG/1.1/DTD/svg11.dtd">
<svg xmlns="http://www.w3.org/2000/svg" version="1.1" width="888" height="140">
  <g>
    <line x1="60" y1="20" x2="60" y2="28" style="fill:white;stroke:black;stroke-width:1;fill-opacity:0;"/>
    <rect x="60" y="28" width="96" height="30" style="fill:white;stroke:black;stroke-width:1;fill-opacity:0;"/>
    <text x="108" y="47.5" style="fill:black;font-family:monospace;font-size:12.6;text-anchor:middle">PFAR</text>
    <line x1="156" y1="20" x2="156" y2="28" style="fill:white;stroke:black;stroke-width:1;fill-opacity:0;"/>
    <text x="72" y="24" style="font-family: monospace;fill:black" text-anchor="middle">63</text>
    <text x="144" y="24" style="font-family: monospace;fill:black" text-anchor="middle">60</text>
    <rect x="156" y="28" width="96" height="30" style="fill:white;stroke:black;stroke-width:1;fill-opacity:0;"/>
    <text x="204" y="47.5" style="fill:black;font-family:monospace;font-size:12.6;text-anchor:middle">DF2</text>
    <line x1="252" y1="20" x2="252" y2="28" style="fill:white;stroke:black;stroke-width:1;fill-opacity:0;"/>
    <text x="168" y="24" style="font-family: monospace;fill:black" text-anchor="middle">59</text>
    <text x="240" y="24" style="font-family: monospace;fill:black" text-anchor="middle">56</text>
    <rect x="252" y="28" width="96" height="30" style="fill:white;stroke:black;stroke-width:1;fill-opacity:0;"/>
    <text x="300" y="47.5" style="fill:black;font-family:monospace;font-size:12.6;text-anchor:middle">MTEX</text>
    <line x1="348" y1="20" x2="348" y2="28" style="fill:white;stroke:black;stroke-width:1;fill-opacity:0;"/>
    <text x="264" y="24" style="font-family: monospace;fill:black" text-anchor="middle">55</text>
    <text x="336" y="24" style="font-family: monospace;fill:black" text-anchor="middle">52</text>
    <rect x="348" y="28" width="96" height="30" style="fill:white;stroke:black;stroke-width:1;fill-opacity:0;"/>
    <text x="396" y="47.5" style="fill:black;font-family:monospace;font-size:12.6;text-anchor:middle">THE</text>
    <line x1="444" y1="20" x2="444" y2="28" style="fill:white;stroke:black;stroke-width:1;fill-opacity:0;"/>
    <text x="360" y="24" style="font-family: monospace;fill:black" text-anchor="middle">51</text>
    <text x="432" y="24" style="font-family: monospace;fill:black" text-anchor="middle">48</text>
    <rect x="444" y="28" width="96" height="30" style="fill:white;stroke:black;stroke-width:1;fill-opacity:0;"/>
    <text x="492" y="47.5" style="fill:black;font-family:monospace;font-size:12.6;text-anchor:middle">GCS</text>
    <line x1="540" y1="20" x2="540" y2="28" style="fill:white;stroke:black;stroke-width:1;fill-opacity:0;"/>
    <text x="456" y="24" style="font-family: monospace;fill:black" text-anchor="middle">47</text>
    <text x="528" y="24" style="font-family: monospace;fill:black" text-anchor="middle">44</text>
    <rect x="540" y="28" width="96" height="30" style="fill:white;stroke:black;stroke-width:1;fill-opacity:0;"/>
    <text x="588" y="47.5" style="fill:black;font-family:monospace;font-size:12.6;text-anchor:middle">MTE_frac</text>
    <line x1="636" y1="20" x2="636" y2="28" style="fill:white;stroke:black;stroke-width:1;fill-opacity:0;"/>
    <text x="552" y="24" style="font-family: monospace;fill:black" text-anchor="middle">43</text>
    <text x="624" y="24" style="font-family: monospace;fill:black" text-anchor="middle">40</text>
    <rect x="636" y="28" width="96" height="30" style="fill:white;stroke:black;stroke-width:1;fill-opacity:0;"/>
    <text x="684" y="47.5" style="fill:black;font-family:monospace;font-size:12.6;text-anchor:middle">NMI</text>
    <line x1="732" y1="20" x2="732" y2="28" style="fill:white;stroke:black;stroke-width:1;fill-opacity:0;"/>
    <text x="648" y="24" style="font-family: monospace;fill:black" text-anchor="middle">39</text>
    <text x="720" y="24" style="font-family: monospace;fill:black" text-anchor="middle">36</text>
    <rect x="732" y="28" width="96" height="30" style="fill:white;stroke:black;stroke-width:1;fill-opacity:0;"/>
    <text x="780" y="47.5" style="fill:black;font-family:monospace;font-size:12.6;text-anchor:middle">CSV2_frac</text>
    <line x1="828" y1="20" x2="828" y2="28" style="fill:white;stroke:black;stroke-width:1;fill-opacity:0;"/>
    <text x="744" y="24" style="font-family: monospace;fill:black" text-anchor="middle">35</text>
    <text x="816" y="24" style="font-family: monospace;fill:black" text-anchor="middle">32</text>
  </g>
  <g/>
  <line x1="828" y1="0" x2="888" y2="0" style="stroke-opacity:0;stroke:black;stroke-width:1;"/>
  <line x1="833" y1="28" x2="833" y2="58" stroke-dasharray="3, 3" style="stroke:black;stroke-width:2"/>
  <line x1="55" y1="88" x2="55" y2="118" stroke-dasharray="3, 3" style="stroke:black;stroke-width:2"/>
  <g>
    <line x1="60" y1="80" x2="60" y2="88" style="fill:white;stroke:black;stroke-width:1;fill-opacity:0;"/>
    <rect x="60" y="88" width="96" height="30" style="fill:white;stroke:black;stroke-width:1;fill-opacity:0;"/>
    <text x="108" y="107.5" style="fill:black;font-family:monospace;font-size:12.6;text-anchor:middle">RNDR_trap</text>
    <line x1="156" y1="80" x2="156" y2="88" style="fill:white;stroke:black;stroke-width:1;fill-opacity:0;"/>
    <text x="72" y="84" style="font-family: monospace;fill:black" text-anchor="middle">31</text>
    <text x="144" y="84" style="font-family: monospace;fill:black" text-anchor="middle">28</text>
    <rect x="156" y="88" width="96" height="30" style="fill:white;stroke:black;stroke-width:1;fill-opacity:0;"/>
    <text x="204" y="107.5" style="fill:black;font-family:monospace;font-size:12.6;text-anchor:middle">SME</text>
    <line x1="252" y1="80" x2="252" y2="88" style="fill:white;stroke:black;stroke-width:1;fill-opacity:0;"/>
    <text x="168" y="84" style="font-family: monospace;fill:black" text-anchor="middle">27</text>
    <text x="240" y="84" style="font-family: monospace;fill:black" text-anchor="middle">24</text>
    <rect x="252" y="88" width="96" height="30" style="fill:rgb(211,211,211);stroke:black;stroke-width:1;fill-opacity:1;"/>
    <text x="300" y="107.5" style="fill:black;font-family:monospace;font-size:12.6;text-anchor:middle">RES0</text>
    <line x1="348" y1="80" x2="348" y2="88" style="fill:rgb(211,211,211);stroke:black;stroke-width:1;fill-opacity:1;"/>
    <text x="264" y="84" style="font-family: monospace;fill:black" text-anchor="middle">23</text>
    <text x="336" y="84" style="font-family: monospace;fill:black" text-anchor="middle">20</text>
    <rect x="348" y="88" width="96" height="30" style="fill:white;stroke:black;stroke-width:1;fill-opacity:0;"/>
    <text x="396" y="107.5" style="fill:black;font-family:monospace;font-size:12.6;text-anchor:middle">MPAM_frac</text>
    <line x1="444" y1="80" x2="444" y2="88" style="fill:white;stroke:black;stroke-width:1;fill-opacity:0;"/>
    <text x="360" y="84" style="font-family: monospace;fill:black" text-anchor="middle">19</text>
    <text x="432" y="84" style="font-family: monospace;fill:black" text-anchor="middle">16</text>
    <rect x="444" y="88" width="96" height="30" style="fill:white;stroke:black;stroke-width:1;fill-opacity:0;"/>
    <text x="492" y="107.5" style="fill:black;font-family:monospace;font-size:12.6;text-anchor:middle">RAS_frac</text>
    <line x1="540" y1="80" x2="540" y2="88" style="fill:white;stroke:black;stroke-width:1;fill-opacity:0;"/>
    <text x="456" y="84" style="font-family: monospace;fill:black" text-anchor="middle">15</text>
    <text x="528" y="84" style="font-family: monospace;fill:black" text-anchor="middle">12</text>
    <rect x="540" y="88" width="96" height="30" style="fill:white;stroke:black;stroke-width:1;fill-opacity:0;"/>
    <text x="588" y="107.5" style="fill:black;font-family:monospace;font-size:12.6;text-anchor:middle">MTE</text>
    <line x1="636" y1="80" x2="636" y2="88" style="fill:white;stroke:black;stroke-width:1;fill-opacity:0;"/>
    <text x="552" y="84" style="font-family: monospace;fill:black" text-anchor="middle">11</text>
    <text x="624" y="84" style="font-family: monospace;fill:black" text-anchor="middle">8</text>
    <rect x="636" y="88" width="96" height="30" style="fill:white;stroke:black;stroke-width:1;fill-opacity:0;"/>
    <text x="684" y="107.5" style="fill:black;font-family:monospace;font-size:12.6;text-anchor:middle">SSBS</text>
    <line x1="732" y1="80" x2="732" y2="88" style="fill:white;stroke:black;stroke-width:1;fill-opacity:0;"/>
    <text x="648" y="84" style="font-family: monospace;fill:black" text-anchor="middle">7</text>
    <text x="720" y="84" style="font-family: monospace;fill:black" text-anchor="middle">4</text>
    <rect x="732" y="88" width="96" height="30" style="fill:white;stroke:black;stroke-width:1;fill-opacity:0;"/>
    <text x="780" y="107.5" style="fill:black;font-family:monospace;font-size:12.6;text-anchor:middle">BT</text>
    <line x1="828" y1="80" x2="828" y2="88" style="fill:white;stroke:black;stroke-width:1;fill-opacity:0;"/>
    <text x="744" y="84" style="font-family: monospace;fill:black" text-anchor="middle">3</text>
    <text x="816" y="84" style="font-family: monospace;fill:black" text-anchor="middle">0</text>
  </g>
  <g/>
  <line x1="828" y1="0" x2="888" y2="0" style="stroke-opacity:0;stroke:black;stroke-width:1;"/>
</svg>
