<?xml version='1.0' encoding='UTF-8'?>
<!DOCTYPE svg PUBLIC "-//W3C//DTD SVG 1.1//EN" "http://www.w3.org/Graphics/SVG/1.1/DTD/svg11.dtd">
<svg xmlns="http://www.w3.org/2000/svg" version="1.1" width="888" height="518">
  <g>
    <line x1="60" y1="20" x2="60" y2="28" style="fill:rgb(211,211,211);stroke:black;stroke-width:1;fill-opacity:1;"/>
    <rect x="60" y="28" width="24" height="30" style="fill:rgb(211,211,211);stroke:black;stroke-width:1;fill-opacity:1;"/>
    <line x1="84" y1="20" x2="84" y2="28" style="fill:rgb(211,211,211);stroke:black;stroke-width:1;fill-opacity:1;"/>
    <text x="72" y="24" style="font-family: monospace;fill:black" text-anchor="middle">63</text>
    <rect x="84" y="28" width="24" height="30" style="fill:white;stroke:black;stroke-width:1;fill-opacity:0;"/>
    <text x="96" y="47.5" style="fill:black;font-family:monospace;font-size:12.6;text-anchor:middle">NSE</text>
    <line x1="108" y1="20" x2="108" y2="28" style="fill:white;stroke:black;stroke-width:1;fill-opacity:0;"/>
    <text x="96" y="24" style="font-family: monospace;fill:black" text-anchor="middle">62</text>
    <rect x="108" y="28" width="24" height="30" style="fill:white;stroke:black;stroke-width:1;fill-opacity:0;"/>
    <line x1="132" y1="20" x2="132" y2="28" style="fill:white;stroke:black;stroke-width:1;fill-opacity:0;"/>
    <text x="120" y="24" style="font-family: monospace;fill:black" text-anchor="middle">61</text>
    <rect x="132" y="28" width="24" height="30" style="fill:white;stroke:black;stroke-width:1;fill-opacity:0;"/>
    <line x1="156" y1="20" x2="156" y2="28" style="fill:white;stroke:black;stroke-width:1;fill-opacity:0;"/>
    <text x="144" y="24" style="font-family: monospace;fill:black" text-anchor="middle">60</text>
    <rect x="156" y="28" width="24" height="30" style="fill:white;stroke:black;stroke-width:1;fill-opacity:0;"/>
    <line x1="180" y1="20" x2="180" y2="28" style="fill:white;stroke:black;stroke-width:1;fill-opacity:0;"/>
    <text x="168" y="24" style="font-family: monospace;fill:black" text-anchor="middle">59</text>
    <rect x="180" y="28" width="24" height="30" style="fill:white;stroke:black;stroke-width:1;fill-opacity:0;"/>
    <line x1="204" y1="20" x2="204" y2="28" style="fill:white;stroke:black;stroke-width:1;fill-opacity:0;"/>
    <text x="192" y="24" style="font-family: monospace;fill:black" text-anchor="middle">58</text>
    <rect x="204" y="28" width="24" height="30" style="fill:white;stroke:black;stroke-width:1;fill-opacity:0;"/>
    <text x="216" y="47.5" style="fill:black;font-family:monospace;font-size:12.6;text-anchor:middle">DSE</text>
    <line x1="228" y1="20" x2="228" y2="28" style="fill:white;stroke:black;stroke-width:1;fill-opacity:0;"/>
    <text x="216" y="24" style="font-family: monospace;fill:black" text-anchor="middle">57</text>
    <rect x="228" y="28" width="24" height="30" style="fill:white;stroke:black;stroke-width:1;fill-opacity:0;"/>
    <line x1="252" y1="20" x2="252" y2="28" style="fill:white;stroke:black;stroke-width:1;fill-opacity:0;"/>
    <text x="240" y="24" style="font-family: monospace;fill:black" text-anchor="middle">56</text>
    <rect x="252" y="28" width="24" height="30" style="fill:white;stroke:black;stroke-width:1;fill-opacity:0;"/>
    <line x1="276" y1="20" x2="276" y2="28" style="fill:white;stroke:black;stroke-width:1;fill-opacity:0;"/>
    <text x="264" y="24" style="font-family: monospace;fill:black" text-anchor="middle">55</text>
    <rect x="276" y="28" width="24" height="30" style="fill:white;stroke:black;stroke-width:1;fill-opacity:0;"/>
    <line x1="300" y1="20" x2="300" y2="28" style="fill:white;stroke:black;stroke-width:1;fill-opacity:0;"/>
    <text x="288" y="24" style="font-family: monospace;fill:black" text-anchor="middle">54</text>
    <rect x="300" y="28" width="24" height="30" style="fill:white;stroke:black;stroke-width:1;fill-opacity:0;"/>
    <line x1="324" y1="20" x2="324" y2="28" style="fill:white;stroke:black;stroke-width:1;fill-opacity:0;"/>
    <text x="312" y="24" style="font-family: monospace;fill:black" text-anchor="middle">53</text>
    <rect x="324" y="28" width="24" height="30" style="fill:white;stroke:black;stroke-width:1;fill-opacity:0;"/>
    <line x1="348" y1="20" x2="348" y2="28" style="fill:white;stroke:black;stroke-width:1;fill-opacity:0;"/>
    <text x="336" y="24" style="font-family: monospace;fill:black" text-anchor="middle">52</text>
    <rect x="348" y="28" width="24" height="30" style="fill:white;stroke:black;stroke-width:1;fill-opacity:0;"/>
    <line x1="372" y1="20" x2="372" y2="28" style="fill:white;stroke:black;stroke-width:1;fill-opacity:0;"/>
    <text x="360" y="24" style="font-family: monospace;fill:black" text-anchor="middle">51</text>
    <rect x="372" y="28" width="24" height="30" style="fill:white;stroke:black;stroke-width:1;fill-opacity:0;"/>
    <line x1="396" y1="20" x2="396" y2="28" style="fill:white;stroke:black;stroke-width:1;fill-opacity:0;"/>
    <text x="384" y="24" style="font-family: monospace;fill:black" text-anchor="middle">50</text>
    <rect x="396" y="28" width="24" height="30" style="fill:white;stroke:black;stroke-width:1;fill-opacity:0;"/>
    <line x1="420" y1="20" x2="420" y2="28" style="fill:white;stroke:black;stroke-width:1;fill-opacity:0;"/>
    <text x="408" y="24" style="font-family: monospace;fill:black" text-anchor="middle">49</text>
    <rect x="420" y="28" width="24" height="30" style="fill:white;stroke:black;stroke-width:1;fill-opacity:0;"/>
    <text x="432" y="47.5" style="fill:black;font-family:monospace;font-size:12.6;text-anchor:middle">GPF</text>
    <line x1="444" y1="20" x2="444" y2="28" style="fill:white;stroke:black;stroke-width:1;fill-opacity:0;"/>
    <text x="432" y="24" style="font-family: monospace;fill:black" text-anchor="middle">48</text>
    <rect x="444" y="28" width="24" height="30" style="fill:white;stroke:black;stroke-width:1;fill-opacity:0;"/>
    <line x1="468" y1="20" x2="468" y2="28" style="fill:white;stroke:black;stroke-width:1;fill-opacity:0;"/>
    <text x="456" y="24" style="font-family: monospace;fill:black" text-anchor="middle">47</text>
    <rect x="468" y="28" width="24" height="30" style="fill:white;stroke:black;stroke-width:1;fill-opacity:0;"/>
    <line x1="492" y1="20" x2="492" y2="28" style="fill:white;stroke:black;stroke-width:1;fill-opacity:0;"/>
    <text x="480" y="24" style="font-family: monospace;fill:black" text-anchor="middle">46</text>
    <rect x="492" y="28" width="24" height="30" style="fill:white;stroke:black;stroke-width:1;fill-opacity:0;"/>
    <line x1="516" y1="20" x2="516" y2="28" style="fill:white;stroke:black;stroke-width:1;fill-opacity:0;"/>
    <text x="504" y="24" style="font-family: monospace;fill:black" text-anchor="middle">45</text>
    <rect x="516" y="28" width="24" height="30" style="fill:white;stroke:black;stroke-width:1;fill-opacity:0;"/>
    <line x1="540" y1="20" x2="540" y2="28" style="fill:white;stroke:black;stroke-width:1;fill-opacity:0;"/>
    <text x="528" y="24" style="font-family: monospace;fill:black" text-anchor="middle">44</text>
    <rect x="540" y="28" width="24" height="30" style="fill:white;stroke:black;stroke-width:1;fill-opacity:0;"/>
    <line x1="564" y1="20" x2="564" y2="28" style="fill:white;stroke:black;stroke-width:1;fill-opacity:0;"/>
    <text x="552" y="24" style="font-family: monospace;fill:black" text-anchor="middle">43</text>
    <rect x="564" y="28" width="24" height="30" style="fill:white;stroke:black;stroke-width:1;fill-opacity:0;"/>
    <line x1="588" y1="20" x2="588" y2="28" style="fill:white;stroke:black;stroke-width:1;fill-opacity:0;"/>
    <text x="576" y="24" style="font-family: monospace;fill:black" text-anchor="middle">42</text>
    <rect x="588" y="28" width="24" height="30" style="fill:white;stroke:black;stroke-width:1;fill-opacity:0;"/>
    <line x1="612" y1="20" x2="612" y2="28" style="fill:white;stroke:black;stroke-width:1;fill-opacity:0;"/>
    <text x="600" y="24" style="font-family: monospace;fill:black" text-anchor="middle">41</text>
    <rect x="612" y="28" width="24" height="30" style="fill:white;stroke:black;stroke-width:1;fill-opacity:0;"/>
    <line x1="636" y1="20" x2="636" y2="28" style="fill:white;stroke:black;stroke-width:1;fill-opacity:0;"/>
    <text x="624" y="24" style="font-family: monospace;fill:black" text-anchor="middle">40</text>
    <rect x="636" y="28" width="24" height="30" style="fill:white;stroke:black;stroke-width:1;fill-opacity:0;"/>
    <line x1="660" y1="20" x2="660" y2="28" style="fill:white;stroke:black;stroke-width:1;fill-opacity:0;"/>
    <text x="648" y="24" style="font-family: monospace;fill:black" text-anchor="middle">39</text>
    <rect x="660" y="28" width="24" height="30" style="fill:white;stroke:black;stroke-width:1;fill-opacity:0;"/>
    <line x1="684" y1="20" x2="684" y2="28" style="fill:white;stroke:black;stroke-width:1;fill-opacity:0;"/>
    <text x="672" y="24" style="font-family: monospace;fill:black" text-anchor="middle">38</text>
    <rect x="684" y="28" width="24" height="30" style="fill:white;stroke:black;stroke-width:1;fill-opacity:0;"/>
    <line x1="708" y1="20" x2="708" y2="28" style="fill:white;stroke:black;stroke-width:1;fill-opacity:0;"/>
    <text x="696" y="24" style="font-family: monospace;fill:black" text-anchor="middle">37</text>
    <rect x="708" y="28" width="24" height="30" style="fill:white;stroke:black;stroke-width:1;fill-opacity:0;"/>
    <line x1="732" y1="20" x2="732" y2="28" style="fill:white;stroke:black;stroke-width:1;fill-opacity:0;"/>
    <text x="720" y="24" style="font-family: monospace;fill:black" text-anchor="middle">36</text>
    <rect x="732" y="28" width="24" height="30" style="fill:white;stroke:black;stroke-width:1;fill-opacity:0;"/>
    <line x1="756" y1="20" x2="756" y2="28" style="fill:white;stroke:black;stroke-width:1;fill-opacity:0;"/>
    <text x="744" y="24" style="font-family: monospace;fill:black" text-anchor="middle">35</text>
    <rect x="756" y="28" width="24" height="30" style="fill:rgb(211,211,211);stroke:black;stroke-width:1;fill-opacity:1;"/>
    <line x1="780" y1="20" x2="780" y2="28" style="fill:rgb(211,211,211);stroke:black;stroke-width:1;fill-opacity:1;"/>
    <text x="768" y="24" style="font-family: monospace;fill:black" text-anchor="middle">34</text>
    <rect x="780" y="28" width="48" height="30" style="fill:white;stroke:black;stroke-width:1;fill-opacity:0;"/>
    <text x="804" y="47.5" style="fill:black;font-family:monospace;font-size:12.6;text-anchor:middle">TWEDEL</text>
    <line x1="828" y1="20" x2="828" y2="28" style="fill:white;stroke:black;stroke-width:1;fill-opacity:0;"/>
    <text x="792" y="24" style="font-family: monospace;fill:black" text-anchor="middle">33</text>
    <text x="816" y="24" style="font-family: monospace;fill:black" text-anchor="middle">32</text>
  </g>
  <g/>
  <line x1="828" y1="0" x2="888" y2="0" style="stroke-opacity:0;stroke:black;stroke-width:1;"/>
  <line x1="833" y1="28" x2="833" y2="58" stroke-dasharray="3, 3" style="stroke:black;stroke-width:2"/>
  <line x1="72" y1="60" x2="72" y2="78" style="fill:rgb(211,211,211);stroke:black;stroke-width:1;fill-opacity:1;"/>
  <line x1="72" y1="78" x2="62" y2="78" style="fill:rgb(211,211,211);stroke:black;stroke-width:1;fill-opacity:1;"/>
  <text x="60" y="80" style="fill:black;font-family:monospace;font-size:12.6;text-anchor:end">RES0</text>
  <line x1="120" y1="60" x2="120" y2="96" style="fill:white;stroke:black;stroke-width:1;fill-opacity:0;"/>
  <line x1="120" y1="96" x2="110" y2="96" style="fill:white;stroke:black;stroke-width:1;fill-opacity:0;"/>
  <text x="108" y="98" style="fill:black;font-family:monospace;font-size:12.6;text-anchor:end">HACDBSEn</text>
  <line x1="144" y1="60" x2="144" y2="114" style="fill:white;stroke:black;stroke-width:1;fill-opacity:0;"/>
  <line x1="144" y1="114" x2="134" y2="114" style="fill:white;stroke:black;stroke-width:1;fill-opacity:0;"/>
  <text x="132" y="116" style="fill:black;font-family:monospace;font-size:12.6;text-anchor:end">HDBSSEn</text>
  <line x1="168" y1="60" x2="168" y2="132" style="fill:white;stroke:black;stroke-width:1;fill-opacity:0;"/>
  <line x1="168" y1="132" x2="158" y2="132" style="fill:white;stroke:black;stroke-width:1;fill-opacity:0;"/>
  <text x="156" y="134" style="fill:black;font-family:monospace;font-size:12.6;text-anchor:end">FGTEn2</text>
  <line x1="192" y1="60" x2="192" y2="150" style="fill:white;stroke:black;stroke-width:1;fill-opacity:0;"/>
  <line x1="192" y1="150" x2="182" y2="150" style="fill:white;stroke:black;stroke-width:1;fill-opacity:0;"/>
  <text x="180" y="152" style="fill:black;font-family:monospace;font-size:12.6;text-anchor:end">EnDSE</text>
  <line x1="240" y1="60" x2="240" y2="168" style="fill:white;stroke:black;stroke-width:1;fill-opacity:0;"/>
  <line x1="240" y1="168" x2="230" y2="168" style="fill:white;stroke:black;stroke-width:1;fill-opacity:0;"/>
  <text x="228" y="170" style="fill:black;font-family:monospace;font-size:12.6;text-anchor:end">VTLBIDEn</text>
  <line x1="264" y1="60" x2="264" y2="186" style="fill:white;stroke:black;stroke-width:1;fill-opacity:0;"/>
  <line x1="264" y1="186" x2="254" y2="186" style="fill:white;stroke:black;stroke-width:1;fill-opacity:0;"/>
  <text x="252" y="188" style="fill:black;font-family:monospace;font-size:12.6;text-anchor:end">EnIDCP128</text>
  <line x1="288" y1="60" x2="288" y2="204" style="fill:white;stroke:black;stroke-width:1;fill-opacity:0;"/>
  <line x1="288" y1="204" x2="278" y2="204" style="fill:white;stroke:black;stroke-width:1;fill-opacity:0;"/>
  <text x="276" y="206" style="fill:black;font-family:monospace;font-size:12.6;text-anchor:end">SRMASKEn</text>
  <line x1="312" y1="60" x2="312" y2="222" style="fill:white;stroke:black;stroke-width:1;fill-opacity:0;"/>
  <line x1="312" y1="222" x2="302" y2="222" style="fill:white;stroke:black;stroke-width:1;fill-opacity:0;"/>
  <text x="300" y="224" style="fill:black;font-family:monospace;font-size:12.6;text-anchor:end">PFAREn</text>
  <line x1="336" y1="60" x2="336" y2="240" style="fill:white;stroke:black;stroke-width:1;fill-opacity:0;"/>
  <line x1="336" y1="240" x2="326" y2="240" style="fill:white;stroke:black;stroke-width:1;fill-opacity:0;"/>
  <text x="324" y="242" style="fill:black;font-family:monospace;font-size:12.6;text-anchor:end">TWERR</text>
  <line x1="360" y1="60" x2="360" y2="258" style="fill:white;stroke:black;stroke-width:1;fill-opacity:0;"/>
  <line x1="360" y1="258" x2="350" y2="258" style="fill:white;stroke:black;stroke-width:1;fill-opacity:0;"/>
  <text x="348" y="260" style="fill:black;font-family:monospace;font-size:12.6;text-anchor:end">TMEA</text>
  <line x1="384" y1="60" x2="384" y2="276" style="fill:white;stroke:black;stroke-width:1;fill-opacity:0;"/>
  <line x1="384" y1="276" x2="374" y2="276" style="fill:white;stroke:black;stroke-width:1;fill-opacity:0;"/>
  <text x="372" y="278" style="fill:black;font-family:monospace;font-size:12.6;text-anchor:end">EnFPM</text>
  <line x1="408" y1="60" x2="408" y2="294" style="fill:white;stroke:black;stroke-width:1;fill-opacity:0;"/>
  <line x1="408" y1="294" x2="398" y2="294" style="fill:white;stroke:black;stroke-width:1;fill-opacity:0;"/>
  <text x="396" y="296" style="fill:black;font-family:monospace;font-size:12.6;text-anchor:end">MECEn</text>
  <line x1="768" y1="60" x2="768" y2="78" style="fill:rgb(211,211,211);stroke:black;stroke-width:1;fill-opacity:1;"/>
  <line x1="768" y1="78" x2="778" y2="78" style="fill:rgb(211,211,211);stroke:black;stroke-width:1;fill-opacity:1;"/>
  <text x="780" y="80" style="fill:black;font-family:monospace;font-size:12.6;text-anchor:start">RES0</text>
  <line x1="744" y1="60" x2="744" y2="96" style="fill:white;stroke:black;stroke-width:1;fill-opacity:0;"/>
  <line x1="744" y1="96" x2="754" y2="96" style="fill:white;stroke:black;stroke-width:1;fill-opacity:0;"/>
  <text x="756" y="98" style="fill:black;font-family:monospace;font-size:12.6;text-anchor:start">AMVOFFEN</text>
  <line x1="720" y1="60" x2="720" y2="114" style="fill:white;stroke:black;stroke-width:1;fill-opacity:0;"/>
  <line x1="720" y1="114" x2="730" y2="114" style="fill:white;stroke:black;stroke-width:1;fill-opacity:0;"/>
  <text x="732" y="116" style="fill:black;font-family:monospace;font-size:12.6;text-anchor:start">EnAS0</text>
  <line x1="696" y1="60" x2="696" y2="132" style="fill:white;stroke:black;stroke-width:1;fill-opacity:0;"/>
  <line x1="696" y1="132" x2="706" y2="132" style="fill:white;stroke:black;stroke-width:1;fill-opacity:0;"/>
  <text x="708" y="134" style="fill:black;font-family:monospace;font-size:12.6;text-anchor:start">ADEn</text>
  <line x1="672" y1="60" x2="672" y2="150" style="fill:white;stroke:black;stroke-width:1;fill-opacity:0;"/>
  <line x1="672" y1="150" x2="682" y2="150" style="fill:white;stroke:black;stroke-width:1;fill-opacity:0;"/>
  <text x="684" y="152" style="fill:black;font-family:monospace;font-size:12.6;text-anchor:start">HXEn</text>
  <line x1="648" y1="60" x2="648" y2="168" style="fill:white;stroke:black;stroke-width:1;fill-opacity:0;"/>
  <line x1="648" y1="168" x2="658" y2="168" style="fill:white;stroke:black;stroke-width:1;fill-opacity:0;"/>
  <text x="660" y="170" style="fill:black;font-family:monospace;font-size:12.6;text-anchor:start">GCSEn</text>
  <line x1="624" y1="60" x2="624" y2="186" style="fill:white;stroke:black;stroke-width:1;fill-opacity:0;"/>
  <line x1="624" y1="186" x2="634" y2="186" style="fill:white;stroke:black;stroke-width:1;fill-opacity:0;"/>
  <text x="636" y="188" style="fill:black;font-family:monospace;font-size:12.6;text-anchor:start">TRNDR</text>
  <line x1="600" y1="60" x2="600" y2="204" style="fill:white;stroke:black;stroke-width:1;fill-opacity:0;"/>
  <line x1="600" y1="204" x2="610" y2="204" style="fill:white;stroke:black;stroke-width:1;fill-opacity:0;"/>
  <text x="612" y="206" style="fill:black;font-family:monospace;font-size:12.6;text-anchor:start">EnTP2</text>
  <line x1="576" y1="60" x2="576" y2="222" style="fill:white;stroke:black;stroke-width:1;fill-opacity:0;"/>
  <line x1="576" y1="222" x2="586" y2="222" style="fill:white;stroke:black;stroke-width:1;fill-opacity:0;"/>
  <text x="588" y="224" style="fill:black;font-family:monospace;font-size:12.6;text-anchor:start">RCWMASKEn</text>
  <line x1="552" y1="60" x2="552" y2="240" style="fill:white;stroke:black;stroke-width:1;fill-opacity:0;"/>
  <line x1="552" y1="240" x2="562" y2="240" style="fill:white;stroke:black;stroke-width:1;fill-opacity:0;"/>
  <text x="564" y="242" style="fill:black;font-family:monospace;font-size:12.6;text-anchor:start">TCR2En</text>
  <line x1="528" y1="60" x2="528" y2="258" style="fill:white;stroke:black;stroke-width:1;fill-opacity:0;"/>
  <line x1="528" y1="258" x2="538" y2="258" style="fill:white;stroke:black;stroke-width:1;fill-opacity:0;"/>
  <text x="540" y="260" style="fill:black;font-family:monospace;font-size:12.6;text-anchor:start">SCTLR2En</text>
  <line x1="504" y1="60" x2="504" y2="276" style="fill:white;stroke:black;stroke-width:1;fill-opacity:0;"/>
  <line x1="504" y1="276" x2="514" y2="276" style="fill:white;stroke:black;stroke-width:1;fill-opacity:0;"/>
  <text x="516" y="278" style="fill:black;font-family:monospace;font-size:12.6;text-anchor:start">PIEn</text>
  <line x1="480" y1="60" x2="480" y2="294" style="fill:white;stroke:black;stroke-width:1;fill-opacity:0;"/>
  <line x1="480" y1="294" x2="490" y2="294" style="fill:white;stroke:black;stroke-width:1;fill-opacity:0;"/>
  <text x="492" y="296" style="fill:black;font-family:monospace;font-size:12.6;text-anchor:start">AIEn</text>
  <line x1="456" y1="60" x2="456" y2="312" style="fill:white;stroke:black;stroke-width:1;fill-opacity:0;"/>
  <line x1="456" y1="312" x2="466" y2="312" style="fill:white;stroke:black;stroke-width:1;fill-opacity:0;"/>
  <text x="468" y="314" style="fill:black;font-family:monospace;font-size:12.6;text-anchor:start">D128En</text>
  <line x1="55" y1="340" x2="55" y2="370" stroke-dasharray="3, 3" style="stroke:black;stroke-width:2"/>
  <g>
    <line x1="60" y1="332" x2="60" y2="340" style="fill:white;stroke:black;stroke-width:1;fill-opacity:0;"/>
    <rect x="60" y="340" width="48" height="30" style="fill:white;stroke:black;stroke-width:1;fill-opacity:0;"/>
    <text x="84" y="359.5" style="fill:black;font-family:monospace;font-size:12.6;text-anchor:middle">TWEDEL</text>
    <line x1="108" y1="332" x2="108" y2="340" style="fill:white;stroke:black;stroke-width:1;fill-opacity:0;"/>
    <text x="72" y="336" style="font-family: monospace;fill:black" text-anchor="middle">31</text>
    <text x="96" y="336" style="font-family: monospace;fill:black" text-anchor="middle">30</text>
    <rect x="108" y="340" width="24" height="30" style="fill:white;stroke:black;stroke-width:1;fill-opacity:0;"/>
    <line x1="132" y1="332" x2="132" y2="340" style="fill:white;stroke:black;stroke-width:1;fill-opacity:0;"/>
    <text x="120" y="336" style="font-family: monospace;fill:black" text-anchor="middle">29</text>
    <rect x="132" y="340" width="24" height="30" style="fill:white;stroke:black;stroke-width:1;fill-opacity:0;"/>
    <line x1="156" y1="332" x2="156" y2="340" style="fill:white;stroke:black;stroke-width:1;fill-opacity:0;"/>
    <text x="144" y="336" style="font-family: monospace;fill:black" text-anchor="middle">28</text>
    <rect x="156" y="340" width="24" height="30" style="fill:white;stroke:black;stroke-width:1;fill-opacity:0;"/>
    <line x1="180" y1="332" x2="180" y2="340" style="fill:white;stroke:black;stroke-width:1;fill-opacity:0;"/>
    <text x="168" y="336" style="font-family: monospace;fill:black" text-anchor="middle">27</text>
    <rect x="180" y="340" width="24" height="30" style="fill:white;stroke:black;stroke-width:1;fill-opacity:0;"/>
    <text x="192" y="359.5" style="fill:black;font-family:monospace;font-size:12.6;text-anchor:middle">ATA</text>
    <line x1="204" y1="332" x2="204" y2="340" style="fill:white;stroke:black;stroke-width:1;fill-opacity:0;"/>
    <text x="192" y="336" style="font-family: monospace;fill:black" text-anchor="middle">26</text>
    <rect x="204" y="340" width="24" height="30" style="fill:white;stroke:black;stroke-width:1;fill-opacity:0;"/>
    <line x1="228" y1="332" x2="228" y2="340" style="fill:white;stroke:black;stroke-width:1;fill-opacity:0;"/>
    <text x="216" y="336" style="font-family: monospace;fill:black" text-anchor="middle">25</text>
    <rect x="228" y="340" width="24" height="30" style="fill:rgb(211,211,211);stroke:black;stroke-width:1;fill-opacity:1;"/>
    <line x1="252" y1="332" x2="252" y2="340" style="fill:rgb(211,211,211);stroke:black;stroke-width:1;fill-opacity:1;"/>
    <text x="240" y="336" style="font-family: monospace;fill:black" text-anchor="middle">24</text>
    <rect x="252" y="340" width="24" height="30" style="fill:white;stroke:black;stroke-width:1;fill-opacity:0;"/>
    <line x1="276" y1="332" x2="276" y2="340" style="fill:white;stroke:black;stroke-width:1;fill-opacity:0;"/>
    <text x="264" y="336" style="font-family: monospace;fill:black" text-anchor="middle">23</text>
    <rect x="276" y="340" width="24" height="30" style="fill:white;stroke:black;stroke-width:1;fill-opacity:0;"/>
    <line x1="300" y1="332" x2="300" y2="340" style="fill:white;stroke:black;stroke-width:1;fill-opacity:0;"/>
    <text x="288" y="336" style="font-family: monospace;fill:black" text-anchor="middle">22</text>
    <rect x="300" y="340" width="24" height="30" style="fill:white;stroke:black;stroke-width:1;fill-opacity:0;"/>
    <line x1="324" y1="332" x2="324" y2="340" style="fill:white;stroke:black;stroke-width:1;fill-opacity:0;"/>
    <text x="312" y="336" style="font-family: monospace;fill:black" text-anchor="middle">21</text>
    <rect x="324" y="340" width="24" height="30" style="fill:white;stroke:black;stroke-width:1;fill-opacity:0;"/>
    <line x1="348" y1="332" x2="348" y2="340" style="fill:white;stroke:black;stroke-width:1;fill-opacity:0;"/>
    <text x="336" y="336" style="font-family: monospace;fill:black" text-anchor="middle">20</text>
    <rect x="348" y="340" width="24" height="30" style="fill:white;stroke:black;stroke-width:1;fill-opacity:0;"/>
    <line x1="372" y1="332" x2="372" y2="340" style="fill:white;stroke:black;stroke-width:1;fill-opacity:0;"/>
    <text x="360" y="336" style="font-family: monospace;fill:black" text-anchor="middle">19</text>
    <rect x="372" y="340" width="24" height="30" style="fill:white;stroke:black;stroke-width:1;fill-opacity:0;"/>
    <line x1="396" y1="332" x2="396" y2="340" style="fill:white;stroke:black;stroke-width:1;fill-opacity:0;"/>
    <text x="384" y="336" style="font-family: monospace;fill:black" text-anchor="middle">18</text>
    <rect x="396" y="340" width="24" height="30" style="fill:white;stroke:black;stroke-width:1;fill-opacity:0;"/>
    <text x="408" y="359.5" style="fill:black;font-family:monospace;font-size:12.6;text-anchor:middle">API</text>
    <line x1="420" y1="332" x2="420" y2="340" style="fill:white;stroke:black;stroke-width:1;fill-opacity:0;"/>
    <text x="408" y="336" style="font-family: monospace;fill:black" text-anchor="middle">17</text>
    <rect x="420" y="340" width="24" height="30" style="fill:white;stroke:black;stroke-width:1;fill-opacity:0;"/>
    <text x="432" y="359.5" style="fill:black;font-family:monospace;font-size:12.6;text-anchor:middle">APK</text>
    <line x1="444" y1="332" x2="444" y2="340" style="fill:white;stroke:black;stroke-width:1;fill-opacity:0;"/>
    <text x="432" y="336" style="font-family: monospace;fill:black" text-anchor="middle">16</text>
    <rect x="444" y="340" width="24" height="30" style="fill:white;stroke:black;stroke-width:1;fill-opacity:0;"/>
    <line x1="468" y1="332" x2="468" y2="340" style="fill:white;stroke:black;stroke-width:1;fill-opacity:0;"/>
    <text x="456" y="336" style="font-family: monospace;fill:black" text-anchor="middle">15</text>
    <rect x="468" y="340" width="24" height="30" style="fill:white;stroke:black;stroke-width:1;fill-opacity:0;"/>
    <line x1="492" y1="332" x2="492" y2="340" style="fill:white;stroke:black;stroke-width:1;fill-opacity:0;"/>
    <text x="480" y="336" style="font-family: monospace;fill:black" text-anchor="middle">14</text>
    <rect x="492" y="340" width="24" height="30" style="fill:white;stroke:black;stroke-width:1;fill-opacity:0;"/>
    <text x="504" y="359.5" style="fill:black;font-family:monospace;font-size:12.6;text-anchor:middle">TWE</text>
    <line x1="516" y1="332" x2="516" y2="340" style="fill:white;stroke:black;stroke-width:1;fill-opacity:0;"/>
    <text x="504" y="336" style="font-family: monospace;fill:black" text-anchor="middle">13</text>
    <rect x="516" y="340" width="24" height="30" style="fill:white;stroke:black;stroke-width:1;fill-opacity:0;"/>
    <text x="528" y="359.5" style="fill:black;font-family:monospace;font-size:12.6;text-anchor:middle">TWI</text>
    <line x1="540" y1="332" x2="540" y2="340" style="fill:white;stroke:black;stroke-width:1;fill-opacity:0;"/>
    <text x="528" y="336" style="font-family: monospace;fill:black" text-anchor="middle">12</text>
    <rect x="540" y="340" width="24" height="30" style="fill:white;stroke:black;stroke-width:1;fill-opacity:0;"/>
    <text x="552" y="359.5" style="fill:black;font-family:monospace;font-size:12.6;text-anchor:middle">ST</text>
    <line x1="564" y1="332" x2="564" y2="340" style="fill:white;stroke:black;stroke-width:1;fill-opacity:0;"/>
    <text x="552" y="336" style="font-family: monospace;fill:black" text-anchor="middle">11</text>
    <rect x="564" y="340" width="24" height="30" style="fill:white;stroke:black;stroke-width:1;fill-opacity:0;"/>
    <text x="576" y="359.5" style="fill:black;font-family:monospace;font-size:12.6;text-anchor:middle">RW</text>
    <line x1="588" y1="332" x2="588" y2="340" style="fill:white;stroke:black;stroke-width:1;fill-opacity:0;"/>
    <text x="576" y="336" style="font-family: monospace;fill:black" text-anchor="middle">10</text>
    <rect x="588" y="340" width="24" height="30" style="fill:white;stroke:black;stroke-width:1;fill-opacity:0;"/>
    <text x="600" y="359.5" style="fill:black;font-family:monospace;font-size:12.6;text-anchor:middle">SIF</text>
    <line x1="612" y1="332" x2="612" y2="340" style="fill:white;stroke:black;stroke-width:1;fill-opacity:0;"/>
    <text x="600" y="336" style="font-family: monospace;fill:black" text-anchor="middle">9</text>
    <rect x="612" y="340" width="24" height="30" style="fill:white;stroke:black;stroke-width:1;fill-opacity:0;"/>
    <text x="624" y="359.5" style="fill:black;font-family:monospace;font-size:12.6;text-anchor:middle">HCE</text>
    <line x1="636" y1="332" x2="636" y2="340" style="fill:white;stroke:black;stroke-width:1;fill-opacity:0;"/>
    <text x="624" y="336" style="font-family: monospace;fill:black" text-anchor="middle">8</text>
    <rect x="636" y="340" width="24" height="30" style="fill:white;stroke:black;stroke-width:1;fill-opacity:0;"/>
    <text x="648" y="359.5" style="fill:black;font-family:monospace;font-size:12.6;text-anchor:middle">SMD</text>
    <line x1="660" y1="332" x2="660" y2="340" style="fill:white;stroke:black;stroke-width:1;fill-opacity:0;"/>
    <text x="648" y="336" style="font-family: monospace;fill:black" text-anchor="middle">7</text>
    <rect x="660" y="340" width="24" height="30" style="fill:rgb(211,211,211);stroke:black;stroke-width:1;fill-opacity:1;"/>
    <line x1="684" y1="332" x2="684" y2="340" style="fill:rgb(211,211,211);stroke:black;stroke-width:1;fill-opacity:1;"/>
    <text x="672" y="336" style="font-family: monospace;fill:black" text-anchor="middle">6</text>
    <rect x="684" y="340" width="48" height="30" style="fill:rgb(211,211,211);stroke:black;stroke-width:1;fill-opacity:1;"/>
    <text x="708" y="359.5" style="fill:black;font-family:monospace;font-size:12.6;text-anchor:middle">RES1</text>
    <line x1="732" y1="332" x2="732" y2="340" style="fill:rgb(211,211,211);stroke:black;stroke-width:1;fill-opacity:1;"/>
    <text x="696" y="336" style="font-family: monospace;fill:black" text-anchor="middle">5</text>
    <text x="720" y="336" style="font-family: monospace;fill:black" text-anchor="middle">4</text>
    <rect x="732" y="340" width="24" height="30" style="fill:white;stroke:black;stroke-width:1;fill-opacity:0;"/>
    <text x="744" y="359.5" style="fill:black;font-family:monospace;font-size:12.6;text-anchor:middle">EA</text>
    <line x1="756" y1="332" x2="756" y2="340" style="fill:white;stroke:black;stroke-width:1;fill-opacity:0;"/>
    <text x="744" y="336" style="font-family: monospace;fill:black" text-anchor="middle">3</text>
    <rect x="756" y="340" width="24" height="30" style="fill:white;stroke:black;stroke-width:1;fill-opacity:0;"/>
    <text x="768" y="359.5" style="fill:black;font-family:monospace;font-size:12.6;text-anchor:middle">FIQ</text>
    <line x1="780" y1="332" x2="780" y2="340" style="fill:white;stroke:black;stroke-width:1;fill-opacity:0;"/>
    <text x="768" y="336" style="font-family: monospace;fill:black" text-anchor="middle">2</text>
    <rect x="780" y="340" width="24" height="30" style="fill:white;stroke:black;stroke-width:1;fill-opacity:0;"/>
    <text x="792" y="359.5" style="fill:black;font-family:monospace;font-size:12.6;text-anchor:middle">IRQ</text>
    <line x1="804" y1="332" x2="804" y2="340" style="fill:white;stroke:black;stroke-width:1;fill-opacity:0;"/>
    <text x="792" y="336" style="font-family: monospace;fill:black" text-anchor="middle">1</text>
    <rect x="804" y="340" width="24" height="30" style="fill:white;stroke:black;stroke-width:1;fill-opacity:0;"/>
    <text x="816" y="359.5" style="fill:black;font-family:monospace;font-size:12.6;text-anchor:middle">NS</text>
    <line x1="828" y1="332" x2="828" y2="340" style="fill:white;stroke:black;stroke-width:1;fill-opacity:0;"/>
    <text x="816" y="336" style="font-family: monospace;fill:black" text-anchor="middle">0</text>
  </g>
  <g/>
  <line x1="828" y1="0" x2="888" y2="0" style="stroke-opacity:0;stroke:black;stroke-width:1;"/>
  <line x1="120" y1="372" x2="120" y2="390" style="fill:white;stroke:black;stroke-width:1;fill-opacity:0;"/>
  <line x1="120" y1="390" x2="110" y2="390" style="fill:white;stroke:black;stroke-width:1;fill-opacity:0;"/>
  <text x="108" y="392" style="fill:black;font-family:monospace;font-size:12.6;text-anchor:end">TWEDEn</text>
  <line x1="144" y1="372" x2="144" y2="408" style="fill:white;stroke:black;stroke-width:1;fill-opacity:0;"/>
  <line x1="144" y1="408" x2="134" y2="408" style="fill:white;stroke:black;stroke-width:1;fill-opacity:0;"/>
  <text x="132" y="410" style="fill:black;font-family:monospace;font-size:12.6;text-anchor:end">ECVEn</text>
  <line x1="168" y1="372" x2="168" y2="426" style="fill:white;stroke:black;stroke-width:1;fill-opacity:0;"/>
  <line x1="168" y1="426" x2="158" y2="426" style="fill:white;stroke:black;stroke-width:1;fill-opacity:0;"/>
  <text x="156" y="428" style="fill:black;font-family:monospace;font-size:12.6;text-anchor:end">FGTEn</text>
  <line x1="216" y1="372" x2="216" y2="444" style="fill:white;stroke:black;stroke-width:1;fill-opacity:0;"/>
  <line x1="216" y1="444" x2="206" y2="444" style="fill:white;stroke:black;stroke-width:1;fill-opacity:0;"/>
  <text x="204" y="446" style="fill:black;font-family:monospace;font-size:12.6;text-anchor:end">EnSCXT</text>
  <line x1="240" y1="372" x2="240" y2="462" style="fill:rgb(211,211,211);stroke:black;stroke-width:1;fill-opacity:1;"/>
  <line x1="240" y1="462" x2="230" y2="462" style="fill:rgb(211,211,211);stroke:black;stroke-width:1;fill-opacity:1;"/>
  <text x="228" y="464" style="fill:black;font-family:monospace;font-size:12.6;text-anchor:end">RES0</text>
  <line x1="264" y1="372" x2="264" y2="480" style="fill:white;stroke:black;stroke-width:1;fill-opacity:0;"/>
  <line x1="264" y1="480" x2="254" y2="480" style="fill:white;stroke:black;stroke-width:1;fill-opacity:0;"/>
  <text x="252" y="482" style="fill:black;font-family:monospace;font-size:12.6;text-anchor:end">TID5</text>
  <line x1="480" y1="372" x2="480" y2="390" style="fill:white;stroke:black;stroke-width:1;fill-opacity:0;"/>
  <line x1="480" y1="390" x2="490" y2="390" style="fill:white;stroke:black;stroke-width:1;fill-opacity:0;"/>
  <text x="492" y="392" style="fill:black;font-family:monospace;font-size:12.6;text-anchor:start">TLOR</text>
  <line x1="456" y1="372" x2="456" y2="408" style="fill:white;stroke:black;stroke-width:1;fill-opacity:0;"/>
  <line x1="456" y1="408" x2="466" y2="408" style="fill:white;stroke:black;stroke-width:1;fill-opacity:0;"/>
  <text x="468" y="410" style="fill:black;font-family:monospace;font-size:12.6;text-anchor:start">TERR</text>
  <line x1="384" y1="372" x2="384" y2="426" style="fill:white;stroke:black;stroke-width:1;fill-opacity:0;"/>
  <line x1="384" y1="426" x2="394" y2="426" style="fill:white;stroke:black;stroke-width:1;fill-opacity:0;"/>
  <text x="396" y="428" style="fill:black;font-family:monospace;font-size:12.6;text-anchor:start">EEL2</text>
  <line x1="360" y1="372" x2="360" y2="444" style="fill:white;stroke:black;stroke-width:1;fill-opacity:0;"/>
  <line x1="360" y1="444" x2="370" y2="444" style="fill:white;stroke:black;stroke-width:1;fill-opacity:0;"/>
  <text x="372" y="446" style="fill:black;font-family:monospace;font-size:12.6;text-anchor:start">EASE</text>
  <line x1="336" y1="372" x2="336" y2="462" style="fill:white;stroke:black;stroke-width:1;fill-opacity:0;"/>
  <line x1="336" y1="462" x2="346" y2="462" style="fill:white;stroke:black;stroke-width:1;fill-opacity:0;"/>
  <text x="348" y="464" style="fill:black;font-family:monospace;font-size:12.6;text-anchor:start">NMEA</text>
  <line x1="312" y1="372" x2="312" y2="480" style="fill:white;stroke:black;stroke-width:1;fill-opacity:0;"/>
  <line x1="312" y1="480" x2="322" y2="480" style="fill:white;stroke:black;stroke-width:1;fill-opacity:0;"/>
  <text x="324" y="482" style="fill:black;font-family:monospace;font-size:12.6;text-anchor:start">FIEN</text>
  <line x1="288" y1="372" x2="288" y2="498" style="fill:white;stroke:black;stroke-width:1;fill-opacity:0;"/>
  <line x1="288" y1="498" x2="298" y2="498" style="fill:white;stroke:black;stroke-width:1;fill-opacity:0;"/>
  <text x="300" y="500" style="fill:black;font-family:monospace;font-size:12.6;text-anchor:start">TID3</text>
  <line x1="672" y1="372" x2="672" y2="390" style="fill:rgb(211,211,211);stroke:black;stroke-width:1;fill-opacity:1;"/>
  <line x1="672" y1="390" x2="682" y2="390" style="fill:rgb(211,211,211);stroke:black;stroke-width:1;fill-opacity:1;"/>
  <text x="684" y="392" style="fill:black;font-family:monospace;font-size:12.6;text-anchor:start">RES0</text>
</svg>
